<svg id="svg" version="1.1" xmlns="http://www.w3.org/2000/svg" xmlns:xlink="http://www.w3.org/1999/xlink" width="400" height="400" viewBox="0, 0, 400,400"><g id="svgg"><path id="path0" d="M210.400 34.000 C 210.400 34.440,210.559 34.800,210.753 34.800 C 210.948 34.800,211.201 34.440,211.316 34.000 C 211.452 33.480,211.328 33.200,210.963 33.200 C 210.653 33.200,210.400 33.560,210.400 34.000 M213.272 34.100 C 213.391 34.936,213.628 35.008,216.599 35.119 C 218.358 35.184,219.969 35.409,220.179 35.619 C 220.388 35.828,222.279 36.008,224.380 36.017 C 228.880 36.037,244.667 37.063,248.400 37.577 C 253.519 38.283,259.281 39.228,263.200 40.005 C 264.410 40.244,266.076 40.541,266.903 40.663 C 267.729 40.785,268.505 41.045,268.626 41.242 C 268.748 41.439,269.456 41.600,270.200 41.600 C 270.944 41.600,271.664 41.780,271.800 42.000 C 271.936 42.220,272.656 42.400,273.400 42.400 C 274.144 42.400,274.864 42.580,275.000 42.800 C 275.136 43.020,275.629 43.200,276.095 43.200 C 276.996 43.200,279.339 43.865,280.495 44.449 C 280.877 44.642,281.541 44.800,281.971 44.800 C 282.401 44.800,282.864 44.980,283.000 45.200 C 283.136 45.420,283.676 45.600,284.200 45.600 C 284.724 45.600,285.264 45.780,285.400 46.000 C 285.536 46.220,286.076 46.400,286.600 46.400 C 287.124 46.400,287.664 46.580,287.800 46.800 C 287.936 47.020,288.476 47.200,289.000 47.200 C 289.524 47.200,290.064 47.380,290.200 47.600 C 290.336 47.820,290.715 48.000,291.043 48.000 C 291.371 48.000,292.384 48.360,293.294 48.800 C 294.205 49.240,295.098 49.600,295.279 49.600 C 295.461 49.600,296.462 49.978,297.504 50.440 C 298.547 50.902,299.760 51.427,300.200 51.608 C 302.496 52.549,311.716 57.139,313.800 58.378 C 315.120 59.163,317.055 60.254,318.100 60.802 C 319.145 61.350,320.000 61.934,320.000 62.099 C 320.000 62.265,320.188 62.400,320.418 62.400 C 320.927 62.400,326.946 66.406,327.133 66.870 C 327.207 67.051,327.430 67.200,327.630 67.200 C 328.025 67.200,331.156 69.459,332.864 70.975 C 333.449 71.495,334.200 72.073,334.534 72.260 C 336.989 73.636,350.428 86.501,352.351 89.315 C 352.683 89.802,353.239 90.470,353.586 90.800 C 354.283 91.464,355.738 93.232,357.065 95.029 C 357.541 95.673,358.576 97.057,359.365 98.103 C 360.154 99.150,360.800 100.185,360.800 100.403 C 360.800 100.622,360.950 100.800,361.132 100.800 C 361.315 100.800,361.720 101.295,362.032 101.900 C 362.345 102.505,362.915 103.349,363.300 103.775 C 363.685 104.202,364.000 104.714,364.000 104.914 C 364.000 105.113,364.356 105.776,364.791 106.387 C 366.705 109.075,372.088 119.725,374.097 124.800 C 374.315 125.350,374.652 126.113,374.847 126.495 C 375.041 126.877,375.200 127.464,375.200 127.800 C 375.200 128.393,375.366 128.816,376.338 130.695 C 376.592 131.187,376.800 132.031,376.800 132.571 C 376.800 133.111,376.980 133.664,377.200 133.800 C 377.420 133.936,377.600 134.476,377.600 135.000 C 377.600 135.524,377.759 136.051,377.954 136.171 C 378.149 136.292,378.407 136.887,378.529 137.495 C 378.651 138.103,378.952 139.410,379.197 140.400 C 382.012 151.747,382.882 159.715,382.974 174.973 C 383.023 182.952,383.164 185.788,383.520 185.907 C 383.784 185.995,384.000 185.868,384.000 185.625 C 384.000 185.382,384.450 184.978,385.000 184.727 C 386.371 184.103,386.534 179.833,385.200 179.484 C 384.760 179.369,384.400 179.078,384.400 178.837 C 384.400 178.597,384.760 178.400,385.200 178.400 C 385.822 178.400,386.000 178.133,386.000 177.200 C 386.000 176.400,385.800 176.000,385.400 176.000 C 384.659 176.000,384.659 175.959,385.403 174.546 C 385.773 173.841,385.980 172.484,385.940 171.021 C 385.900 169.524,386.047 168.584,386.338 168.487 C 387.037 168.254,386.891 166.355,386.132 165.799 C 385.764 165.531,385.421 165.061,385.370 164.755 C 385.319 164.450,385.151 163.887,384.997 163.503 C 384.812 163.044,384.936 162.723,385.358 162.561 C 386.108 162.273,386.341 154.000,385.600 154.000 C 385.371 154.000,385.200 152.800,385.200 151.200 C 385.200 149.600,385.029 148.400,384.800 148.400 C 384.578 148.400,384.400 147.333,384.400 146.000 C 384.400 144.667,384.222 143.600,384.000 143.600 C 383.780 143.600,383.600 142.700,383.600 141.600 C 383.600 140.500,383.420 139.600,383.200 139.600 C 382.980 139.600,382.800 138.880,382.800 138.000 C 382.800 137.120,382.620 136.400,382.400 136.400 C 382.180 136.400,382.000 135.871,382.000 135.224 C 382.000 134.577,381.820 133.936,381.600 133.800 C 381.380 133.664,381.200 132.933,381.200 132.176 C 381.200 131.419,381.020 130.800,380.800 130.800 C 380.580 130.800,380.400 130.260,380.400 129.600 C 380.400 128.940,380.220 128.400,380.000 128.400 C 379.780 128.400,379.600 128.040,379.600 127.600 C 379.600 127.160,379.420 126.800,379.200 126.800 C 378.980 126.800,378.800 126.260,378.800 125.600 C 378.800 124.674,378.621 124.400,378.014 124.400 C 377.018 124.400,376.136 122.904,376.763 122.277 C 377.311 121.729,377.340 119.600,376.800 119.600 C 376.580 119.600,376.400 119.240,376.400 118.800 C 376.400 118.360,376.220 118.000,376.000 118.000 C 375.780 118.000,375.600 117.640,375.600 117.200 C 375.600 116.760,375.420 116.400,375.200 116.400 C 374.980 116.400,374.800 116.130,374.800 115.800 C 374.800 115.427,374.422 115.200,373.800 115.200 C 372.690 115.200,372.396 114.130,373.400 113.745 C 374.234 113.425,374.149 112.684,373.200 112.000 C 372.760 111.683,372.400 111.103,372.400 110.712 C 372.400 110.320,372.220 110.000,372.000 110.000 C 371.780 110.000,371.600 109.640,371.600 109.200 C 371.600 108.678,371.333 108.400,370.833 108.400 C 369.073 108.400,368.751 107.999,369.028 106.151 C 369.205 104.974,369.145 104.400,368.845 104.400 C 368.600 104.400,368.400 104.040,368.400 103.600 C 368.400 103.160,368.220 102.800,368.000 102.800 C 367.780 102.800,367.600 102.528,367.600 102.196 C 367.600 101.864,367.060 101.028,366.400 100.337 C 365.740 99.646,365.200 98.838,365.200 98.541 C 365.200 98.243,365.050 98.000,364.868 98.000 C 364.685 98.000,364.281 97.505,363.970 96.900 C 363.660 96.295,363.089 95.509,362.703 95.153 C 362.316 94.797,362.000 94.291,362.000 94.027 C 362.000 93.764,361.100 92.671,360.000 91.600 C 358.900 90.529,358.000 89.362,358.000 89.008 C 358.000 88.494,357.729 88.415,356.662 88.615 C 355.202 88.889,354.794 88.334,354.181 85.242 C 353.849 83.573,351.434 81.025,350.517 81.377 C 349.636 81.714,348.035 80.152,348.284 79.199 C 348.633 77.867,345.909 75.558,344.356 75.869 C 343.162 76.108,343.091 76.061,343.320 75.186 C 343.552 74.297,339.864 70.000,338.869 70.000 C 338.697 70.000,337.435 68.920,336.065 67.600 C 334.695 66.280,333.376 65.200,333.134 65.200 C 332.892 65.200,332.401 64.885,332.043 64.500 C 331.274 63.674,329.795 62.800,329.166 62.800 C 328.921 62.800,328.217 62.260,327.600 61.600 C 326.983 60.940,326.135 60.400,325.715 60.400 C 325.295 60.400,324.564 60.040,324.092 59.600 C 323.620 59.160,322.996 58.800,322.705 58.800 C 322.414 58.800,321.917 58.440,321.600 58.000 C 321.283 57.560,320.703 57.200,320.312 57.200 C 319.920 57.200,319.600 57.020,319.600 56.800 C 319.600 56.580,319.280 56.400,318.888 56.400 C 318.497 56.400,317.917 56.040,317.600 55.600 C 317.283 55.160,316.703 54.800,316.312 54.800 C 315.920 54.800,315.600 54.620,315.600 54.400 C 315.600 54.180,315.240 54.000,314.800 54.000 C 314.360 54.000,314.000 53.820,314.000 53.600 C 314.000 53.380,313.640 53.200,313.200 53.200 C 312.760 53.200,312.400 53.020,312.400 52.800 C 312.400 52.580,312.040 52.400,311.600 52.400 C 311.160 52.400,310.800 52.220,310.800 52.000 C 310.800 51.780,310.440 51.600,310.000 51.600 C 309.560 51.600,309.200 51.406,309.200 51.169 C 309.200 50.932,308.616 50.778,307.900 50.827 C 305.264 51.006,301.420 49.533,301.702 48.452 C 301.885 47.752,301.145 46.800,300.417 46.800 C 300.188 46.800,300.000 47.070,300.000 47.400 C 300.000 48.130,299.680 48.149,298.283 47.500 C 297.583 47.175,297.205 46.685,297.203 46.100 C 297.201 45.407,296.969 45.200,296.200 45.200 C 295.578 45.200,295.200 45.427,295.200 45.800 C 295.200 46.473,294.182 46.618,293.800 46.000 C 293.664 45.780,293.203 45.600,292.776 45.600 C 292.215 45.600,292.000 45.323,292.000 44.600 C 292.000 43.978,291.773 43.600,291.400 43.600 C 291.070 43.600,290.800 43.420,290.800 43.200 C 290.800 42.980,290.080 42.800,289.200 42.800 C 288.320 42.800,287.600 42.620,287.600 42.400 C 287.600 42.180,287.060 42.000,286.400 42.000 C 285.740 42.000,285.200 41.820,285.200 41.600 C 285.200 41.380,284.660 41.200,284.000 41.200 C 283.340 41.200,282.800 41.020,282.800 40.800 C 282.800 40.580,282.080 40.400,281.200 40.400 C 280.320 40.400,279.600 40.220,279.600 40.000 C 279.600 39.780,278.880 39.600,278.000 39.600 C 277.120 39.600,276.400 39.420,276.400 39.200 C 276.400 38.980,275.860 38.800,275.200 38.800 C 274.540 38.800,274.000 38.620,274.000 38.400 C 274.000 38.180,273.100 38.000,272.000 38.000 C 270.900 38.000,270.000 37.820,270.000 37.600 C 270.000 37.378,268.933 37.200,267.600 37.200 C 266.267 37.200,265.200 37.022,265.200 36.800 C 265.200 36.580,264.300 36.400,263.200 36.400 C 262.100 36.400,261.200 36.220,261.200 36.000 C 261.200 35.771,260.000 35.600,258.400 35.600 C 256.800 35.600,255.600 35.429,255.600 35.200 C 255.600 34.980,254.621 34.800,253.424 34.800 C 252.227 34.800,251.136 34.620,251.000 34.400 C 250.858 34.169,248.729 34.000,245.976 34.000 C 243.059 34.000,241.200 33.844,241.200 33.600 C 241.200 32.990,235.704 33.087,235.500 33.700 C 235.222 34.537,214.874 34.659,214.554 33.825 C 214.173 32.832,213.124 33.057,213.272 34.100 M202.000 34.400 C 202.000 34.620,202.270 34.800,202.600 34.800 C 202.930 34.800,203.200 34.620,203.200 34.400 C 203.200 34.180,202.930 34.000,202.600 34.000 C 202.270 34.000,202.000 34.180,202.000 34.400 M155.137 83.396 C 155.030 83.504,153.785 83.783,152.371 84.016 C 147.503 84.819,147.192 84.890,146.973 85.244 C 146.852 85.440,146.448 85.599,146.076 85.597 C 145.225 85.593,138.864 88.752,137.825 89.696 C 137.398 90.083,136.883 90.400,136.681 90.400 C 134.165 90.400,122.400 107.239,122.400 110.840 C 122.400 111.232,122.220 111.664,122.000 111.800 C 121.780 111.936,121.600 112.476,121.600 113.000 C 121.600 113.524,121.420 114.064,121.200 114.200 C 120.980 114.336,120.800 114.876,120.800 115.400 C 120.800 115.924,120.640 116.452,120.444 116.573 C 120.249 116.694,119.987 117.379,119.863 118.096 C 119.739 118.813,119.527 120.030,119.392 120.800 C 119.256 121.570,118.989 122.560,118.798 123.000 C 118.606 123.440,118.344 124.520,118.214 125.400 C 118.085 126.280,117.803 127.990,117.589 129.200 C 117.003 132.511,116.438 136.587,116.008 140.600 C 115.128 148.823,115.132 148.800,114.450 148.797 C 113.717 148.793,112.800 147.098,112.800 145.744 C 112.800 145.251,112.620 144.736,112.400 144.600 C 112.180 144.464,112.000 143.924,112.000 143.400 C 112.000 142.876,111.820 142.336,111.600 142.200 C 111.380 142.064,111.200 141.421,111.200 140.771 C 111.200 140.121,111.038 139.277,110.839 138.895 C 110.499 138.240,110.011 136.550,109.167 133.100 C 108.361 129.804,107.929 128.144,107.573 126.972 C 107.368 126.296,107.200 125.362,107.200 124.895 C 107.200 124.429,107.020 123.936,106.800 123.800 C 106.580 123.664,106.400 122.944,106.400 122.200 C 106.400 121.456,106.220 120.736,106.000 120.600 C 105.780 120.464,105.600 119.744,105.600 119.000 C 105.600 118.256,105.420 117.536,105.200 117.400 C 104.980 117.264,104.800 116.544,104.800 115.800 C 104.800 115.056,104.620 114.336,104.400 114.200 C 104.180 114.064,104.000 113.344,104.000 112.600 C 104.000 111.856,103.820 111.136,103.600 111.000 C 103.380 110.864,103.200 110.234,103.200 109.600 C 103.200 108.966,103.040 108.348,102.844 108.227 C 102.649 108.106,102.391 107.421,102.273 106.704 C 101.917 104.553,101.559 103.046,101.203 102.200 C 101.018 101.760,100.633 100.545,100.346 99.500 C 99.801 97.512,98.985 97.097,97.295 97.951 C 96.229 98.489,93.823 99.200,93.066 99.200 C 92.694 99.200,92.077 99.362,91.695 99.561 C 91.313 99.760,90.190 100.137,89.200 100.400 C 88.210 100.663,87.087 101.040,86.705 101.239 C 86.323 101.438,85.569 101.600,85.029 101.600 C 84.489 101.600,83.936 101.780,83.800 102.000 C 83.664 102.220,83.201 102.400,82.771 102.400 C 82.341 102.400,81.677 102.559,81.295 102.754 C 80.074 103.376,75.325 104.800,74.471 104.800 C 74.018 104.800,73.536 104.980,73.400 105.200 C 73.264 105.420,72.801 105.600,72.371 105.600 C 71.941 105.600,71.277 105.758,70.895 105.951 C 69.739 106.535,67.396 107.200,66.495 107.200 C 66.029 107.200,65.548 107.360,65.427 107.556 C 65.219 107.893,64.181 108.134,60.665 108.661 C 59.762 108.796,58.947 108.707,58.685 108.445 C 58.440 108.200,57.910 108.000,57.507 108.000 C 57.105 108.000,56.671 107.730,56.545 107.400 C 56.290 106.736,54.800 106.565,54.800 107.200 C 54.800 107.420,54.080 107.600,53.200 107.600 C 52.320 107.600,51.600 107.780,51.600 108.000 C 51.600 108.220,51.060 108.400,50.400 108.400 C 49.740 108.400,49.200 108.580,49.200 108.800 C 49.200 109.020,48.840 109.200,48.400 109.200 C 47.960 109.200,47.600 109.380,47.600 109.600 C 47.600 109.820,47.060 110.000,46.400 110.000 C 45.467 110.000,45.200 110.178,45.200 110.800 C 45.200 111.240,45.020 111.600,44.800 111.600 C 44.266 111.600,44.290 113.447,44.837 114.468 C 45.077 114.917,45.326 115.850,45.391 116.542 C 45.455 117.234,45.638 118.115,45.797 118.500 C 45.970 118.919,45.908 119.200,45.643 119.200 C 45.399 119.200,45.200 119.380,45.200 119.600 C 45.200 119.820,45.711 120.000,46.336 120.000 C 47.137 120.000,48.045 120.541,49.411 121.831 L 51.349 123.661 53.774 123.386 C 55.108 123.235,56.380 122.972,56.600 122.803 C 56.820 122.633,57.630 122.393,58.400 122.270 C 59.170 122.146,60.700 121.845,61.800 121.602 C 75.841 118.499,82.099 122.430,85.995 136.800 C 86.264 137.790,86.645 139.013,86.842 139.519 C 87.039 140.024,87.200 140.869,87.200 141.395 C 87.200 141.922,87.380 142.464,87.600 142.600 C 87.820 142.736,88.000 143.379,88.000 144.029 C 88.000 144.679,88.162 145.523,88.361 145.905 C 88.698 146.554,89.005 147.620,90.000 151.600 C 91.073 155.894,91.281 156.688,91.627 157.828 C 91.832 158.504,92.000 159.438,92.000 159.905 C 92.000 160.371,92.180 160.864,92.400 161.000 C 92.620 161.136,92.800 161.856,92.800 162.600 C 92.800 163.344,92.980 164.064,93.200 164.200 C 93.420 164.336,93.600 165.056,93.600 165.800 C 93.600 166.544,93.780 167.264,94.000 167.400 C 94.220 167.536,94.400 168.256,94.400 169.000 C 94.400 169.744,94.560 170.452,94.756 170.573 C 94.951 170.694,95.202 171.379,95.314 172.096 C 95.425 172.813,95.909 174.840,96.389 176.600 C 96.870 178.360,97.429 180.475,97.632 181.300 C 98.049 182.998,98.600 185.206,99.229 187.700 C 99.465 188.635,99.755 189.987,99.873 190.704 C 99.992 191.421,100.249 192.106,100.444 192.227 C 100.640 192.348,100.800 193.056,100.800 193.800 C 100.800 194.544,100.980 195.264,101.200 195.400 C 101.420 195.536,101.600 196.256,101.600 197.000 C 101.600 197.744,101.780 198.464,102.000 198.600 C 102.220 198.736,102.400 199.456,102.400 200.200 C 102.400 200.944,102.580 201.664,102.800 201.800 C 103.020 201.936,103.200 202.656,103.200 203.400 C 103.200 204.144,103.380 204.864,103.600 205.000 C 103.820 205.136,104.000 205.856,104.000 206.600 C 104.000 207.344,104.180 208.064,104.400 208.200 C 104.620 208.336,104.800 209.056,104.800 209.800 C 104.800 210.544,104.960 211.252,105.156 211.373 C 105.492 211.580,105.728 212.593,106.258 216.103 C 106.382 216.929,106.645 217.705,106.842 217.826 C 107.039 217.948,107.200 218.656,107.200 219.400 C 107.200 220.144,107.380 220.864,107.600 221.000 C 107.820 221.136,108.000 221.831,108.000 222.544 C 108.000 223.257,108.162 224.011,108.359 224.220 C 108.556 224.429,108.818 225.320,108.941 226.200 C 109.064 227.080,109.362 229.184,109.603 230.875 C 110.349 236.098,105.511 242.400,100.756 242.400 C 100.366 242.400,99.936 242.580,99.800 242.800 C 99.664 243.020,99.201 243.200,98.771 243.200 C 98.341 243.200,97.677 243.362,97.295 243.561 C 96.913 243.760,95.790 244.132,94.800 244.388 C 93.810 244.644,92.447 245.022,91.772 245.227 C 91.096 245.432,90.162 245.600,89.695 245.600 C 89.229 245.600,88.736 245.780,88.600 246.000 C 88.464 246.220,87.958 246.401,87.476 246.401 C 85.303 246.405,83.907 247.879,84.147 249.917 C 84.594 253.709,84.892 255.210,85.242 255.426 C 85.439 255.548,85.600 256.065,85.600 256.575 C 85.600 258.382,91.453 259.507,92.970 257.990 C 93.184 257.776,93.943 257.600,94.656 257.600 C 95.369 257.600,96.064 257.420,96.200 257.200 C 96.336 256.980,97.056 256.800,97.800 256.800 C 98.544 256.800,99.252 256.640,99.373 256.444 C 99.494 256.249,100.179 255.992,100.896 255.873 C 101.613 255.755,102.965 255.465,103.900 255.229 C 104.835 254.993,106.275 254.632,107.100 254.427 C 107.925 254.221,109.320 253.849,110.200 253.600 C 111.080 253.351,112.520 252.971,113.400 252.755 C 114.280 252.540,115.675 252.192,116.500 251.982 C 117.325 251.772,118.720 251.420,119.600 251.200 C 120.480 250.980,121.965 250.607,122.900 250.371 C 123.835 250.135,125.187 249.845,125.904 249.727 C 126.621 249.608,127.306 249.351,127.427 249.156 C 127.548 248.960,128.256 248.800,129.000 248.800 C 129.744 248.800,130.464 248.620,130.600 248.400 C 130.736 248.180,131.456 248.000,132.200 248.000 C 132.944 248.000,133.664 247.820,133.800 247.600 C 133.936 247.380,134.656 247.200,135.400 247.200 C 136.144 247.200,136.864 247.020,137.000 246.800 C 137.136 246.580,137.856 246.400,138.600 246.400 C 139.344 246.400,140.052 246.240,140.173 246.044 C 140.294 245.849,140.979 245.598,141.696 245.486 C 142.413 245.375,144.440 244.891,146.200 244.411 C 147.960 243.930,150.075 243.371,150.900 243.168 C 152.598 242.751,154.806 242.200,157.300 241.571 C 158.235 241.335,159.587 241.045,160.304 240.927 C 161.021 240.808,161.706 240.551,161.827 240.356 C 161.948 240.160,162.656 240.000,163.400 240.000 C 164.144 240.000,164.864 239.820,165.000 239.600 C 165.136 239.380,165.856 239.200,166.600 239.200 C 167.344 239.200,168.064 239.020,168.200 238.800 C 168.336 238.580,168.966 238.400,169.600 238.400 C 170.234 238.400,170.852 238.240,170.973 238.044 C 171.094 237.849,171.779 237.593,172.496 237.476 C 176.511 236.822,176.589 236.766,176.723 234.428 C 176.790 233.250,176.655 232.095,176.423 231.863 C 176.190 231.630,176.000 230.857,176.000 230.144 C 176.000 229.431,175.820 228.736,175.600 228.600 C 175.380 228.464,175.200 228.039,175.200 227.656 C 175.200 225.308,170.933 223.367,169.800 225.200 C 169.664 225.420,169.034 225.600,168.400 225.600 C 167.766 225.600,167.136 225.780,167.000 226.000 C 166.864 226.220,166.144 226.400,165.400 226.400 C 164.656 226.400,163.948 226.560,163.827 226.756 C 163.706 226.951,163.021 227.213,162.304 227.337 C 161.587 227.461,160.370 227.673,159.600 227.808 C 158.830 227.944,157.840 228.212,157.400 228.405 C 155.184 229.374,143.609 229.931,142.019 229.144 C 140.194 228.242,138.400 226.772,138.400 226.180 C 138.400 225.861,138.220 225.600,138.000 225.600 C 137.780 225.600,137.600 225.251,137.600 224.824 C 137.600 224.397,137.420 223.936,137.200 223.800 C 136.980 223.664,136.800 223.124,136.800 222.600 C 136.800 222.076,136.640 221.548,136.444 221.427 C 136.249 221.306,135.995 220.621,135.881 219.904 C 135.768 219.187,135.465 217.880,135.209 217.000 C 134.954 216.120,134.653 214.950,134.542 214.400 C 134.431 213.850,134.187 213.040,134.000 212.600 C 133.813 212.160,133.569 211.350,133.458 210.800 C 133.347 210.250,133.051 209.080,132.801 208.200 C 132.551 207.320,132.179 205.925,131.973 205.100 C 131.768 204.275,131.428 202.925,131.218 202.100 C 131.008 201.275,130.724 200.060,130.588 199.400 C 130.451 198.740,130.186 197.840,129.997 197.400 C 129.809 196.960,129.563 196.060,129.452 195.400 C 129.340 194.740,129.047 193.390,128.800 192.400 C 128.552 191.410,128.175 189.700,127.962 188.600 C 127.749 187.500,127.396 185.700,127.177 184.600 C 124.943 173.358,124.959 149.344,127.208 136.600 C 127.441 135.280,127.733 133.480,127.857 132.600 C 127.981 131.720,128.244 130.829,128.441 130.620 C 128.638 130.411,128.800 129.657,128.800 128.944 C 128.800 128.231,128.980 127.536,129.200 127.400 C 129.420 127.264,129.600 126.544,129.600 125.800 C 129.600 125.056,129.780 124.336,130.000 124.200 C 130.220 124.064,130.400 123.524,130.400 123.000 C 130.400 122.476,130.580 121.936,130.800 121.800 C 131.020 121.664,131.200 121.220,131.200 120.814 C 131.200 120.408,131.534 119.384,131.943 118.538 C 132.351 117.692,133.158 116.010,133.734 114.800 C 135.061 112.017,136.676 109.266,137.423 108.520 C 137.740 108.203,138.000 107.798,138.000 107.620 C 138.000 107.056,143.862 101.297,145.461 100.290 C 147.511 99.001,149.609 98.625,150.619 99.367 C 151.493 100.009,151.629 105.251,150.811 106.779 C 150.311 107.714,150.264 114.005,150.749 115.281 C 150.941 115.787,151.313 116.920,151.576 117.800 C 152.851 122.062,156.153 126.257,159.600 127.994 C 160.590 128.493,161.751 129.082,162.181 129.304 C 163.250 129.857,171.555 129.805,172.118 129.242 C 172.361 128.999,172.974 128.800,173.480 128.800 C 173.986 128.800,174.400 128.664,174.400 128.498 C 174.400 128.331,174.923 127.964,175.563 127.681 C 178.163 126.530,182.400 121.540,182.400 119.629 C 182.400 119.199,182.556 118.751,182.747 118.633 C 183.692 118.049,184.039 110.496,183.291 106.800 C 182.453 102.664,182.325 102.198,181.563 100.504 C 181.143 99.572,180.800 98.537,180.800 98.204 C 180.800 97.872,180.641 97.600,180.447 97.600 C 180.252 97.600,179.993 97.285,179.871 96.900 C 179.402 95.419,178.098 93.697,175.400 90.997 C 171.928 87.520,170.678 86.655,167.100 85.246 C 163.609 83.871,155.860 82.673,155.137 83.396 M272.353 116.975 C 272.217 117.114,270.597 117.396,268.753 117.602 C 264.033 118.128,262.320 118.401,261.400 118.772 C 260.960 118.950,259.340 119.491,257.800 119.975 C 255.123 120.816,253.593 121.420,251.039 122.644 C 250.400 122.950,249.635 123.200,249.339 123.200 C 249.042 123.200,248.800 123.335,248.800 123.501 C 248.800 123.666,247.945 124.249,246.900 124.797 C 245.855 125.344,244.651 126.109,244.225 126.496 C 243.798 126.883,243.213 127.200,242.925 127.200 C 242.636 127.200,242.399 127.335,242.397 127.500 C 242.396 127.665,241.721 128.244,240.897 128.788 C 239.144 129.944,232.661 136.345,231.094 138.465 C 230.499 139.271,229.784 140.171,229.506 140.465 C 229.228 140.759,228.745 141.495,228.432 142.100 C 228.120 142.705,227.715 143.200,227.532 143.200 C 227.350 143.200,227.200 143.391,227.200 143.624 C 227.200 144.469,224.597 148.000,223.974 148.000 C 223.247 148.000,222.699 146.992,222.018 144.400 C 221.759 143.410,221.378 142.047,221.173 141.372 C 220.968 140.696,220.800 139.839,220.800 139.466 C 220.800 139.094,220.632 138.477,220.427 138.095 C 220.221 137.713,219.822 136.545,219.539 135.500 L 219.025 133.600 217.136 133.600 C 216.097 133.600,215.136 133.780,215.000 134.000 C 214.864 134.220,214.144 134.400,213.400 134.400 C 212.656 134.400,211.936 134.580,211.800 134.800 C 211.664 135.020,210.944 135.200,210.200 135.200 C 209.456 135.200,208.736 135.380,208.600 135.600 C 208.464 135.820,207.744 136.000,207.000 136.000 C 206.256 136.000,205.536 136.180,205.400 136.400 C 205.264 136.620,204.544 136.800,203.800 136.800 C 203.056 136.800,202.336 136.980,202.200 137.200 C 202.064 137.420,201.344 137.600,200.600 137.600 C 199.856 137.600,199.136 137.780,199.000 138.000 C 198.864 138.220,198.221 138.400,197.571 138.400 C 196.921 138.400,196.077 138.558,195.695 138.751 C 194.539 139.335,192.196 140.000,191.295 140.000 C 190.829 140.000,190.336 140.180,190.200 140.400 C 190.064 140.620,189.612 140.800,189.195 140.800 C 186.972 140.800,185.124 143.964,186.758 144.974 C 186.955 145.095,187.210 145.871,187.325 146.697 C 187.440 147.524,187.730 148.965,187.967 149.900 C 188.205 150.835,188.580 152.320,188.800 153.200 C 189.020 154.080,189.372 155.475,189.582 156.300 C 189.991 157.908,190.495 159.918,191.211 162.800 C 191.457 163.790,191.755 165.187,191.873 165.904 C 191.992 166.621,192.249 167.306,192.444 167.427 C 192.640 167.548,192.800 168.256,192.800 169.000 C 192.800 169.744,192.980 170.464,193.200 170.600 C 193.420 170.736,193.600 171.456,193.600 172.200 C 193.600 172.944,193.780 173.664,194.000 173.800 C 194.220 173.936,194.400 174.656,194.400 175.400 C 194.400 176.144,194.560 176.852,194.756 176.973 C 194.951 177.094,195.208 177.779,195.327 178.496 C 195.559 179.900,196.077 182.047,196.800 184.600 C 197.049 185.480,197.429 186.920,197.645 187.800 C 197.860 188.680,198.208 190.075,198.418 190.900 C 198.628 191.725,198.988 193.165,199.218 194.100 C 199.818 196.539,200.375 198.762,200.847 200.600 C 201.073 201.480,201.355 202.787,201.473 203.504 C 201.592 204.221,201.849 204.906,202.044 205.027 C 202.240 205.148,202.400 205.856,202.400 206.600 C 202.400 207.344,202.580 208.064,202.800 208.200 C 203.020 208.336,203.200 209.056,203.200 209.800 C 203.200 210.544,203.380 211.264,203.600 211.400 C 203.820 211.536,204.000 212.256,204.000 213.000 C 204.000 213.744,204.180 214.464,204.400 214.600 C 204.620 214.736,204.800 215.456,204.800 216.200 C 204.800 216.944,204.960 217.652,205.156 217.773 C 205.351 217.894,205.609 218.579,205.727 219.296 C 206.085 221.459,206.442 222.956,206.800 223.800 C 206.987 224.240,207.251 225.140,207.388 225.800 C 207.524 226.460,207.800 227.630,208.000 228.400 C 208.200 229.170,208.543 230.520,208.763 231.400 C 208.983 232.280,209.343 233.720,209.563 234.600 C 209.783 235.480,210.143 236.920,210.363 237.800 C 210.583 238.680,210.952 240.165,211.182 241.100 C 211.412 242.035,211.793 243.565,212.029 244.500 C 212.265 245.435,212.555 246.787,212.673 247.504 C 212.792 248.221,213.049 248.906,213.244 249.027 C 213.440 249.148,213.600 249.856,213.600 250.600 C 213.600 251.344,213.780 252.064,214.000 252.200 C 214.220 252.336,214.400 253.056,214.400 253.800 C 214.400 254.544,214.580 255.264,214.800 255.400 C 215.020 255.536,215.200 256.256,215.200 257.000 C 215.200 257.744,215.380 258.464,215.600 258.600 C 215.820 258.736,216.000 259.456,216.000 260.200 C 216.000 260.944,216.160 261.652,216.356 261.773 C 216.551 261.894,216.808 262.579,216.927 263.296 C 217.159 264.700,217.677 266.847,218.400 269.400 C 218.649 270.280,219.021 271.675,219.227 272.500 C 219.432 273.325,219.772 274.675,219.982 275.500 C 220.192 276.325,220.552 277.765,220.782 278.700 C 221.012 279.635,221.393 281.165,221.629 282.100 C 221.865 283.035,222.155 284.387,222.273 285.104 C 222.392 285.821,222.649 286.506,222.844 286.627 C 223.040 286.748,223.200 287.456,223.200 288.200 C 223.200 288.944,223.380 289.664,223.600 289.800 C 223.820 289.936,224.000 290.656,224.000 291.400 C 224.000 292.144,224.180 292.864,224.400 293.000 C 224.620 293.136,224.800 293.856,224.800 294.600 C 224.800 295.344,224.980 296.064,225.200 296.200 C 225.420 296.336,225.600 297.056,225.600 297.800 C 225.600 298.544,225.780 299.264,226.000 299.400 C 226.220 299.536,226.400 300.256,226.400 301.000 C 226.400 301.744,226.560 302.452,226.756 302.573 C 226.951 302.694,227.208 303.379,227.327 304.096 C 227.577 305.611,228.003 307.364,229.200 311.800 C 229.675 313.560,230.229 315.675,230.432 316.500 C 230.634 317.325,230.980 318.720,231.200 319.600 C 231.420 320.480,231.780 321.920,232.000 322.800 C 232.220 323.680,232.580 325.120,232.800 326.000 C 233.020 326.880,233.372 328.275,233.582 329.100 C 233.792 329.925,234.168 331.410,234.417 332.400 C 235.153 335.318,235.326 337.634,234.843 338.117 C 234.599 338.361,234.394 338.929,234.387 339.380 C 234.380 339.831,234.110 340.549,233.787 340.976 C 233.129 341.847,232.980 345.200,233.600 345.200 C 233.820 345.200,234.000 345.920,234.000 346.800 C 234.000 347.680,234.180 348.400,234.400 348.400 C 234.620 348.400,234.800 348.994,234.800 349.720 C 234.800 351.099,235.583 353.191,236.100 353.197 C 236.265 353.199,236.400 354.100,236.400 355.200 C 236.400 356.300,236.580 357.200,236.800 357.200 C 237.022 357.200,237.200 358.267,237.200 359.600 C 237.200 360.933,237.378 362.000,237.600 362.000 C 237.820 362.000,238.000 362.272,238.000 362.605 C 238.000 363.894,239.595 366.000,240.571 366.000 C 240.917 366.000,241.200 366.180,241.200 366.400 C 241.200 366.633,242.533 366.800,244.400 366.800 C 246.267 366.800,247.600 366.633,247.600 366.400 C 247.600 366.180,248.434 366.000,249.453 366.000 C 250.871 366.000,251.494 365.789,252.107 365.100 C 252.650 364.490,252.965 364.361,253.087 364.700 C 253.299 365.291,255.600 365.383,255.600 364.800 C 255.600 364.580,256.140 364.400,256.800 364.400 C 257.460 364.400,258.000 364.220,258.000 364.000 C 258.000 363.780,258.900 363.600,260.000 363.600 C 261.100 363.600,262.000 363.420,262.000 363.200 C 262.000 362.980,262.720 362.800,263.600 362.800 C 264.480 362.800,265.200 362.620,265.200 362.400 C 265.200 362.180,265.920 362.000,266.800 362.000 C 267.680 362.000,268.400 361.820,268.400 361.600 C 268.400 361.380,268.940 361.200,269.600 361.200 C 270.260 361.200,270.800 361.020,270.800 360.800 C 270.800 360.580,271.340 360.400,272.000 360.400 C 272.660 360.400,273.200 360.220,273.200 360.000 C 273.200 359.780,273.740 359.600,274.400 359.600 C 275.060 359.600,275.600 359.420,275.600 359.200 C 275.600 358.980,275.878 358.800,276.218 358.800 C 277.099 358.800,278.800 356.983,278.800 356.042 C 278.800 355.605,278.980 355.136,279.200 355.000 C 279.420 354.864,279.600 354.043,279.600 353.176 C 279.600 352.309,279.420 351.600,279.200 351.600 C 278.980 351.600,278.800 350.700,278.800 349.600 C 278.800 348.500,278.620 347.600,278.400 347.600 C 278.180 347.600,278.000 346.880,278.000 346.000 C 278.000 345.120,277.820 344.400,277.600 344.400 C 277.380 344.400,277.200 344.051,277.200 343.624 C 277.200 343.197,277.020 342.736,276.800 342.600 C 276.580 342.464,276.400 341.744,276.400 341.000 C 276.400 340.256,276.220 339.536,276.000 339.400 C 275.780 339.264,275.600 338.533,275.600 337.776 C 275.600 337.019,275.420 336.400,275.200 336.400 C 274.980 336.400,274.800 335.680,274.800 334.800 C 274.800 333.920,274.620 333.200,274.400 333.200 C 274.180 333.200,274.000 332.671,274.000 332.024 C 274.000 331.377,273.820 330.736,273.600 330.600 C 273.380 330.464,273.200 329.991,273.200 329.548 C 273.200 328.736,272.340 327.600,271.724 327.600 C 270.948 327.600,268.000 324.257,268.000 323.378 C 268.000 322.866,267.820 322.336,267.600 322.200 C 267.380 322.064,267.200 321.421,267.200 320.771 C 267.200 320.121,267.042 319.277,266.849 318.895 C 266.265 317.739,265.600 315.396,265.600 314.495 C 265.600 314.029,265.420 313.536,265.200 313.400 C 264.980 313.264,264.800 312.621,264.800 311.971 C 264.800 311.321,264.638 310.477,264.439 310.095 C 264.100 309.443,263.821 308.470,262.773 304.300 C 262.538 303.365,262.178 302.047,261.973 301.372 C 261.768 300.696,261.600 299.762,261.600 299.295 C 261.600 298.829,261.420 298.336,261.200 298.200 C 260.980 298.064,260.800 297.421,260.800 296.771 C 260.800 296.121,260.638 295.277,260.439 294.895 C 260.100 294.243,259.821 293.270,258.773 289.100 C 258.538 288.165,258.178 286.847,257.973 286.172 C 257.768 285.496,257.600 284.562,257.600 284.095 C 257.600 283.629,257.420 283.136,257.200 283.000 C 256.980 282.864,256.800 282.144,256.800 281.400 C 256.800 280.656,256.620 279.936,256.400 279.800 C 256.180 279.664,256.000 278.944,256.000 278.200 C 256.000 277.456,255.820 276.736,255.600 276.600 C 255.380 276.464,255.200 275.744,255.200 275.000 C 255.200 274.256,255.020 273.536,254.800 273.400 C 254.580 273.264,254.400 272.544,254.400 271.800 C 254.400 271.056,254.220 270.336,254.000 270.200 C 253.780 270.064,253.600 269.344,253.600 268.600 C 253.600 267.856,253.420 267.136,253.200 267.000 C 252.980 266.864,252.800 266.144,252.800 265.400 C 252.800 264.656,252.640 263.948,252.444 263.827 C 252.108 263.620,251.872 262.607,251.342 259.097 C 251.218 258.271,250.955 257.495,250.758 257.374 C 250.561 257.252,250.400 256.544,250.400 255.800 C 250.400 255.056,250.220 254.336,250.000 254.200 C 249.780 254.064,249.600 253.344,249.600 252.600 C 249.600 251.856,249.420 251.136,249.200 251.000 C 248.980 250.864,248.800 250.235,248.800 249.602 C 248.800 248.970,248.613 247.959,248.384 247.357 C 247.529 245.109,248.728 244.857,252.076 246.582 C 253.684 247.411,255.090 248.203,255.200 248.344 C 255.514 248.746,257.146 249.600,257.599 249.600 C 257.824 249.600,258.862 249.978,259.904 250.440 C 260.947 250.902,262.160 251.418,262.600 251.586 C 263.040 251.755,263.850 252.083,264.400 252.316 C 265.398 252.739,266.729 253.067,269.000 253.451 C 269.660 253.563,270.560 253.808,271.000 253.996 C 273.755 255.174,287.843 255.174,290.600 253.996 C 291.040 253.808,291.940 253.563,292.600 253.451 C 295.087 253.031,296.249 252.704,297.896 251.963 C 298.828 251.543,299.744 251.200,299.932 251.200 C 301.171 251.200,309.579 246.347,313.400 243.426 C 315.490 241.828,323.199 234.226,323.202 233.760 C 323.203 233.562,323.743 232.825,324.402 232.122 C 325.061 231.419,325.600 230.726,325.600 230.583 C 325.600 230.440,325.985 229.783,326.456 229.122 C 327.612 227.497,332.000 218.794,332.000 218.124 C 332.000 217.830,332.174 217.277,332.387 216.895 C 334.305 213.457,336.175 204.578,336.849 195.719 C 337.370 188.861,336.620 174.905,335.606 172.600 C 335.413 172.160,335.163 171.260,335.052 170.600 C 334.940 169.940,334.645 168.590,334.396 167.600 C 334.146 166.610,333.845 165.213,333.727 164.496 C 333.608 163.779,333.351 163.094,333.156 162.973 C 332.960 162.852,332.800 162.437,332.800 162.052 C 332.800 161.666,332.440 160.605,332.000 159.694 C 331.560 158.784,331.200 157.848,331.200 157.614 C 331.200 157.380,331.028 156.877,330.818 156.495 C 330.608 156.113,329.532 153.959,328.428 151.709 C 326.413 147.607,325.667 146.203,325.089 145.420 C 324.919 145.189,324.202 144.100,323.497 143.000 C 322.793 141.900,321.807 140.552,321.308 140.004 C 320.809 139.456,320.400 138.854,320.400 138.665 C 320.400 138.280,311.359 129.222,310.353 128.600 C 309.998 128.380,308.378 127.293,306.753 126.185 C 304.137 124.400,300.136 122.272,297.200 121.104 C 296.650 120.886,295.887 120.548,295.505 120.353 C 295.123 120.159,294.459 120.000,294.029 120.000 C 293.599 120.000,293.136 119.820,293.000 119.600 C 292.864 119.380,292.234 119.200,291.600 119.200 C 290.966 119.200,290.348 119.039,290.226 118.842 C 290.008 118.490,289.361 118.363,283.800 117.584 C 280.023 117.054,272.659 116.663,272.353 116.975 M268.600 141.200 C 268.736 141.420,269.371 141.600,270.011 141.600 C 270.652 141.600,271.817 141.960,272.600 142.400 C 273.383 142.840,274.289 143.200,274.612 143.200 C 274.935 143.200,275.200 143.338,275.200 143.506 C 275.200 143.674,275.905 144.117,276.766 144.490 C 277.627 144.863,278.789 145.625,279.348 146.184 C 279.906 146.743,280.523 147.200,280.718 147.200 C 281.052 147.200,285.070 151.309,286.418 153.029 C 287.850 154.856,289.600 157.575,289.600 157.972 C 289.600 158.207,289.748 158.400,289.930 158.400 C 290.338 158.400,294.400 166.447,294.400 167.255 C 294.400 167.577,294.562 168.011,294.759 168.220 C 295.272 168.762,297.600 175.732,297.600 176.724 C 297.600 177.180,297.780 177.664,298.000 177.800 C 298.220 177.936,298.400 178.631,298.400 179.344 C 298.400 180.057,298.562 180.811,298.759 181.020 C 298.956 181.229,299.230 182.210,299.366 183.200 C 299.502 184.190,299.821 186.260,300.074 187.800 C 300.661 191.372,300.657 206.707,300.069 209.600 C 299.823 210.810,299.507 212.477,299.367 213.304 C 299.226 214.131,298.951 214.906,298.756 215.027 C 298.560 215.148,298.400 215.580,298.400 215.986 C 298.400 216.392,298.057 217.416,297.637 218.262 C 297.218 219.108,296.656 220.385,296.389 221.100 C 296.121 221.815,295.745 222.400,295.551 222.400 C 295.358 222.400,295.200 222.636,295.200 222.925 C 295.200 223.213,294.840 223.836,294.400 224.308 C 293.960 224.780,293.600 225.309,293.600 225.483 C 293.599 226.449,287.149 232.000,286.028 232.000 C 285.793 232.000,285.600 232.180,285.600 232.400 C 285.600 232.620,285.335 232.800,285.012 232.800 C 284.689 232.800,283.783 233.160,283.000 233.600 C 282.217 234.040,281.251 234.400,280.855 234.400 C 280.458 234.400,280.005 234.529,279.847 234.686 C 278.736 235.798,266.417 236.599,265.800 235.600 C 265.664 235.380,265.111 235.200,264.572 235.200 C 263.693 235.200,261.080 234.222,259.045 233.130 C 255.085 231.005,255.059 230.985,251.033 227.000 C 247.774 223.774,245.621 221.267,245.607 220.683 C 245.603 220.509,245.240 219.980,244.800 219.508 C 244.360 219.036,244.000 218.413,244.000 218.125 C 244.000 217.836,243.853 217.600,243.673 217.600 C 243.312 217.600,240.000 211.169,240.000 210.466 C 240.000 210.223,239.640 209.383,239.200 208.600 C 238.760 207.817,238.400 206.832,238.400 206.411 C 238.400 205.991,238.220 205.536,238.000 205.400 C 237.780 205.264,237.600 204.801,237.600 204.371 C 237.600 203.941,237.442 203.277,237.249 202.895 C 236.665 201.739,236.000 199.396,236.000 198.495 C 236.000 198.029,235.839 197.548,235.642 197.426 C 235.445 197.305,235.185 196.529,235.063 195.703 C 234.941 194.876,234.647 193.210,234.411 192.000 C 234.174 190.790,233.821 188.270,233.626 186.400 C 233.430 184.530,233.138 182.037,232.975 180.861 C 232.677 178.706,233.304 170.991,234.053 167.600 C 234.724 164.561,235.261 162.632,235.639 161.905 C 235.838 161.523,236.000 161.026,236.000 160.801 C 236.000 158.953,240.688 151.745,243.675 149.000 C 247.625 145.370,250.933 143.408,255.132 142.204 C 256.380 141.847,257.850 141.404,258.400 141.220 C 259.847 140.735,268.303 140.719,268.600 141.200 M383.789 187.361 C 382.876 188.755,383.151 190.565,384.300 190.728 C 385.131 190.846,385.200 190.701,385.200 188.851 C 385.200 186.508,384.696 185.976,383.789 187.361 M382.400 192.758 C 382.400 193.462,383.428 194.400,384.200 194.400 C 384.339 194.400,384.396 193.905,384.327 193.300 C 384.167 191.915,382.400 191.418,382.400 192.758 M382.267 196.667 C 382.120 196.813,382.014 197.398,382.032 197.967 C 382.049 198.535,382.154 198.775,382.265 198.500 C 382.376 198.225,382.722 198.000,383.033 198.000 C 383.345 198.000,383.600 197.640,383.600 197.200 C 383.600 196.429,382.817 196.116,382.267 196.667 M381.200 204.200 C 381.200 204.530,381.380 204.800,381.600 204.800 C 381.820 204.800,382.000 204.530,382.000 204.200 C 382.000 203.870,381.820 203.600,381.600 203.600 C 381.380 203.600,381.200 203.870,381.200 204.200 " stroke="none" fill="#fbfbfb" fill-rule="evenodd"></path><path id="path1" d="M207.600 33.600 C 207.600 33.820,206.610 34.000,205.400 34.000 C 204.190 34.000,203.200 34.180,203.200 34.400 C 203.200 34.620,202.930 34.800,202.600 34.800 C 202.270 34.800,202.000 34.620,202.000 34.400 C 202.000 34.180,201.280 34.000,200.400 34.000 C 199.520 34.000,198.800 34.180,198.800 34.400 C 198.800 34.620,198.260 34.800,197.600 34.800 C 196.940 34.800,196.400 34.980,196.400 35.200 C 196.400 35.420,196.209 35.600,195.976 35.600 C 195.743 35.600,195.664 35.420,195.800 35.200 C 195.947 34.962,195.471 34.800,194.624 34.800 C 193.841 34.800,193.200 34.980,193.200 35.200 C 193.200 35.429,192.000 35.600,190.400 35.600 C 188.800 35.600,187.600 35.771,187.600 36.000 C 187.600 36.220,186.711 36.400,185.624 36.400 C 184.537 36.400,183.536 36.580,183.400 36.800 C 183.264 37.020,182.173 37.200,180.976 37.200 C 179.779 37.200,178.800 37.380,178.800 37.600 C 178.800 37.820,178.080 38.000,177.200 38.000 C 176.320 38.000,175.600 38.180,175.600 38.400 C 175.600 38.620,174.880 38.800,174.000 38.800 C 173.120 38.800,172.400 38.980,172.400 39.200 C 172.400 39.420,171.680 39.600,170.800 39.600 C 169.920 39.600,169.200 39.780,169.200 40.000 C 169.200 40.220,168.480 40.400,167.600 40.400 C 166.720 40.400,166.000 40.580,166.000 40.800 C 166.000 41.020,165.280 41.200,164.400 41.200 C 163.520 41.200,162.800 41.380,162.800 41.600 C 162.800 41.820,161.900 42.000,160.800 42.000 C 159.700 42.000,158.800 42.180,158.800 42.400 C 158.800 42.620,158.271 42.800,157.624 42.800 C 156.977 42.800,156.336 42.980,156.200 43.200 C 156.064 43.420,155.333 43.600,154.576 43.600 C 153.819 43.600,153.200 43.780,153.200 44.000 C 153.200 44.220,152.660 44.400,152.000 44.400 C 151.340 44.400,150.800 44.580,150.800 44.800 C 150.800 45.020,150.260 45.200,149.600 45.200 C 148.940 45.200,148.400 45.380,148.400 45.600 C 148.400 45.820,147.860 46.000,147.200 46.000 C 146.540 46.000,146.000 46.180,146.000 46.400 C 146.000 46.620,145.640 46.800,145.200 46.800 C 144.760 46.800,144.400 46.980,144.400 47.200 C 144.400 47.420,143.860 47.600,143.200 47.600 C 142.540 47.600,142.000 47.780,142.000 48.000 C 142.000 48.220,141.640 48.400,141.200 48.400 C 140.760 48.400,140.400 48.580,140.400 48.800 C 140.400 49.020,140.040 49.200,139.600 49.200 C 139.160 49.200,138.800 49.380,138.800 49.600 C 138.800 49.820,138.260 50.000,137.600 50.000 C 136.940 50.000,136.400 50.180,136.400 50.400 C 136.400 50.620,136.040 50.800,135.600 50.800 C 135.160 50.800,134.800 50.980,134.800 51.200 C 134.800 51.420,134.522 51.600,134.183 51.600 C 133.844 51.600,133.180 51.960,132.708 52.400 C 132.236 52.840,131.433 53.200,130.925 53.200 C 130.416 53.200,130.000 53.380,130.000 53.600 C 130.000 53.820,129.500 54.000,128.888 54.000 C 128.235 54.000,127.539 54.330,127.200 54.800 C 126.883 55.240,126.303 55.600,125.912 55.600 C 125.520 55.600,125.200 55.780,125.200 56.000 C 125.200 56.220,124.840 56.400,124.400 56.400 C 123.960 56.400,123.600 56.580,123.600 56.800 C 123.600 57.020,123.060 57.200,122.400 57.200 C 121.740 57.200,121.200 57.380,121.200 57.600 C 121.200 57.820,120.840 58.000,120.400 58.000 C 119.960 58.000,119.600 58.180,119.600 58.400 C 119.600 58.620,119.240 58.800,118.800 58.800 C 118.360 58.800,118.000 58.980,118.000 59.200 C 118.000 59.420,117.640 59.600,117.200 59.600 C 116.760 59.600,116.400 59.780,116.400 60.000 C 116.400 60.220,116.040 60.400,115.600 60.400 C 115.160 60.400,114.800 60.580,114.800 60.800 C 114.800 61.020,114.440 61.200,114.000 61.200 C 113.560 61.200,113.200 61.380,113.200 61.600 C 113.200 61.820,112.840 62.000,112.400 62.000 C 111.960 62.000,111.600 62.180,111.600 62.400 C 111.600 62.620,111.240 62.800,110.800 62.800 C 110.360 62.800,110.000 62.980,110.000 63.200 C 110.000 63.420,109.680 63.600,109.288 63.600 C 108.897 63.600,108.317 63.960,108.000 64.400 C 107.683 64.840,107.186 65.200,106.895 65.200 C 106.604 65.200,105.980 65.560,105.508 66.000 C 105.036 66.440,104.413 66.800,104.125 66.800 C 103.836 66.800,103.600 66.980,103.600 67.200 C 103.600 67.420,103.312 67.600,102.960 67.600 C 102.609 67.600,101.817 68.140,101.200 68.800 C 100.583 69.460,99.831 70.000,99.528 70.000 C 99.225 70.000,98.717 70.360,98.400 70.800 C 98.083 71.240,97.543 71.600,97.200 71.600 C 96.857 71.600,96.317 71.960,96.000 72.400 C 95.683 72.840,95.143 73.200,94.800 73.200 C 94.457 73.200,93.917 73.560,93.600 74.000 C 93.283 74.440,92.791 74.800,92.508 74.800 C 92.225 74.800,91.428 75.340,90.737 76.000 C 90.046 76.660,89.238 77.200,88.941 77.200 C 88.643 77.200,88.400 77.380,88.400 77.600 C 88.400 77.820,88.080 78.000,87.688 78.000 C 87.297 78.000,86.717 78.360,86.400 78.800 C 86.083 79.240,85.579 79.600,85.280 79.600 C 84.982 79.600,84.046 80.320,83.200 81.200 C 82.354 82.080,81.470 82.800,81.234 82.800 C 80.998 82.800,78.815 84.780,76.382 87.200 C 73.949 89.620,71.787 91.600,71.577 91.600 C 70.931 91.600,56.400 106.354,56.400 107.010 C 56.400 107.348,56.715 107.726,57.100 107.849 C 57.485 107.972,58.189 108.258,58.663 108.484 C 59.138 108.711,60.128 108.790,60.863 108.660 C 61.599 108.530,62.877 108.308,63.704 108.167 C 64.531 108.027,65.306 107.751,65.427 107.556 C 65.548 107.360,66.029 107.200,66.495 107.200 C 67.396 107.200,69.739 106.535,70.895 105.951 C 71.277 105.758,71.941 105.600,72.371 105.600 C 72.801 105.600,73.264 105.420,73.400 105.200 C 73.536 104.980,74.018 104.800,74.471 104.800 C 75.325 104.800,80.074 103.376,81.295 102.754 C 81.677 102.559,82.341 102.400,82.771 102.400 C 83.201 102.400,83.664 102.220,83.800 102.000 C 83.936 101.780,84.489 101.600,85.029 101.600 C 85.569 101.600,86.323 101.438,86.705 101.239 C 87.087 101.040,88.210 100.663,89.200 100.400 C 90.190 100.137,91.313 99.760,91.695 99.561 C 92.077 99.362,92.694 99.200,93.066 99.200 C 93.823 99.200,96.229 98.489,97.295 97.951 C 98.985 97.097,99.801 97.512,100.346 99.500 C 100.633 100.545,101.018 101.760,101.203 102.200 C 101.559 103.046,101.917 104.553,102.273 106.704 C 102.391 107.421,102.649 108.106,102.844 108.227 C 103.040 108.348,103.200 108.966,103.200 109.600 C 103.200 110.234,103.380 110.864,103.600 111.000 C 103.820 111.136,104.000 111.856,104.000 112.600 C 104.000 113.344,104.180 114.064,104.400 114.200 C 104.620 114.336,104.800 115.056,104.800 115.800 C 104.800 116.544,104.980 117.264,105.200 117.400 C 105.420 117.536,105.600 118.256,105.600 119.000 C 105.600 119.744,105.780 120.464,106.000 120.600 C 106.220 120.736,106.400 121.456,106.400 122.200 C 106.400 122.944,106.580 123.664,106.800 123.800 C 107.020 123.936,107.200 124.429,107.200 124.895 C 107.200 125.362,107.368 126.296,107.573 126.972 C 107.919 128.112,108.127 128.906,109.200 133.200 C 110.195 137.180,110.502 138.246,110.839 138.895 C 111.038 139.277,111.200 140.121,111.200 140.771 C 111.200 141.421,111.380 142.064,111.600 142.200 C 111.820 142.336,112.000 142.876,112.000 143.400 C 112.000 143.924,112.180 144.464,112.400 144.600 C 112.620 144.736,112.800 145.251,112.800 145.744 C 112.800 147.098,113.717 148.793,114.450 148.797 C 115.132 148.800,115.128 148.823,116.008 140.600 C 116.438 136.587,117.003 132.511,117.589 129.200 C 117.803 127.990,118.085 126.280,118.214 125.400 C 118.344 124.520,118.606 123.440,118.798 123.000 C 118.989 122.560,119.256 121.570,119.392 120.800 C 119.527 120.030,119.739 118.813,119.863 118.096 C 119.987 117.379,120.249 116.694,120.444 116.573 C 120.640 116.452,120.800 115.924,120.800 115.400 C 120.800 114.876,120.980 114.336,121.200 114.200 C 121.420 114.064,121.600 113.524,121.600 113.000 C 121.600 112.476,121.780 111.936,122.000 111.800 C 122.220 111.664,122.400 111.232,122.400 110.840 C 122.400 107.239,134.165 90.400,136.681 90.400 C 136.883 90.400,137.398 90.083,137.825 89.696 C 138.864 88.752,145.225 85.593,146.076 85.597 C 146.448 85.599,146.852 85.440,146.973 85.244 C 147.094 85.049,147.779 84.786,148.496 84.661 C 149.213 84.536,150.790 84.252,152.000 84.031 C 156.647 83.180,158.066 83.103,160.497 83.569 C 168.254 85.054,170.664 86.255,175.400 90.997 C 178.098 93.697,179.402 95.419,179.871 96.900 C 179.993 97.285,180.252 97.600,180.447 97.600 C 180.641 97.600,180.800 97.872,180.800 98.204 C 180.800 98.537,181.143 99.572,181.563 100.504 C 182.325 102.198,182.453 102.664,183.291 106.800 C 184.039 110.496,183.692 118.049,182.747 118.633 C 182.556 118.751,182.400 119.199,182.400 119.629 C 182.400 121.540,178.163 126.530,175.563 127.681 C 174.923 127.964,174.400 128.331,174.400 128.498 C 174.400 128.664,173.986 128.800,173.480 128.800 C 172.974 128.800,172.361 128.999,172.118 129.242 C 171.555 129.805,163.250 129.857,162.181 129.304 C 161.751 129.082,160.590 128.493,159.600 127.994 C 156.153 126.257,152.851 122.062,151.576 117.800 C 151.313 116.920,150.941 115.787,150.749 115.281 C 150.264 114.005,150.311 107.714,150.811 106.779 C 151.629 105.251,151.493 100.009,150.619 99.367 C 149.609 98.625,147.511 99.001,145.461 100.290 C 143.862 101.297,138.000 107.056,138.000 107.620 C 138.000 107.798,137.740 108.203,137.423 108.520 C 136.676 109.266,135.061 112.017,133.734 114.800 C 133.158 116.010,132.351 117.692,131.943 118.538 C 131.534 119.384,131.200 120.408,131.200 120.814 C 131.200 121.220,131.020 121.664,130.800 121.800 C 130.580 121.936,130.400 122.476,130.400 123.000 C 130.400 123.524,130.220 124.064,130.000 124.200 C 129.780 124.336,129.600 125.056,129.600 125.800 C 129.600 126.544,129.420 127.264,129.200 127.400 C 128.980 127.536,128.800 128.231,128.800 128.944 C 128.800 129.657,128.638 130.411,128.441 130.620 C 128.244 130.829,127.981 131.720,127.857 132.600 C 127.733 133.480,127.441 135.280,127.208 136.600 C 124.951 149.389,124.942 173.192,127.190 184.700 C 128.176 189.748,128.375 190.699,128.800 192.400 C 129.047 193.390,129.340 194.740,129.452 195.400 C 129.563 196.060,129.809 196.960,129.997 197.400 C 130.186 197.840,130.451 198.740,130.588 199.400 C 130.724 200.060,131.000 201.230,131.200 202.000 C 131.400 202.770,131.740 204.120,131.955 205.000 C 132.171 205.880,132.551 207.320,132.801 208.200 C 133.051 209.080,133.347 210.250,133.458 210.800 C 133.569 211.350,133.813 212.160,134.000 212.600 C 134.187 213.040,134.431 213.850,134.542 214.400 C 134.653 214.950,134.954 216.120,135.209 217.000 C 135.465 217.880,135.768 219.187,135.881 219.904 C 135.995 220.621,136.249 221.306,136.444 221.427 C 136.640 221.548,136.800 222.076,136.800 222.600 C 136.800 223.124,136.980 223.664,137.200 223.800 C 137.420 223.936,137.600 224.397,137.600 224.824 C 137.600 225.251,137.780 225.600,138.000 225.600 C 138.220 225.600,138.400 225.861,138.400 226.180 C 138.400 226.772,140.194 228.242,142.019 229.144 C 143.609 229.931,155.184 229.374,157.400 228.405 C 157.840 228.212,158.830 227.944,159.600 227.808 C 160.370 227.673,161.587 227.461,162.304 227.337 C 163.021 227.213,163.706 226.951,163.827 226.756 C 163.948 226.560,164.656 226.400,165.400 226.400 C 166.144 226.400,166.864 226.220,167.000 226.000 C 167.136 225.780,167.766 225.600,168.400 225.600 C 169.034 225.600,169.664 225.420,169.800 225.200 C 170.933 223.367,175.200 225.308,175.200 227.656 C 175.200 228.039,175.380 228.464,175.600 228.600 C 175.820 228.736,176.000 229.431,176.000 230.144 C 176.000 230.857,176.190 231.630,176.423 231.863 C 176.655 232.095,176.790 233.250,176.723 234.428 C 176.589 236.766,176.511 236.822,172.496 237.476 C 171.779 237.593,171.094 237.849,170.973 238.044 C 170.852 238.240,170.234 238.400,169.600 238.400 C 168.966 238.400,168.336 238.580,168.200 238.800 C 168.064 239.020,167.344 239.200,166.600 239.200 C 165.856 239.200,165.136 239.380,165.000 239.600 C 164.864 239.820,164.144 240.000,163.400 240.000 C 162.656 240.000,161.948 240.160,161.827 240.356 C 161.706 240.551,161.021 240.808,160.304 240.927 C 159.587 241.045,158.280 241.327,157.400 241.553 C 156.520 241.779,154.990 242.160,154.000 242.400 C 150.743 243.190,149.438 243.526,146.200 244.411 C 144.440 244.891,142.413 245.375,141.696 245.486 C 140.979 245.598,140.294 245.849,140.173 246.044 C 140.052 246.240,139.344 246.400,138.600 246.400 C 137.856 246.400,137.136 246.580,137.000 246.800 C 136.864 247.020,136.144 247.200,135.400 247.200 C 134.656 247.200,133.936 247.380,133.800 247.600 C 133.664 247.820,132.944 248.000,132.200 248.000 C 131.456 248.000,130.736 248.180,130.600 248.400 C 130.464 248.620,129.744 248.800,129.000 248.800 C 128.256 248.800,127.548 248.960,127.427 249.156 C 127.306 249.351,126.621 249.608,125.904 249.727 C 125.187 249.845,123.835 250.135,122.900 250.371 C 121.965 250.607,120.435 250.988,119.500 251.218 C 118.565 251.448,117.125 251.808,116.300 252.018 C 115.475 252.228,114.125 252.568,113.300 252.773 C 112.475 252.979,111.080 253.351,110.200 253.600 C 109.320 253.849,107.880 254.229,107.000 254.445 C 106.120 254.660,104.680 255.021,103.800 255.247 C 102.920 255.473,101.613 255.755,100.896 255.873 C 100.179 255.992,99.494 256.249,99.373 256.444 C 99.252 256.640,98.544 256.800,97.800 256.800 C 97.056 256.800,96.336 256.980,96.200 257.200 C 96.064 257.420,95.369 257.600,94.656 257.600 C 93.943 257.600,93.184 257.776,92.970 257.990 C 91.453 259.507,85.600 258.382,85.600 256.575 C 85.600 256.065,85.439 255.548,85.242 255.426 C 84.892 255.210,84.594 253.709,84.147 249.917 C 83.907 247.879,85.303 246.405,87.476 246.401 C 87.958 246.401,88.464 246.220,88.600 246.000 C 88.736 245.780,89.229 245.600,89.695 245.600 C 90.162 245.600,91.096 245.432,91.772 245.227 C 92.447 245.022,93.810 244.644,94.800 244.388 C 95.790 244.132,96.913 243.760,97.295 243.561 C 97.677 243.362,98.341 243.200,98.771 243.200 C 99.201 243.200,99.664 243.020,99.800 242.800 C 99.936 242.580,100.366 242.400,100.756 242.400 C 105.511 242.400,110.349 236.098,109.603 230.875 C 109.362 229.184,109.064 227.080,108.941 226.200 C 108.818 225.320,108.556 224.429,108.359 224.220 C 108.162 224.011,108.000 223.257,108.000 222.544 C 108.000 221.831,107.820 221.136,107.600 221.000 C 107.380 220.864,107.200 220.144,107.200 219.400 C 107.200 218.656,107.039 217.948,106.842 217.826 C 106.645 217.705,106.382 216.929,106.258 216.103 C 105.728 212.593,105.492 211.580,105.156 211.373 C 104.960 211.252,104.800 210.544,104.800 209.800 C 104.800 209.056,104.620 208.336,104.400 208.200 C 104.180 208.064,104.000 207.344,104.000 206.600 C 104.000 205.856,103.820 205.136,103.600 205.000 C 103.380 204.864,103.200 204.144,103.200 203.400 C 103.200 202.656,103.020 201.936,102.800 201.800 C 102.580 201.664,102.400 200.944,102.400 200.200 C 102.400 199.456,102.220 198.736,102.000 198.600 C 101.780 198.464,101.600 197.744,101.600 197.000 C 101.600 196.256,101.420 195.536,101.200 195.400 C 100.980 195.264,100.800 194.544,100.800 193.800 C 100.800 193.056,100.640 192.348,100.444 192.227 C 100.249 192.106,99.992 191.421,99.873 190.704 C 99.674 189.501,99.482 188.680,98.418 184.500 C 98.208 183.675,97.863 182.280,97.650 181.400 C 97.437 180.520,96.870 178.360,96.389 176.600 C 95.909 174.840,95.425 172.813,95.314 172.096 C 95.202 171.379,94.951 170.694,94.756 170.573 C 94.560 170.452,94.400 169.744,94.400 169.000 C 94.400 168.256,94.220 167.536,94.000 167.400 C 93.780 167.264,93.600 166.544,93.600 165.800 C 93.600 165.056,93.420 164.336,93.200 164.200 C 92.980 164.064,92.800 163.344,92.800 162.600 C 92.800 161.856,92.620 161.136,92.400 161.000 C 92.180 160.864,92.000 160.371,92.000 159.905 C 92.000 159.438,91.832 158.504,91.627 157.828 C 91.256 156.605,90.666 154.356,89.967 151.500 C 89.092 147.924,88.700 146.557,88.361 145.905 C 88.162 145.523,88.000 144.679,88.000 144.029 C 88.000 143.379,87.820 142.736,87.600 142.600 C 87.380 142.464,87.200 141.922,87.200 141.395 C 87.200 140.869,87.039 140.024,86.842 139.519 C 86.645 139.013,86.264 137.790,85.995 136.800 C 82.099 122.430,75.841 118.499,61.800 121.602 C 60.700 121.845,59.170 122.146,58.400 122.270 C 57.630 122.393,56.820 122.633,56.600 122.803 C 56.380 122.972,55.108 123.235,53.774 123.386 L 51.349 123.661 49.411 121.831 C 46.915 119.473,43.600 119.603,43.600 122.059 C 43.600 122.369,43.240 122.883,42.800 123.200 C 42.360 123.517,42.000 124.057,42.000 124.400 C 42.000 124.743,41.640 125.283,41.200 125.600 C 40.760 125.917,40.400 126.497,40.400 126.888 C 40.400 127.280,40.220 127.600,40.000 127.600 C 39.780 127.600,39.600 127.920,39.600 128.312 C 39.600 128.703,39.240 129.283,38.800 129.600 C 38.360 129.917,38.000 130.497,38.000 130.888 C 38.000 131.280,37.820 131.600,37.600 131.600 C 37.380 131.600,37.200 131.920,37.200 132.312 C 37.200 132.703,36.840 133.283,36.400 133.600 C 35.960 133.917,35.600 134.497,35.600 134.888 C 35.600 135.280,35.420 135.600,35.200 135.600 C 34.980 135.600,34.800 135.920,34.800 136.312 C 34.800 136.703,34.440 137.283,34.000 137.600 C 33.560 137.917,33.200 138.497,33.200 138.888 C 33.200 139.280,33.020 139.600,32.800 139.600 C 32.580 139.600,32.400 139.960,32.400 140.400 C 32.400 140.840,32.220 141.200,32.000 141.200 C 31.780 141.200,31.600 141.436,31.600 141.725 C 31.600 142.013,31.240 142.636,30.800 143.108 C 30.360 143.580,30.000 144.244,30.000 144.583 C 30.000 144.922,29.820 145.200,29.600 145.200 C 29.380 145.200,29.200 145.545,29.200 145.967 C 29.200 146.388,29.065 146.793,28.900 146.867 C 28.476 147.055,26.000 151.999,26.000 152.656 C 26.000 152.955,25.820 153.200,25.600 153.200 C 25.380 153.200,25.200 153.560,25.200 154.000 C 25.200 154.440,25.020 154.800,24.800 154.800 C 24.580 154.800,24.400 155.340,24.400 156.000 C 24.400 156.660,24.220 157.200,24.000 157.200 C 23.780 157.200,23.600 157.560,23.600 158.000 C 23.600 158.440,23.420 158.800,23.200 158.800 C 22.980 158.800,22.800 159.340,22.800 160.000 C 22.800 160.660,22.620 161.200,22.400 161.200 C 22.180 161.200,22.000 161.740,22.000 162.400 C 22.000 163.060,21.820 163.600,21.600 163.600 C 21.380 163.600,21.200 164.140,21.200 164.800 C 21.200 165.460,21.020 166.000,20.800 166.000 C 20.580 166.000,20.400 166.540,20.400 167.200 C 20.400 167.860,20.220 168.400,20.000 168.400 C 19.780 168.400,19.600 169.019,19.600 169.776 C 19.600 170.533,19.420 171.264,19.200 171.400 C 18.980 171.536,18.800 172.177,18.800 172.824 C 18.800 173.471,18.620 174.000,18.400 174.000 C 18.180 174.000,18.000 174.720,18.000 175.600 C 18.000 176.480,17.820 177.200,17.600 177.200 C 17.380 177.200,17.200 177.920,17.200 178.800 C 17.200 179.680,17.020 180.400,16.800 180.400 C 16.580 180.400,16.400 181.120,16.400 182.000 C 16.400 182.880,16.220 183.600,16.000 183.600 C 15.780 183.600,15.600 184.500,15.600 185.600 C 15.600 186.700,15.420 187.600,15.200 187.600 C 14.971 187.600,14.800 188.800,14.800 190.400 C 14.800 192.000,14.629 193.200,14.400 193.200 C 14.167 193.200,14.000 194.533,14.000 196.400 C 14.000 198.267,13.833 199.600,13.600 199.600 C 13.052 199.600,13.052 224.262,13.600 224.600 C 13.820 224.736,14.000 226.367,14.000 228.224 C 14.000 230.208,14.165 231.600,14.400 231.600 C 14.622 231.600,14.800 232.667,14.800 234.000 C 14.800 235.333,14.978 236.400,15.200 236.400 C 15.420 236.400,15.600 237.300,15.600 238.400 C 15.600 239.500,15.780 240.400,16.000 240.400 C 16.220 240.400,16.400 241.120,16.400 242.000 C 16.400 242.880,16.580 243.600,16.800 243.600 C 17.020 243.600,17.200 244.320,17.200 245.200 C 17.200 246.080,17.380 246.800,17.600 246.800 C 17.820 246.800,18.000 247.520,18.000 248.400 C 18.000 249.280,18.180 250.000,18.400 250.000 C 18.620 250.000,18.800 250.540,18.800 251.200 C 18.800 251.860,18.980 252.400,19.200 252.400 C 19.420 252.400,19.600 252.940,19.600 253.600 C 19.600 254.260,19.780 254.800,20.000 254.800 C 20.220 254.800,20.400 255.340,20.400 256.000 C 20.400 256.660,20.580 257.200,20.800 257.200 C 21.020 257.200,21.200 257.740,21.200 258.400 C 21.200 259.060,21.380 259.600,21.600 259.600 C 21.820 259.600,22.000 259.960,22.000 260.400 C 22.000 260.840,22.180 261.200,22.400 261.200 C 22.620 261.200,22.800 261.740,22.800 262.400 C 22.800 263.060,22.980 263.600,23.200 263.600 C 23.420 263.600,23.600 263.960,23.600 264.400 C 23.600 264.840,23.780 265.200,24.000 265.200 C 24.220 265.200,24.400 265.560,24.400 266.000 C 24.400 266.440,24.580 266.800,24.800 266.800 C 25.020 266.800,25.200 267.160,25.200 267.600 C 25.200 268.040,25.380 268.400,25.600 268.400 C 25.820 268.400,26.000 268.760,26.000 269.200 C 26.000 269.640,26.180 270.000,26.400 270.000 C 26.620 270.000,26.800 270.360,26.800 270.800 C 26.800 271.240,26.980 271.600,27.200 271.600 C 27.420 271.600,27.600 271.960,27.600 272.400 C 27.600 272.840,27.780 273.200,28.000 273.200 C 28.220 273.200,28.400 273.560,28.400 274.000 C 28.400 274.440,28.580 274.800,28.800 274.800 C 29.020 274.800,29.200 275.120,29.200 275.512 C 29.200 275.903,29.560 276.483,30.000 276.800 C 30.440 277.117,30.800 277.657,30.800 278.000 C 30.800 278.343,31.160 278.883,31.600 279.200 C 32.040 279.517,32.400 280.097,32.400 280.488 C 32.400 280.880,32.550 281.200,32.732 281.200 C 32.915 281.200,33.319 281.695,33.630 282.300 C 33.940 282.905,34.511 283.691,34.897 284.047 C 35.284 284.403,35.600 284.948,35.600 285.259 C 35.600 285.569,35.960 286.083,36.400 286.400 C 36.840 286.717,37.200 287.225,37.200 287.528 C 37.200 287.831,37.740 288.583,38.400 289.200 C 39.060 289.817,39.600 290.530,39.600 290.786 C 39.600 291.042,40.500 292.129,41.600 293.200 C 42.700 294.271,43.600 295.341,43.600 295.577 C 43.600 296.137,56.663 309.200,57.223 309.200 C 57.459 309.200,58.529 310.100,59.600 311.200 C 60.671 312.300,61.758 313.200,62.014 313.200 C 62.270 313.200,62.983 313.740,63.600 314.400 C 64.217 315.060,64.969 315.600,65.272 315.600 C 65.575 315.600,66.083 315.960,66.400 316.400 C 66.717 316.840,67.180 317.200,67.429 317.200 C 67.678 317.200,68.446 317.740,69.137 318.400 C 69.828 319.060,70.598 319.600,70.849 319.600 C 71.101 319.600,71.597 319.916,71.953 320.303 C 72.309 320.689,73.095 321.260,73.700 321.570 C 74.305 321.881,74.800 322.285,74.800 322.468 C 74.800 322.650,75.043 322.800,75.341 322.800 C 75.638 322.800,76.446 323.340,77.137 324.000 C 77.828 324.660,78.625 325.200,78.908 325.200 C 79.191 325.200,79.683 325.560,80.000 326.000 C 80.317 326.440,80.897 326.800,81.288 326.800 C 81.680 326.800,82.000 326.980,82.000 327.200 C 82.000 327.420,82.360 327.600,82.800 327.600 C 83.240 327.600,83.600 327.780,83.600 328.000 C 83.600 328.220,83.960 328.400,84.400 328.400 C 84.840 328.400,85.200 328.580,85.200 328.800 C 85.200 329.020,85.560 329.200,86.000 329.200 C 86.440 329.200,86.800 329.380,86.800 329.600 C 86.800 329.820,87.239 330.000,87.776 330.000 C 88.313 330.000,88.864 330.180,89.000 330.400 C 89.136 330.620,89.597 330.800,90.024 330.800 C 90.451 330.800,90.800 330.980,90.800 331.200 C 90.800 331.420,91.160 331.600,91.600 331.600 C 92.040 331.600,92.400 331.780,92.400 332.000 C 92.400 332.220,92.760 332.400,93.200 332.400 C 93.640 332.400,94.000 332.580,94.000 332.800 C 94.000 333.020,94.540 333.200,95.200 333.200 C 95.860 333.200,96.400 333.380,96.400 333.600 C 96.400 333.820,96.760 334.000,97.200 334.000 C 97.640 334.000,98.000 334.180,98.000 334.400 C 98.000 334.620,98.439 334.800,98.976 334.800 C 99.513 334.800,100.064 334.980,100.200 335.200 C 100.336 335.420,100.797 335.600,101.224 335.600 C 101.651 335.600,102.000 335.780,102.000 336.000 C 102.000 336.220,102.439 336.400,102.976 336.400 C 103.513 336.400,104.064 336.580,104.200 336.800 C 104.336 337.020,104.797 337.200,105.224 337.200 C 105.651 337.200,106.000 337.380,106.000 337.600 C 106.000 337.820,106.540 338.000,107.200 338.000 C 107.860 338.000,108.400 338.180,108.400 338.400 C 108.400 338.620,108.839 338.800,109.376 338.800 C 109.913 338.800,110.464 338.980,110.600 339.200 C 110.736 339.420,111.197 339.600,111.624 339.600 C 112.051 339.600,112.400 339.780,112.400 340.000 C 112.400 340.220,112.940 340.400,113.600 340.400 C 114.260 340.400,114.800 340.580,114.800 340.800 C 114.800 341.020,115.340 341.200,116.000 341.200 C 116.660 341.200,117.200 341.380,117.200 341.600 C 117.200 341.820,117.740 342.000,118.400 342.000 C 119.060 342.000,119.600 342.180,119.600 342.400 C 119.600 342.620,120.219 342.800,120.976 342.800 C 121.733 342.800,122.464 342.980,122.600 343.200 C 122.736 343.420,123.377 343.600,124.024 343.600 C 124.671 343.600,125.200 343.780,125.200 344.000 C 125.200 344.220,125.920 344.400,126.800 344.400 C 127.680 344.400,128.400 344.580,128.400 344.800 C 128.400 345.020,129.120 345.200,130.000 345.200 C 130.880 345.200,131.600 345.380,131.600 345.600 C 131.600 345.820,132.500 346.000,133.600 346.000 C 134.700 346.000,135.600 346.180,135.600 346.400 C 135.600 346.622,136.667 346.800,138.000 346.800 C 139.333 346.800,140.400 346.978,140.400 347.200 C 140.400 347.433,141.733 347.600,143.600 347.600 C 145.467 347.600,146.800 347.767,146.800 348.000 C 146.800 348.242,148.533 348.400,151.200 348.400 C 153.867 348.400,155.600 348.558,155.600 348.800 C 155.600 349.060,161.600 349.200,172.800 349.200 C 184.000 349.200,190.000 349.060,190.000 348.800 C 190.000 348.550,192.400 348.400,196.400 348.400 C 200.400 348.400,202.800 348.250,202.800 348.000 C 202.800 347.767,204.133 347.600,206.000 347.600 C 207.867 347.600,209.200 347.433,209.200 347.200 C 209.200 346.971,210.400 346.800,212.000 346.800 C 213.600 346.800,214.800 346.629,214.800 346.400 C 214.800 346.180,215.700 346.000,216.800 346.000 C 217.900 346.000,218.800 345.820,218.800 345.600 C 218.800 345.380,219.700 345.200,220.800 345.200 C 221.900 345.200,222.800 345.020,222.800 344.800 C 222.800 344.580,223.520 344.400,224.400 344.400 C 225.280 344.400,226.000 344.220,226.000 344.000 C 226.000 343.780,226.720 343.600,227.600 343.600 C 228.480 343.600,229.200 343.420,229.200 343.200 C 229.200 342.980,229.859 342.800,230.664 342.800 C 232.328 342.800,234.400 340.919,234.400 339.408 C 234.400 338.942,234.599 338.361,234.843 338.117 C 235.326 337.634,235.153 335.318,234.417 332.400 C 234.168 331.410,233.783 329.880,233.563 329.000 C 233.343 328.120,232.992 326.725,232.782 325.900 C 232.296 323.990,231.714 321.664,231.182 319.500 C 230.336 316.063,230.045 314.933,229.200 311.800 C 228.003 307.364,227.577 305.611,227.327 304.096 C 227.208 303.379,226.951 302.694,226.756 302.573 C 226.560 302.452,226.400 301.744,226.400 301.000 C 226.400 300.256,226.220 299.536,226.000 299.400 C 225.780 299.264,225.600 298.544,225.600 297.800 C 225.600 297.056,225.420 296.336,225.200 296.200 C 224.980 296.064,224.800 295.344,224.800 294.600 C 224.800 293.856,224.620 293.136,224.400 293.000 C 224.180 292.864,224.000 292.144,224.000 291.400 C 224.000 290.656,223.820 289.936,223.600 289.800 C 223.380 289.664,223.200 288.944,223.200 288.200 C 223.200 287.456,223.040 286.748,222.844 286.627 C 222.649 286.506,222.392 285.821,222.273 285.104 C 222.155 284.387,221.873 283.080,221.647 282.200 C 221.421 281.320,221.057 279.880,220.837 279.000 C 220.617 278.120,220.257 276.680,220.037 275.800 C 219.817 274.920,219.460 273.480,219.245 272.600 C 219.029 271.720,218.649 270.280,218.400 269.400 C 217.677 266.847,217.159 264.700,216.927 263.296 C 216.808 262.579,216.551 261.894,216.356 261.773 C 216.160 261.652,216.000 260.944,216.000 260.200 C 216.000 259.456,215.820 258.736,215.600 258.600 C 215.380 258.464,215.200 257.744,215.200 257.000 C 215.200 256.256,215.020 255.536,214.800 255.400 C 214.580 255.264,214.400 254.544,214.400 253.800 C 214.400 253.056,214.220 252.336,214.000 252.200 C 213.780 252.064,213.600 251.344,213.600 250.600 C 213.600 249.856,213.440 249.148,213.244 249.027 C 213.049 248.906,212.792 248.221,212.673 247.504 C 212.555 246.787,212.265 245.435,212.029 244.500 C 211.793 243.565,211.412 242.035,211.182 241.100 C 210.952 240.165,210.600 238.770,210.400 238.000 C 210.200 237.230,209.848 235.835,209.618 234.900 C 209.388 233.965,209.012 232.435,208.782 231.500 C 208.552 230.565,208.200 229.170,208.000 228.400 C 207.800 227.630,207.524 226.460,207.388 225.800 C 207.251 225.140,206.987 224.240,206.800 223.800 C 206.442 222.956,206.085 221.459,205.727 219.296 C 205.609 218.579,205.351 217.894,205.156 217.773 C 204.960 217.652,204.800 216.944,204.800 216.200 C 204.800 215.456,204.620 214.736,204.400 214.600 C 204.180 214.464,204.000 213.744,204.000 213.000 C 204.000 212.256,203.820 211.536,203.600 211.400 C 203.380 211.264,203.200 210.544,203.200 209.800 C 203.200 209.056,203.020 208.336,202.800 208.200 C 202.580 208.064,202.400 207.344,202.400 206.600 C 202.400 205.856,202.240 205.148,202.044 205.027 C 201.849 204.906,201.592 204.221,201.473 203.504 C 201.355 202.787,201.057 201.390,200.811 200.400 C 200.095 197.518,199.591 195.508,199.182 193.900 C 198.972 193.075,198.628 191.725,198.418 190.900 C 198.208 190.075,197.860 188.680,197.645 187.800 C 197.429 186.920,197.049 185.480,196.800 184.600 C 196.077 182.047,195.559 179.900,195.327 178.496 C 195.208 177.779,194.951 177.094,194.756 176.973 C 194.560 176.852,194.400 176.144,194.400 175.400 C 194.400 174.656,194.220 173.936,194.000 173.800 C 193.780 173.664,193.600 172.944,193.600 172.200 C 193.600 171.456,193.420 170.736,193.200 170.600 C 192.980 170.464,192.800 169.744,192.800 169.000 C 192.800 168.256,192.640 167.548,192.444 167.427 C 192.249 167.306,191.992 166.621,191.873 165.904 C 191.673 164.693,191.349 163.301,190.382 159.500 C 190.172 158.675,189.820 157.280,189.600 156.400 C 189.380 155.520,189.020 154.080,188.800 153.200 C 188.580 152.320,188.205 150.835,187.967 149.900 C 187.730 148.965,187.440 147.524,187.325 146.697 C 187.210 145.871,186.955 145.095,186.758 144.974 C 185.124 143.964,186.972 140.800,189.195 140.800 C 189.612 140.800,190.064 140.620,190.200 140.400 C 190.336 140.180,190.829 140.000,191.295 140.000 C 192.196 140.000,194.539 139.335,195.695 138.751 C 196.077 138.558,196.921 138.400,197.571 138.400 C 198.221 138.400,198.864 138.220,199.000 138.000 C 199.136 137.780,199.856 137.600,200.600 137.600 C 201.344 137.600,202.064 137.420,202.200 137.200 C 202.336 136.980,203.056 136.800,203.800 136.800 C 204.544 136.800,205.264 136.620,205.400 136.400 C 205.536 136.180,206.256 136.000,207.000 136.000 C 207.744 136.000,208.464 135.820,208.600 135.600 C 208.736 135.380,209.456 135.200,210.200 135.200 C 210.944 135.200,211.664 135.020,211.800 134.800 C 211.936 134.580,212.656 134.400,213.400 134.400 C 214.144 134.400,214.864 134.220,215.000 134.000 C 215.136 133.780,216.097 133.600,217.136 133.600 L 219.025 133.600 219.539 135.500 C 219.822 136.545,220.221 137.713,220.427 138.095 C 220.632 138.477,220.800 139.094,220.800 139.466 C 220.800 139.839,220.968 140.696,221.173 141.372 C 221.378 142.047,221.759 143.410,222.018 144.400 C 222.699 146.992,223.247 148.000,223.974 148.000 C 224.597 148.000,227.200 144.469,227.200 143.624 C 227.200 143.391,227.350 143.200,227.532 143.200 C 227.715 143.200,228.120 142.705,228.432 142.100 C 228.745 141.495,229.228 140.759,229.506 140.465 C 229.784 140.171,230.499 139.271,231.094 138.465 C 232.661 136.345,239.144 129.944,240.897 128.788 C 241.721 128.244,242.396 127.665,242.397 127.500 C 242.399 127.335,242.636 127.200,242.925 127.200 C 243.213 127.200,243.798 126.883,244.225 126.496 C 244.651 126.109,245.855 125.344,246.900 124.797 C 247.945 124.249,248.800 123.666,248.800 123.501 C 248.800 123.335,249.042 123.200,249.339 123.200 C 249.635 123.200,250.400 122.950,251.039 122.644 C 253.593 121.420,255.123 120.816,257.800 119.975 C 259.340 119.491,260.960 118.950,261.400 118.772 C 264.931 117.348,277.304 116.646,283.400 117.525 C 285.160 117.778,287.366 118.098,288.303 118.235 C 289.239 118.372,290.105 118.645,290.226 118.842 C 290.348 119.039,290.966 119.200,291.600 119.200 C 292.234 119.200,292.864 119.380,293.000 119.600 C 293.136 119.820,293.599 120.000,294.029 120.000 C 294.459 120.000,295.123 120.159,295.505 120.353 C 295.887 120.548,296.650 120.886,297.200 121.104 C 300.136 122.272,304.137 124.400,306.753 126.185 C 308.378 127.293,309.998 128.380,310.353 128.600 C 311.359 129.222,320.400 138.280,320.400 138.665 C 320.400 138.854,320.809 139.456,321.308 140.004 C 321.807 140.552,322.793 141.900,323.497 143.000 C 324.202 144.100,324.919 145.189,325.089 145.420 C 325.667 146.203,326.413 147.607,328.428 151.709 C 329.532 153.959,330.608 156.113,330.818 156.495 C 331.028 156.877,331.200 157.380,331.200 157.614 C 331.200 157.848,331.560 158.784,332.000 159.694 C 332.440 160.605,332.800 161.666,332.800 162.052 C 332.800 162.437,332.960 162.852,333.156 162.973 C 333.351 163.094,333.608 163.779,333.727 164.496 C 333.845 165.213,334.146 166.610,334.396 167.600 C 334.645 168.590,334.940 169.940,335.052 170.600 C 335.163 171.260,335.413 172.160,335.606 172.600 C 336.620 174.905,337.370 188.861,336.849 195.719 C 336.175 204.578,334.305 213.457,332.387 216.895 C 332.174 217.277,332.000 217.830,332.000 218.124 C 332.000 218.794,327.612 227.497,326.456 229.122 C 325.985 229.783,325.600 230.440,325.600 230.583 C 325.600 230.726,325.061 231.419,324.402 232.122 C 323.743 232.825,323.203 233.562,323.202 233.760 C 323.189 236.360,303.387 251.200,299.932 251.200 C 299.744 251.200,298.828 251.543,297.896 251.963 C 296.249 252.704,295.087 253.031,292.600 253.451 C 291.940 253.563,291.040 253.808,290.600 253.996 C 287.843 255.174,273.755 255.174,271.000 253.996 C 270.560 253.808,269.660 253.563,269.000 253.451 C 266.729 253.067,265.398 252.739,264.400 252.316 C 263.850 252.083,263.040 251.755,262.600 251.586 C 262.160 251.418,260.947 250.902,259.904 250.440 C 258.862 249.978,257.824 249.600,257.599 249.600 C 257.146 249.600,255.514 248.746,255.200 248.344 C 255.090 248.203,253.684 247.411,252.076 246.582 C 248.728 244.857,247.529 245.109,248.384 247.357 C 248.613 247.959,248.800 248.970,248.800 249.602 C 248.800 250.235,248.980 250.864,249.200 251.000 C 249.420 251.136,249.600 251.856,249.600 252.600 C 249.600 253.344,249.780 254.064,250.000 254.200 C 250.220 254.336,250.400 255.056,250.400 255.800 C 250.400 256.544,250.561 257.252,250.758 257.374 C 250.955 257.495,251.218 258.271,251.342 259.097 C 251.872 262.607,252.108 263.620,252.444 263.827 C 252.640 263.948,252.800 264.656,252.800 265.400 C 252.800 266.144,252.980 266.864,253.200 267.000 C 253.420 267.136,253.600 267.856,253.600 268.600 C 253.600 269.344,253.780 270.064,254.000 270.200 C 254.220 270.336,254.400 271.056,254.400 271.800 C 254.400 272.544,254.580 273.264,254.800 273.400 C 255.020 273.536,255.200 274.256,255.200 275.000 C 255.200 275.744,255.380 276.464,255.600 276.600 C 255.820 276.736,256.000 277.456,256.000 278.200 C 256.000 278.944,256.180 279.664,256.400 279.800 C 256.620 279.936,256.800 280.656,256.800 281.400 C 256.800 282.144,256.980 282.864,257.200 283.000 C 257.420 283.136,257.600 283.629,257.600 284.095 C 257.600 284.562,257.768 285.496,257.973 286.172 C 258.318 287.310,258.599 288.373,259.672 292.600 C 259.895 293.480,260.240 294.513,260.439 294.895 C 260.638 295.277,260.800 296.121,260.800 296.771 C 260.800 297.421,260.980 298.064,261.200 298.200 C 261.420 298.336,261.600 298.829,261.600 299.295 C 261.600 299.762,261.768 300.696,261.973 301.372 C 262.178 302.047,262.538 303.365,262.773 304.300 C 263.821 308.470,264.100 309.443,264.439 310.095 C 264.638 310.477,264.800 311.321,264.800 311.971 C 264.800 312.621,264.980 313.264,265.200 313.400 C 265.420 313.536,265.600 314.029,265.600 314.495 C 265.600 315.396,266.265 317.739,266.849 318.895 C 267.042 319.277,267.200 320.121,267.200 320.771 C 267.200 321.421,267.380 322.064,267.600 322.200 C 267.820 322.336,268.000 322.866,268.000 323.378 C 268.000 324.581,271.071 327.600,272.296 327.600 C 272.793 327.600,273.200 327.420,273.200 327.200 C 273.200 326.980,273.740 326.800,274.400 326.800 C 275.060 326.800,275.600 326.620,275.600 326.400 C 275.600 326.180,275.960 326.000,276.400 326.000 C 276.840 326.000,277.200 325.820,277.200 325.600 C 277.200 325.380,277.478 325.200,277.817 325.200 C 278.156 325.200,278.820 324.840,279.292 324.400 C 279.764 323.960,280.387 323.600,280.675 323.600 C 280.964 323.600,281.200 323.420,281.200 323.200 C 281.200 322.980,281.560 322.800,282.000 322.800 C 282.440 322.800,282.800 322.620,282.800 322.400 C 282.800 322.180,283.160 322.000,283.600 322.000 C 284.040 322.000,284.400 321.820,284.400 321.600 C 284.400 321.380,284.720 321.200,285.112 321.200 C 285.503 321.200,286.083 320.840,286.400 320.400 C 286.717 319.960,287.297 319.600,287.688 319.600 C 288.080 319.600,288.400 319.420,288.400 319.200 C 288.400 318.980,288.678 318.800,289.017 318.800 C 289.356 318.800,290.020 318.440,290.492 318.000 C 290.964 317.560,291.587 317.200,291.875 317.200 C 292.164 317.200,292.400 317.020,292.400 316.800 C 292.400 316.580,292.760 316.400,293.200 316.400 C 293.640 316.400,294.000 316.220,294.000 316.000 C 294.000 315.780,294.320 315.600,294.712 315.600 C 295.103 315.600,295.683 315.240,296.000 314.800 C 296.317 314.360,296.814 314.000,297.105 314.000 C 297.396 314.000,298.020 313.640,298.492 313.200 C 298.964 312.760,299.587 312.400,299.875 312.400 C 300.164 312.400,300.400 312.220,300.400 312.000 C 300.400 311.780,300.720 311.600,301.112 311.600 C 301.503 311.600,302.083 311.240,302.400 310.800 C 302.717 310.360,303.257 310.000,303.600 310.000 C 303.943 310.000,304.483 309.640,304.800 309.200 C 305.117 308.760,305.657 308.400,306.000 308.400 C 306.343 308.400,306.883 308.040,307.200 307.600 C 307.517 307.160,308.025 306.800,308.328 306.800 C 308.631 306.800,309.383 306.260,310.000 305.600 C 310.617 304.940,311.319 304.400,311.560 304.400 C 311.802 304.400,312.741 303.680,313.648 302.800 C 314.555 301.920,315.469 301.200,315.680 301.200 C 315.890 301.200,316.754 300.480,317.600 299.600 C 318.446 298.720,319.343 298.000,319.595 298.000 C 319.846 298.000,320.929 297.100,322.000 296.000 C 323.071 294.900,324.151 294.000,324.400 294.000 C 324.649 294.000,325.729 293.100,326.800 292.000 C 327.871 290.900,328.942 290.000,329.179 290.000 C 329.706 290.000,338.000 281.759,338.000 281.235 C 338.000 281.030,339.260 279.586,340.800 278.028 C 342.340 276.469,343.600 275.009,343.600 274.782 C 343.600 274.555,345.220 272.763,347.200 270.800 C 349.180 268.837,350.800 267.066,350.800 266.864 C 350.800 266.662,351.520 265.755,352.400 264.848 C 353.280 263.941,354.000 262.969,354.000 262.688 C 354.000 262.407,354.360 261.917,354.800 261.600 C 355.240 261.283,355.600 260.743,355.600 260.400 C 355.600 260.057,355.960 259.517,356.400 259.200 C 356.840 258.883,357.200 258.427,357.200 258.187 C 357.200 257.947,357.515 257.402,357.900 256.975 C 358.285 256.549,358.855 255.705,359.168 255.100 C 359.480 254.495,359.885 254.000,360.068 254.000 C 360.250 254.000,360.400 253.640,360.400 253.200 C 360.400 252.760,360.580 252.400,360.800 252.400 C 361.020 252.400,361.200 252.080,361.200 251.688 C 361.200 251.297,361.560 250.717,362.000 250.400 C 362.440 250.083,362.800 249.543,362.800 249.200 C 362.800 248.857,363.160 248.317,363.600 248.000 C 364.040 247.683,364.400 247.103,364.400 246.712 C 364.400 246.320,364.580 246.000,364.800 246.000 C 365.020 246.000,365.200 245.640,365.200 245.200 C 365.200 244.760,365.380 244.400,365.600 244.400 C 365.820 244.400,366.000 244.164,366.000 243.875 C 366.000 243.587,366.360 242.964,366.800 242.492 C 367.240 242.020,367.600 241.356,367.600 241.017 C 367.600 240.678,367.780 240.400,368.000 240.400 C 368.220 240.400,368.400 240.040,368.400 239.600 C 368.400 239.160,368.580 238.800,368.800 238.800 C 369.020 238.800,369.200 238.480,369.200 238.088 C 369.200 237.697,369.560 237.117,370.000 236.800 C 370.440 236.483,370.800 235.903,370.800 235.512 C 370.800 235.120,370.980 234.800,371.200 234.800 C 371.420 234.800,371.600 234.440,371.600 234.000 C 371.600 233.560,371.780 233.200,372.000 233.200 C 372.220 233.200,372.400 232.840,372.400 232.400 C 372.400 231.960,372.580 231.600,372.800 231.600 C 373.020 231.600,373.200 231.240,373.200 230.800 C 373.200 230.360,373.380 230.000,373.600 230.000 C 373.820 230.000,374.000 229.640,374.000 229.200 C 374.000 228.760,374.180 228.400,374.400 228.400 C 374.620 228.400,374.800 228.040,374.800 227.600 C 374.800 227.160,374.980 226.800,375.200 226.800 C 375.420 226.800,375.600 226.260,375.600 225.600 C 375.600 224.940,375.780 224.400,376.000 224.400 C 376.220 224.400,376.400 223.860,376.400 223.200 C 376.400 222.540,376.580 222.000,376.800 222.000 C 377.020 222.000,377.200 221.640,377.200 221.200 C 377.200 220.760,377.380 220.400,377.600 220.400 C 377.820 220.400,378.000 219.860,378.000 219.200 C 378.000 218.540,378.180 218.000,378.400 218.000 C 378.620 218.000,378.800 217.460,378.800 216.800 C 378.800 216.140,378.980 215.600,379.200 215.600 C 379.420 215.600,379.600 214.880,379.600 214.000 C 379.600 213.120,379.780 212.400,380.000 212.400 C 380.220 212.400,380.400 211.680,380.400 210.800 C 380.400 209.920,380.580 209.200,380.800 209.200 C 381.020 209.200,381.200 208.660,381.200 208.000 C 381.200 207.340,381.380 206.800,381.600 206.800 C 381.820 206.800,382.000 206.350,382.000 205.800 C 382.000 205.250,381.820 204.800,381.600 204.800 C 381.380 204.800,381.200 204.530,381.200 204.200 C 381.200 203.867,381.556 203.600,382.000 203.600 C 382.587 203.600,382.800 203.333,382.800 202.600 C 382.800 202.050,382.580 201.600,382.311 201.600 C 382.042 201.600,382.222 201.320,382.711 200.977 C 383.735 200.260,383.980 198.000,383.033 198.000 C 382.722 198.000,382.367 198.225,382.246 198.500 C 382.125 198.775,382.065 198.460,382.113 197.800 C 382.184 196.815,382.397 196.577,383.300 196.473 C 384.775 196.304,384.841 194.729,383.400 194.073 C 382.787 193.794,382.400 193.286,382.400 192.762 C 382.400 192.065,382.586 191.942,383.400 192.098 C 384.534 192.315,384.879 191.069,383.800 190.655 C 382.416 190.124,383.514 186.609,385.066 186.603 C 385.568 186.601,385.840 186.253,385.927 185.500 C 386.077 184.189,385.509 184.091,384.367 185.233 C 383.079 186.521,383.044 186.262,382.975 174.887 C 382.882 159.716,382.007 151.728,379.197 140.400 C 378.952 139.410,378.651 138.103,378.529 137.495 C 378.407 136.887,378.149 136.292,377.954 136.171 C 377.759 136.051,377.600 135.524,377.600 135.000 C 377.600 134.476,377.420 133.936,377.200 133.800 C 376.980 133.664,376.800 133.111,376.800 132.571 C 376.800 132.031,376.620 131.232,376.400 130.795 C 376.180 130.358,375.820 129.642,375.600 129.205 C 375.380 128.768,375.200 128.136,375.200 127.800 C 375.200 127.464,375.041 126.877,374.847 126.495 C 374.652 126.113,374.315 125.350,374.097 124.800 C 372.088 119.725,366.705 109.075,364.791 106.387 C 364.356 105.776,364.000 105.113,364.000 104.914 C 364.000 104.714,363.685 104.202,363.300 103.775 C 362.915 103.349,362.345 102.505,362.032 101.900 C 361.720 101.295,361.315 100.800,361.132 100.800 C 360.950 100.800,360.800 100.622,360.800 100.403 C 360.800 100.185,360.154 99.150,359.365 98.103 C 358.576 97.057,357.541 95.673,357.065 95.029 C 355.738 93.232,354.283 91.464,353.586 90.800 C 353.239 90.470,352.683 89.802,352.351 89.315 C 350.428 86.501,336.989 73.636,334.534 72.260 C 334.200 72.073,333.449 71.495,332.864 70.975 C 331.156 69.459,328.025 67.200,327.630 67.200 C 327.430 67.200,327.207 67.051,327.133 66.870 C 326.946 66.406,320.927 62.400,320.418 62.400 C 320.188 62.400,320.000 62.265,320.000 62.099 C 320.000 61.934,319.145 61.350,318.100 60.802 C 317.055 60.254,315.120 59.163,313.800 58.378 C 311.716 57.139,302.496 52.549,300.200 51.608 C 299.760 51.427,298.547 50.902,297.504 50.440 C 296.462 49.978,295.461 49.600,295.279 49.600 C 295.098 49.600,294.205 49.240,293.294 48.800 C 292.384 48.360,291.371 48.000,291.043 48.000 C 290.715 48.000,290.336 47.820,290.200 47.600 C 290.064 47.380,289.524 47.200,289.000 47.200 C 288.476 47.200,287.936 47.020,287.800 46.800 C 287.664 46.580,287.124 46.400,286.600 46.400 C 286.076 46.400,285.536 46.220,285.400 46.000 C 285.264 45.780,284.724 45.600,284.200 45.600 C 283.676 45.600,283.136 45.420,283.000 45.200 C 282.864 44.980,282.401 44.800,281.971 44.800 C 281.541 44.800,280.877 44.642,280.495 44.449 C 279.339 43.865,276.996 43.200,276.095 43.200 C 275.629 43.200,275.136 43.020,275.000 42.800 C 274.864 42.580,274.144 42.400,273.400 42.400 C 272.656 42.400,271.936 42.220,271.800 42.000 C 271.664 41.780,270.944 41.600,270.200 41.600 C 269.456 41.600,268.748 41.439,268.626 41.242 C 268.505 41.045,267.729 40.785,266.903 40.663 C 266.076 40.541,264.410 40.244,263.200 40.005 C 259.281 39.228,253.519 38.283,248.400 37.577 C 244.667 37.063,228.880 36.037,224.380 36.017 C 222.279 36.008,220.388 35.828,220.179 35.619 C 219.969 35.409,218.358 35.184,216.599 35.119 C 213.628 35.008,213.391 34.936,213.272 34.100 C 213.108 32.943,211.612 32.867,211.316 34.000 C 211.201 34.440,210.948 34.800,210.753 34.800 C 210.559 34.800,210.400 34.440,210.400 34.000 C 210.400 33.352,210.133 33.200,209.000 33.200 C 208.230 33.200,207.600 33.380,207.600 33.600 M214.500 33.700 C 214.833 34.702,235.600 34.580,235.600 33.575 C 235.600 33.351,231.326 33.200,224.967 33.200 C 216.638 33.200,214.369 33.308,214.500 33.700 M292.000 44.600 C 292.000 45.226,292.226 45.600,292.605 45.600 C 292.938 45.600,293.560 45.818,293.987 46.085 C 294.864 46.633,294.989 46.562,295.377 45.300 C 295.602 44.568,295.500 44.400,294.827 44.400 C 294.372 44.400,294.000 44.220,294.000 44.000 C 294.000 43.780,293.550 43.600,293.000 43.600 C 292.200 43.600,292.000 43.800,292.000 44.600 M297.200 46.478 C 297.200 46.969,299.478 48.261,299.785 47.944 C 300.602 47.099,300.074 46.190,298.700 46.076 C 297.664 45.990,297.200 46.114,297.200 46.478 M301.867 47.867 C 301.267 48.466,301.674 49.194,302.900 49.715 C 305.361 50.762,306.718 51.098,307.223 50.786 C 307.953 50.335,306.733 49.200,305.517 49.200 C 305.000 49.200,304.317 48.840,304.000 48.400 C 303.431 47.610,302.385 47.349,301.867 47.867 M343.443 74.633 C 343.039 75.684,343.162 76.000,343.976 76.000 C 345.043 76.000,345.373 75.316,344.654 74.597 C 343.902 73.845,343.743 73.849,343.443 74.633 M348.272 79.357 C 347.961 80.166,349.881 81.879,350.454 81.306 C 350.779 80.981,350.622 80.586,349.867 79.831 C 348.676 78.639,348.560 78.605,348.272 79.357 M354.225 85.500 C 354.708 87.712,355.301 88.800,356.025 88.800 C 356.882 88.800,357.554 87.918,356.871 87.690 C 356.612 87.604,356.400 87.280,356.400 86.970 C 356.400 86.334,354.835 84.400,354.320 84.400 C 354.136 84.400,354.093 84.895,354.225 85.500 M369.067 106.267 C 368.138 107.195,369.136 108.400,370.833 108.400 C 371.837 108.400,371.801 108.165,370.618 106.982 C 369.548 105.912,369.462 105.872,369.067 106.267 M43.600 114.800 C 43.600 115.680,43.780 116.400,44.000 116.400 C 44.220 116.400,44.400 117.120,44.400 118.000 C 44.400 119.637,44.592 119.846,45.541 119.245 C 45.966 118.976,45.983 118.716,45.623 118.043 C 45.370 117.570,45.265 117.019,45.389 116.818 C 45.677 116.351,44.430 113.200,43.957 113.200 C 43.760 113.200,43.600 113.920,43.600 114.800 M373.067 113.867 C 372.459 114.474,372.859 115.200,373.800 115.200 C 374.917 115.200,375.179 114.231,374.167 113.843 C 373.384 113.542,373.391 113.542,373.067 113.867 M376.887 122.009 C 376.245 123.037,376.888 124.400,378.014 124.400 C 378.846 124.400,379.072 123.815,378.400 123.400 C 378.180 123.264,378.000 122.713,378.000 122.176 C 378.000 120.989,377.565 120.923,376.887 122.009 M258.400 141.220 C 257.850 141.404,256.380 141.847,255.132 142.204 C 250.933 143.408,247.625 145.370,243.675 149.000 C 240.688 151.745,236.000 158.953,236.000 160.801 C 236.000 161.026,235.838 161.523,235.639 161.905 C 235.261 162.632,234.724 164.561,234.053 167.600 C 233.304 170.991,232.677 178.706,232.975 180.861 C 233.138 182.037,233.430 184.530,233.626 186.400 C 233.821 188.270,234.174 190.790,234.411 192.000 C 234.647 193.210,234.941 194.876,235.063 195.703 C 235.185 196.529,235.445 197.305,235.642 197.426 C 235.839 197.548,236.000 198.029,236.000 198.495 C 236.000 199.396,236.665 201.739,237.249 202.895 C 237.442 203.277,237.600 203.941,237.600 204.371 C 237.600 204.801,237.780 205.264,238.000 205.400 C 238.220 205.536,238.400 205.991,238.400 206.411 C 238.400 206.832,238.760 207.817,239.200 208.600 C 239.640 209.383,240.000 210.223,240.000 210.466 C 240.000 211.169,243.312 217.600,243.673 217.600 C 243.853 217.600,244.000 217.836,244.000 218.125 C 244.000 218.413,244.360 219.036,244.800 219.508 C 245.240 219.980,245.603 220.509,245.607 220.683 C 245.621 221.267,247.774 223.774,251.033 227.000 C 255.059 230.985,255.085 231.005,259.045 233.130 C 261.080 234.222,263.693 235.200,264.572 235.200 C 265.111 235.200,265.664 235.380,265.800 235.600 C 266.417 236.599,278.736 235.798,279.847 234.686 C 280.005 234.529,280.458 234.400,280.855 234.400 C 281.251 234.400,282.217 234.040,283.000 233.600 C 283.783 233.160,284.689 232.800,285.012 232.800 C 285.335 232.800,285.600 232.620,285.600 232.400 C 285.600 232.180,285.793 232.000,286.028 232.000 C 287.149 232.000,293.599 226.449,293.600 225.483 C 293.600 225.309,293.960 224.780,294.400 224.308 C 294.840 223.836,295.200 223.213,295.200 222.925 C 295.200 222.636,295.358 222.400,295.551 222.400 C 295.745 222.400,296.121 221.815,296.389 221.100 C 296.656 220.385,297.218 219.108,297.637 218.262 C 298.057 217.416,298.400 216.392,298.400 215.986 C 298.400 215.580,298.560 215.148,298.756 215.027 C 298.951 214.906,299.226 214.131,299.367 213.304 C 299.507 212.477,299.823 210.810,300.069 209.600 C 300.657 206.707,300.661 191.372,300.074 187.800 C 299.821 186.260,299.502 184.190,299.366 183.200 C 299.230 182.210,298.956 181.229,298.759 181.020 C 298.562 180.811,298.400 180.057,298.400 179.344 C 298.400 178.631,298.220 177.936,298.000 177.800 C 297.780 177.664,297.600 177.180,297.600 176.724 C 297.600 175.732,295.272 168.762,294.759 168.220 C 294.562 168.011,294.400 167.577,294.400 167.255 C 294.400 166.447,290.338 158.400,289.930 158.400 C 289.748 158.400,289.600 158.207,289.600 157.972 C 289.600 156.702,281.765 147.200,280.718 147.200 C 280.523 147.200,279.906 146.743,279.348 146.184 C 278.789 145.625,277.627 144.863,276.766 144.490 C 275.905 144.117,275.200 143.674,275.200 143.506 C 275.200 143.338,274.935 143.200,274.612 143.200 C 274.289 143.200,273.383 142.840,272.600 142.400 C 271.817 141.960,270.652 141.600,270.011 141.600 C 269.371 141.600,268.736 141.420,268.600 141.200 C 268.303 140.719,259.847 140.735,258.400 141.220 M385.019 162.770 C 384.878 162.997,384.958 163.547,385.196 163.992 C 385.433 164.436,385.510 164.800,385.365 164.800 C 385.220 164.800,385.326 165.070,385.600 165.400 C 386.462 166.438,386.850 166.059,386.723 164.303 C 386.602 162.631,385.639 161.765,385.019 162.770 M385.964 169.100 C 385.945 169.485,385.950 170.610,385.976 171.600 C 386.001 172.590,385.744 173.922,385.404 174.560 C 384.705 175.870,384.706 175.873,385.800 176.062 C 386.550 176.191,386.606 175.954,386.696 172.300 C 386.754 169.930,386.636 168.400,386.396 168.400 C 386.178 168.400,385.984 168.715,385.964 169.100 M384.500 178.900 C 384.752 179.657,386.000 179.764,386.000 179.029 C 386.000 178.658,385.658 178.400,385.167 178.400 C 384.678 178.400,384.402 178.607,384.500 178.900 M235.600 354.400 C 235.600 355.060,235.780 355.600,236.000 355.600 C 236.220 355.600,236.400 355.060,236.400 354.400 C 236.400 353.740,236.220 353.200,236.000 353.200 C 235.780 353.200,235.600 353.740,235.600 354.400 " stroke="none" fill="#7b7b7b" fill-rule="evenodd"></path></g></svg>