<?xml version="1.0" encoding="UTF-8" standalone="no"?>
<svg
   xmlns:dc="http://purl.org/dc/elements/1.1/"
   xmlns:cc="http://creativecommons.org/ns#"
   xmlns:rdf="http://www.w3.org/1999/02/22-rdf-syntax-ns#"
   xmlns:svg="http://www.w3.org/2000/svg"
   xmlns="http://www.w3.org/2000/svg"
   version="1.1"
   id="Layer_1"
   x="0px"
   y="0px"
   viewBox="0 0 90 90"
   style="enable-background:new 0 0 90 90;"
   xml:space="preserve"><metadata
   id="metadata99"><rdf:RDF><cc:Work
       rdf:about=""><dc:format>image/svg+xml</dc:format><dc:type
         rdf:resource="http://purl.org/dc/dcmitype/StillImage" /><dc:title></dc:title></cc:Work></rdf:RDF></metadata><defs
   id="defs97" />
    <style
   type="text/css"
   id="style2">
        .st0 { fill:url(#SVGID_1_); }
        .st1 { fill:url(#SVGID_2_); }
        .st2 { fill:url(#SVGID_3_); }
        .st3 { fill:url(#SVGID_4_); }
        .st4 { fill:url(#SVGID_5_); }
        .st5 { fill:url(#SVGID_6_); }
        .st6 { fill:url(#SVGID_7_); }
        .st7 { fill:url(#SVGID_8_); }
    </style>
    <rect
   y="1.1440678"
   x="0"
   height="90"
   width="90"
   id="rect936"
   style="fill:#7f7f7f;fill-opacity:1;stroke:none;stroke-opacity:1" /><g
   fill-rule="nonzero"
   fill="#0086CA"
   id="g92"
   style="fill:#ffffff">
        <linearGradient
   id="SVGID_1_"
   gradientUnits="userSpaceOnUse"
   x1="-349.8585"
   y1="353.3577"
   x2="-349.2344"
   y2="353.3577"
   gradientTransform="matrix(90.9945 -90.9945 -90.9945 -90.9945 64008.5391 390.498)">
            <stop
   offset="0"
   style="stop-color:#0C6CB3"
   id="stop4" />
            <stop
   offset="0.2911"
   style="stop-color:#1E84C4"
   id="stop6" />
            <stop
   offset="0.8873"
   style="stop-color:#4CC0EF"
   id="stop8" />
            <stop
   offset="1"
   style="stop-color:#4CC0EF"
   id="stop10" />
        </linearGradient>
        <path
   class="st0"
   d="M59.7,40.5c-0.6,0.4-1.5,0.7-2.6,0.7c-1.7,0-3.3-0.2-4.9-0.7c-0.4-0.1-0.7-0.2-0.9-0.2c-0.3,0-0.4,0.2-0.4,0.6         v1c0,0.3,0.1,0.5,0.2,0.7c0.1,0.1,0.3,0.3,0.6,0.4c1.6,0.7,3.4,1,5.4,1c2.1,0,3.7-0.5,5-1.5c1.3-1,1.9-2.3,1.9-4         c0-1.2-0.3-2.1-0.9-2.9c-0.6-0.7-1.6-1.4-3-1.9l-2.8-1.1c-1.1-0.4-1.9-0.8-2.2-1.2c-0.4-0.4-0.6-0.8-0.6-1.5c0-1.5,1.1-2.3,3.4-2.3         c1.3,0,2.6,0.2,3.8,0.6c0.4,0.1,0.7,0.2,0.8,0.2c0.3,0,0.5-0.2,0.5-0.6v-1c0-0.3-0.1-0.5-0.2-0.7c-0.1-0.2-0.3-0.3-0.6-0.4         c-1.5-0.5-3-0.8-4.5-0.8c-1.9,0-3.5,0.5-4.7,1.4c-1.2,0.9-1.8,2.2-1.8,3.7c0,2.3,1.3,4,3.9,5l3,1.1c1,0.4,1.6,0.7,2,1.1         c0.4,0.4,0.5,0.8,0.5,1.4C60.6,39.4,60.3,40.1,59.7,40.5z"
   id="path13"
   style="fill:#ffffff" />
        <linearGradient
   id="SVGID_2_"
   gradientUnits="userSpaceOnUse"
   x1="-349.8585"
   y1="353.4541"
   x2="-349.2344"
   y2="353.4541"
   gradientTransform="matrix(90.9945 -90.9945 -90.9945 -90.9945 64008.5391 390.498)">
            <stop
   offset="0"
   style="stop-color:#0C6CB3"
   id="stop15" />
            <stop
   offset="0.2911"
   style="stop-color:#1E84C4"
   id="stop17" />
            <stop
   offset="0.8873"
   style="stop-color:#4CC0EF"
   id="stop19" />
            <stop
   offset="1"
   style="stop-color:#4CC0EF"
   id="stop21" />
        </linearGradient>
        <path
   class="st1"
   d="M44,26.1v13.3c-1.7,1.1-3.4,1.7-5.1,1.7c-1.1,0-1.9-0.3-2.4-0.9c-0.5-0.6-0.7-1.5-0.7-2.8V26.1         c0-0.5-0.2-0.7-0.7-0.7h-2.1c-0.5,0-0.7,0.2-0.7,0.7v12.4c0,1.7,0.4,3.1,1.3,4c0.9,0.9,2.2,1.4,3.9,1.4c2.3,0,4.6-0.8,6.8-2.4         l0.2,1.2c0,0.3,0.1,0.4,0.3,0.5c0.1,0.1,0.3,0.1,0.6,0.1h1.5c0.5,0,0.7-0.2,0.7-0.7V26.1c0-0.5-0.2-0.7-0.7-0.7h-2.1         C44.2,25.4,44,25.7,44,26.1z"
   id="path24"
   style="fill:#ffffff" />
        <linearGradient
   id="SVGID_3_"
   gradientUnits="userSpaceOnUse"
   x1="-349.8585"
   y1="353.5933"
   x2="-349.2344"
   y2="353.5933"
   gradientTransform="matrix(90.9945 -90.9945 -90.9945 -90.9945 64008.5391 390.498)">
            <stop
   offset="0"
   style="stop-color:#0C6CB3"
   id="stop26" />
            <stop
   offset="0.2911"
   style="stop-color:#1E84C4"
   id="stop28" />
            <stop
   offset="0.8873"
   style="stop-color:#4CC0EF"
   id="stop30" />
            <stop
   offset="1"
   style="stop-color:#4CC0EF"
   id="stop32" />
        </linearGradient>
        <path
   class="st2"
   d="M25,43.4h2.1c0.5,0,0.7-0.2,0.7-0.7V30.2c0-1.7-0.4-3-1.3-3.9c-0.9-0.9-2.1-1.4-3.8-1.4c-2.3,0-4.7,0.8-7,2.5         c-0.8-1.7-2.3-2.5-4.5-2.5c-2.2,0-4.4,0.8-6.6,2.3l-0.2-1.1c0-0.3-0.1-0.4-0.3-0.5c-0.1-0.1-0.3-0.1-0.5-0.1H2         c-0.5,0-0.7,0.2-0.7,0.7v16.6c0,0.5,0.2,0.7,0.7,0.7h2.1c0.5,0,0.7-0.2,0.7-0.7V29.3c1.7-1,3.4-1.6,5.2-1.6c1,0,1.7,0.3,2.1,0.9         c0.4,0.6,0.7,1.4,0.7,2.6v11.5c0,0.5,0.2,0.7,0.7,0.7h2.1c0.5,0,0.7-0.2,0.7-0.7V30.4v-0.6c0-0.2,0-0.4,0-0.5         c1.8-1.1,3.5-1.6,5.2-1.6c1,0,1.7,0.3,2.1,0.9c0.4,0.6,0.7,1.4,0.7,2.6v11.5C24.3,43.2,24.5,43.4,25,43.4z"
   id="path35"
   style="fill:#ffffff" />
        <linearGradient
   id="SVGID_4_"
   gradientUnits="userSpaceOnUse"
   x1="-349.8585"
   y1="353.3329"
   x2="-349.2344"
   y2="353.3329"
   gradientTransform="matrix(90.9945 -90.9945 -90.9945 -90.9945 64008.5391 390.498)">
            <stop
   offset="0"
   style="stop-color:#0C6CB3"
   id="stop37" />
            <stop
   offset="0.2911"
   style="stop-color:#1E84C4"
   id="stop39" />
            <stop
   offset="0.8873"
   style="stop-color:#4CC0EF"
   id="stop41" />
            <stop
   offset="1"
   style="stop-color:#4CC0EF"
   id="stop43" />
        </linearGradient>
        <path
   class="st3"
   d="M79.5,56.7c-10.9,4.6-22.8,6.9-33.6,6.9c-16,0-31.5-4.4-44-11.7c-0.2-0.1-0.4-0.2-0.6-0.2             c-0.7,0-1.1,0.8-0.4,1.5c11.6,10.5,27,16.8,44,16.8c12.2,0,26.3-3.8,36-11C82.6,57.8,81.2,56,79.5,56.7z"
   id="path46"
   style="fill:#ffffff" />
        <linearGradient
   id="SVGID_5_"
   gradientUnits="userSpaceOnUse"
   x1="-349.8585"
   y1="353.2191"
   x2="-349.2344"
   y2="353.2191"
   gradientTransform="matrix(90.9945 -90.9945 -90.9945 -90.9945 64008.5391 390.498)">
            <stop
   offset="0"
   style="stop-color:#0C6CB3"
   id="stop48" />
            <stop
   offset="0.2911"
   style="stop-color:#1E84C4"
   id="stop50" />
            <stop
   offset="0.8873"
   style="stop-color:#4CC0EF"
   id="stop52" />
            <stop
   offset="1"
   style="stop-color:#4CC0EF"
   id="stop54" />
        </linearGradient>
        <path
   class="st4"
   d="M79.2,29.4c0.9-1,2.3-1.5,4.3-1.5c1,0,2,0.1,2.9,0.4c0.3,0.1,0.4,0.1,0.6,0.1c0.3,0,0.5-0.2,0.5-0.7v-1             c0-0.3-0.1-0.6-0.2-0.7c-0.1-0.1-0.3-0.3-0.5-0.4C85.5,25.3,84.2,25,83,25c-2.8,0-4.9,0.8-6.5,2.5c-1.5,1.6-2.3,4-2.3,7             c0,3,0.7,5.3,2.2,6.9c1.5,1.6,3.6,2.4,6.4,2.4c1.5,0,2.9-0.2,4-0.7c0.3-0.1,0.5-0.2,0.6-0.4c0.1-0.1,0.1-0.4,0.1-0.7v-1             c0-0.5-0.2-0.7-0.5-0.7c-0.1,0-0.3,0-0.5,0.1c-1.1,0.3-2.2,0.5-3.2,0.5c-1.9,0-3.3-0.5-4.2-1.5c-0.9-1-1.3-2.6-1.3-4.7v-0.5             C77.9,32,78.3,30.4,79.2,29.4z"
   id="path57"
   style="fill:#ffffff" />
        <linearGradient
   id="SVGID_6_"
   gradientUnits="userSpaceOnUse"
   x1="-349.8585"
   y1="353.1045"
   x2="-349.2344"
   y2="353.1045"
   gradientTransform="matrix(90.9945 -90.9945 -90.9945 -90.9945 64008.5391 390.498)">
            <stop
   offset="0"
   style="stop-color:#0C6CB3"
   id="stop59" />
            <stop
   offset="0.2911"
   style="stop-color:#1E84C4"
   id="stop61" />
            <stop
   offset="0.8873"
   style="stop-color:#4CC0EF"
   id="stop63" />
            <stop
   offset="1"
   style="stop-color:#4CC0EF"
   id="stop65" />
        </linearGradient>
        <path
   class="st5"
   d="M83.7,66.1c5.2-4.4,6.6-13.5,5.5-14.9c-0.5-0.6-2.9-1.2-5.9-1.2c-3.2,0-7,0.7-9.9,2.7             c-0.9,0.6-0.7,1.4,0.2,1.3c3.1-0.4,10.1-1.2,11.4,0.4c1.2,1.6-1.4,8.2-2.6,11.1C82.1,66.4,82.8,66.7,83.7,66.1z"
   id="path68"
   style="fill:#ffffff" />
        <linearGradient
   id="SVGID_7_"
   gradientUnits="userSpaceOnUse"
   x1="-349.8585"
   y1="353.2955"
   x2="-349.2344"
   y2="353.2955"
   gradientTransform="matrix(90.9945 -90.9945 -90.9945 -90.9945 64008.5391 390.498)">
            <stop
   offset="0"
   style="stop-color:#0C6CB3"
   id="stop70" />
            <stop
   offset="0.2911"
   style="stop-color:#1E84C4"
   id="stop72" />
            <stop
   offset="0.8873"
   style="stop-color:#4CC0EF"
   id="stop74" />
            <stop
   offset="1"
   style="stop-color:#4CC0EF"
   id="stop76" />
        </linearGradient>
        <path
   class="st6"
   d="M69.8,25.4h-2.1c-0.5,0-0.7,0.2-0.7,0.7v16.6c0,0.5,0.2,0.7,0.7,0.7h2.1c0.5,0,0.7-0.2,0.7-0.7V26.1             C70.5,25.7,70.3,25.4,69.8,25.4z"
   id="path79"
   style="fill:#ffffff" />
        <linearGradient
   id="SVGID_8_"
   gradientUnits="userSpaceOnUse"
   x1="-349.8585"
   y1="353.3741"
   x2="-349.2344"
   y2="353.3741"
   gradientTransform="matrix(90.9945 -90.9945 -90.9945 -90.9945 64008.5391 390.498)">
            <stop
   offset="0"
   style="stop-color:#0C6CB3"
   id="stop81" />
            <stop
   offset="0.2911"
   style="stop-color:#1E84C4"
   id="stop83" />
            <stop
   offset="0.8873"
   style="stop-color:#4CC0EF"
   id="stop85" />
            <stop
   offset="1"
   style="stop-color:#4CC0EF"
   id="stop87" />
        </linearGradient>
        <path
   class="st7"
   d="M70.4,18.6C70,18.2,69.4,18,68.7,18c-0.7,0-1.2,0.2-1.6,0.6c-0.4,0.4-0.6,0.9-0.6,1.5c0,0.6,0.2,1.2,0.6,1.5             c0.4,0.4,0.9,0.6,1.6,0.6c0.7,0,1.2-0.2,1.6-0.6c0.4-0.4,0.6-0.9,0.6-1.5C70.9,19.5,70.8,18.9,70.4,18.6z"
   id="path90"
   style="fill:#ffffff" />
    </g>
</svg>