<?xml version="1.0" encoding="UTF-8" standalone="no"?>
<!-- Generator: Adobe Illustrator 16.0.0, SVG Export Plug-In . SVG Version: 6.00 Build 0)  -->

<svg
   xmlns:dc="http://purl.org/dc/elements/1.1/"
   xmlns:cc="http://creativecommons.org/ns#"
   xmlns:rdf="http://www.w3.org/1999/02/22-rdf-syntax-ns#"
   xmlns:svg="http://www.w3.org/2000/svg"
   xmlns="http://www.w3.org/2000/svg"
   xmlns:sodipodi="http://sodipodi.sourceforge.net/DTD/sodipodi-0.dtd"
   xmlns:inkscape="http://www.inkscape.org/namespaces/inkscape"
   version="1.1"
   id="Layer_1"
   x="0px"
   y="0px"
   width="308px"
   height="308px"
   viewBox="0 0 308 308"
   enable-background="new 0 0 308 308"
   xml:space="preserve"
   sodipodi:docname="logo.svg"
   inkscape:version="0.92.3 (2405546, 2018-03-11)"><metadata
   id="metadata17"><rdf:RDF><cc:Work
       rdf:about=""><dc:format>image/svg+xml</dc:format><dc:type
         rdf:resource="http://purl.org/dc/dcmitype/StillImage" /><dc:title /></cc:Work></rdf:RDF></metadata><defs
   id="defs15" /><sodipodi:namedview
   pagecolor="#ffffff"
   bordercolor="#666666"
   borderopacity="1"
   objecttolerance="10"
   gridtolerance="10"
   guidetolerance="10"
   inkscape:pageopacity="0"
   inkscape:pageshadow="2"
   inkscape:window-width="1864"
   inkscape:window-height="1051"
   id="namedview13"
   showgrid="false"
   inkscape:zoom="1.0836182"
   inkscape:cx="15.94219"
   inkscape:cy="15.407301"
   inkscape:window-x="1976"
   inkscape:window-y="0"
   inkscape:window-maximized="1"
   inkscape:current-layer="Layer_1" />
<circle
   cx="153.999"
   cy="154.945"
   r="154.08"
   id="circle2"
   fill="#7F7F7F" />

<g
   transform="matrix(2.7095578,0,0,2.9379983,31.954475,25.673081)"
   id="g92"
   style="fill:#ffffff;fill-rule:nonzero"><linearGradient
     id="SVGID_1_"
     gradientUnits="userSpaceOnUse"
     x1="-349.85849"
     y1="353.3577"
     x2="-349.23441"
     y2="353.3577"
     gradientTransform="matrix(90.9945,-90.9945,-90.9945,-90.9945,64008.539,390.498)"><stop
       offset="0"
       style="stop-color:#0C6CB3"
       id="stop4" /><stop
       offset="0.2911"
       style="stop-color:#1E84C4"
       id="stop6" /><stop
       offset="0.8873"
       style="stop-color:#4CC0EF"
       id="stop8" /><stop
       offset="1"
       style="stop-color:#4CC0EF"
       id="stop10" /></linearGradient><path
     inkscape:connector-curvature="0"
     class="st0"
     d="m 59.7,40.5 c -0.6,0.4 -1.5,0.7 -2.6,0.7 -1.7,0 -3.3,-0.2 -4.9,-0.7 -0.4,-0.1 -0.7,-0.2 -0.9,-0.2 -0.3,0 -0.4,0.2 -0.4,0.6 v 1 c 0,0.3 0.1,0.5 0.2,0.7 0.1,0.1 0.3,0.3 0.6,0.4 1.6,0.7 3.4,1 5.4,1 2.1,0 3.7,-0.5 5,-1.5 1.3,-1 1.9,-2.3 1.9,-4 0,-1.2 -0.3,-2.1 -0.9,-2.9 -0.6,-0.7 -1.6,-1.4 -3,-1.9 l -2.8,-1.1 c -1.1,-0.4 -1.9,-0.8 -2.2,-1.2 -0.4,-0.4 -0.6,-0.8 -0.6,-1.5 0,-1.5 1.1,-2.3 3.4,-2.3 1.3,0 2.6,0.2 3.8,0.6 0.4,0.1 0.7,0.2 0.8,0.2 0.3,0 0.5,-0.2 0.5,-0.6 v -1 c 0,-0.3 -0.1,-0.5 -0.2,-0.7 -0.1,-0.2 -0.3,-0.3 -0.6,-0.4 -1.5,-0.5 -3,-0.8 -4.5,-0.8 -1.9,0 -3.5,0.5 -4.7,1.4 -1.2,0.9 -1.8,2.2 -1.8,3.7 0,2.3 1.3,4 3.9,5 l 3,1.1 c 1,0.4 1.6,0.7 2,1.1 0.4,0.4 0.5,0.8 0.5,1.4 0,0.8 -0.3,1.5 -0.9,1.9 z"
     id="path13"
     style="fill:#ffffff" /><linearGradient
     id="SVGID_2_"
     gradientUnits="userSpaceOnUse"
     x1="-349.85849"
     y1="353.4541"
     x2="-349.23441"
     y2="353.4541"
     gradientTransform="matrix(90.9945,-90.9945,-90.9945,-90.9945,64008.539,390.498)"><stop
       offset="0"
       style="stop-color:#0C6CB3"
       id="stop15" /><stop
       offset="0.2911"
       style="stop-color:#1E84C4"
       id="stop17" /><stop
       offset="0.8873"
       style="stop-color:#4CC0EF"
       id="stop19" /><stop
       offset="1"
       style="stop-color:#4CC0EF"
       id="stop21" /></linearGradient><path
     inkscape:connector-curvature="0"
     class="st1"
     d="m 44,26.1 v 13.3 c -1.7,1.1 -3.4,1.7 -5.1,1.7 -1.1,0 -1.9,-0.3 -2.4,-0.9 C 36,39.6 35.8,38.7 35.8,37.4 V 26.1 c 0,-0.5 -0.2,-0.7 -0.7,-0.7 H 33 c -0.5,0 -0.7,0.2 -0.7,0.7 v 12.4 c 0,1.7 0.4,3.1 1.3,4 0.9,0.9 2.2,1.4 3.9,1.4 2.3,0 4.6,-0.8 6.8,-2.4 l 0.2,1.2 c 0,0.3 0.1,0.4 0.3,0.5 0.1,0.1 0.3,0.1 0.6,0.1 h 1.5 c 0.5,0 0.7,-0.2 0.7,-0.7 V 26.1 c 0,-0.5 -0.2,-0.7 -0.7,-0.7 h -2.1 c -0.6,0 -0.8,0.3 -0.8,0.7 z"
     id="path24"
     style="fill:#ffffff" /><linearGradient
     id="SVGID_3_"
     gradientUnits="userSpaceOnUse"
     x1="-349.85849"
     y1="353.59329"
     x2="-349.23441"
     y2="353.59329"
     gradientTransform="matrix(90.9945,-90.9945,-90.9945,-90.9945,64008.539,390.498)"><stop
       offset="0"
       style="stop-color:#0C6CB3"
       id="stop26" /><stop
       offset="0.2911"
       style="stop-color:#1E84C4"
       id="stop28" /><stop
       offset="0.8873"
       style="stop-color:#4CC0EF"
       id="stop30" /><stop
       offset="1"
       style="stop-color:#4CC0EF"
       id="stop32" /></linearGradient><path
     inkscape:connector-curvature="0"
     class="st2"
     d="m 25,43.4 h 2.1 c 0.5,0 0.7,-0.2 0.7,-0.7 V 30.2 c 0,-1.7 -0.4,-3 -1.3,-3.9 -0.9,-0.9 -2.1,-1.4 -3.8,-1.4 -2.3,0 -4.7,0.8 -7,2.5 -0.8,-1.7 -2.3,-2.5 -4.5,-2.5 -2.2,0 -4.4,0.8 -6.6,2.3 L 4.4,26.1 C 4.4,25.8 4.3,25.7 4.1,25.6 4,25.5 3.8,25.5 3.6,25.5 H 2 c -0.5,0 -0.7,0.2 -0.7,0.7 v 16.6 c 0,0.5 0.2,0.7 0.7,0.7 h 2.1 c 0.5,0 0.7,-0.2 0.7,-0.7 V 29.3 c 1.7,-1 3.4,-1.6 5.2,-1.6 1,0 1.7,0.3 2.1,0.9 0.4,0.6 0.7,1.4 0.7,2.6 v 11.5 c 0,0.5 0.2,0.7 0.7,0.7 h 2.1 c 0.5,0 0.7,-0.2 0.7,-0.7 V 30.4 29.8 c 0,-0.2 0,-0.4 0,-0.5 1.8,-1.1 3.5,-1.6 5.2,-1.6 1,0 1.7,0.3 2.1,0.9 0.4,0.6 0.7,1.4 0.7,2.6 v 11.5 c 0,0.5 0.2,0.7 0.7,0.7 z"
     id="path35"
     style="fill:#ffffff" /><linearGradient
     id="SVGID_4_"
     gradientUnits="userSpaceOnUse"
     x1="-349.85849"
     y1="353.33289"
     x2="-349.23441"
     y2="353.33289"
     gradientTransform="matrix(90.9945,-90.9945,-90.9945,-90.9945,64008.539,390.498)"><stop
       offset="0"
       style="stop-color:#0C6CB3"
       id="stop37" /><stop
       offset="0.2911"
       style="stop-color:#1E84C4"
       id="stop39" /><stop
       offset="0.8873"
       style="stop-color:#4CC0EF"
       id="stop41" /><stop
       offset="1"
       style="stop-color:#4CC0EF"
       id="stop43" /></linearGradient><path
     inkscape:connector-curvature="0"
     class="st3"
     d="m 79.5,56.7 c -10.9,4.6 -22.8,6.9 -33.6,6.9 -16,0 -31.5,-4.4 -44,-11.7 -0.2,-0.1 -0.4,-0.2 -0.6,-0.2 -0.7,0 -1.1,0.8 -0.4,1.5 11.6,10.5 27,16.8 44,16.8 12.2,0 26.3,-3.8 36,-11 1.7,-1.2 0.3,-3 -1.4,-2.3 z"
     id="path46"
     style="fill:#ffffff" /><linearGradient
     id="SVGID_5_"
     gradientUnits="userSpaceOnUse"
     x1="-349.85849"
     y1="353.21909"
     x2="-349.23441"
     y2="353.21909"
     gradientTransform="matrix(90.9945,-90.9945,-90.9945,-90.9945,64008.539,390.498)"><stop
       offset="0"
       style="stop-color:#0C6CB3"
       id="stop48" /><stop
       offset="0.2911"
       style="stop-color:#1E84C4"
       id="stop50" /><stop
       offset="0.8873"
       style="stop-color:#4CC0EF"
       id="stop52" /><stop
       offset="1"
       style="stop-color:#4CC0EF"
       id="stop54" /></linearGradient><path
     inkscape:connector-curvature="0"
     class="st4"
     d="m 79.2,29.4 c 0.9,-1 2.3,-1.5 4.3,-1.5 1,0 2,0.1 2.9,0.4 0.3,0.1 0.4,0.1 0.6,0.1 0.3,0 0.5,-0.2 0.5,-0.7 v -1 C 87.5,26.4 87.4,26.1 87.3,26 87.2,25.9 87,25.7 86.8,25.6 85.5,25.3 84.2,25 83,25 c -2.8,0 -4.9,0.8 -6.5,2.5 -1.5,1.6 -2.3,4 -2.3,7 0,3 0.7,5.3 2.2,6.9 1.5,1.6 3.6,2.4 6.4,2.4 1.5,0 2.9,-0.2 4,-0.7 0.3,-0.1 0.5,-0.2 0.6,-0.4 0.1,-0.1 0.1,-0.4 0.1,-0.7 v -1 c 0,-0.5 -0.2,-0.7 -0.5,-0.7 -0.1,0 -0.3,0 -0.5,0.1 -1.1,0.3 -2.2,0.5 -3.2,0.5 -1.9,0 -3.3,-0.5 -4.2,-1.5 -0.9,-1 -1.3,-2.6 -1.3,-4.7 v -0.5 c 0.1,-2.2 0.5,-3.8 1.4,-4.8 z"
     id="path57"
     style="fill:#ffffff" /><linearGradient
     id="SVGID_6_"
     gradientUnits="userSpaceOnUse"
     x1="-349.85849"
     y1="353.10449"
     x2="-349.23441"
     y2="353.10449"
     gradientTransform="matrix(90.9945,-90.9945,-90.9945,-90.9945,64008.539,390.498)"><stop
       offset="0"
       style="stop-color:#0C6CB3"
       id="stop59" /><stop
       offset="0.2911"
       style="stop-color:#1E84C4"
       id="stop61" /><stop
       offset="0.8873"
       style="stop-color:#4CC0EF"
       id="stop63" /><stop
       offset="1"
       style="stop-color:#4CC0EF"
       id="stop65" /></linearGradient><path
     inkscape:connector-curvature="0"
     class="st5"
     d="M 83.7,66.1 C 88.9,61.7 90.3,52.6 89.2,51.2 88.7,50.6 86.3,50 83.3,50 c -3.2,0 -7,0.7 -9.9,2.7 -0.9,0.6 -0.7,1.4 0.2,1.3 3.1,-0.4 10.1,-1.2 11.4,0.4 1.2,1.6 -1.4,8.2 -2.6,11.1 -0.3,0.9 0.4,1.2 1.3,0.6 z"
     id="path68"
     style="fill:#ffffff" /><linearGradient
     id="SVGID_7_"
     gradientUnits="userSpaceOnUse"
     x1="-349.85849"
     y1="353.2955"
     x2="-349.23441"
     y2="353.2955"
     gradientTransform="matrix(90.9945,-90.9945,-90.9945,-90.9945,64008.539,390.498)"><stop
       offset="0"
       style="stop-color:#0C6CB3"
       id="stop70" /><stop
       offset="0.2911"
       style="stop-color:#1E84C4"
       id="stop72" /><stop
       offset="0.8873"
       style="stop-color:#4CC0EF"
       id="stop74" /><stop
       offset="1"
       style="stop-color:#4CC0EF"
       id="stop76" /></linearGradient><path
     inkscape:connector-curvature="0"
     class="st6"
     d="m 69.8,25.4 h -2.1 c -0.5,0 -0.7,0.2 -0.7,0.7 v 16.6 c 0,0.5 0.2,0.7 0.7,0.7 h 2.1 c 0.5,0 0.7,-0.2 0.7,-0.7 V 26.1 c 0,-0.4 -0.2,-0.7 -0.7,-0.7 z"
     id="path79"
     style="fill:#ffffff" /><linearGradient
     id="SVGID_8_"
     gradientUnits="userSpaceOnUse"
     x1="-349.85849"
     y1="353.37411"
     x2="-349.23441"
     y2="353.37411"
     gradientTransform="matrix(90.9945,-90.9945,-90.9945,-90.9945,64008.539,390.498)"><stop
       offset="0"
       style="stop-color:#0C6CB3"
       id="stop81" /><stop
       offset="0.2911"
       style="stop-color:#1E84C4"
       id="stop83" /><stop
       offset="0.8873"
       style="stop-color:#4CC0EF"
       id="stop85" /><stop
       offset="1"
       style="stop-color:#4CC0EF"
       id="stop87" /></linearGradient><path
     inkscape:connector-curvature="0"
     class="st7"
     d="M 70.4,18.6 C 70,18.2 69.4,18 68.7,18 c -0.7,0 -1.2,0.2 -1.6,0.6 -0.4,0.4 -0.6,0.9 -0.6,1.5 0,0.6 0.2,1.2 0.6,1.5 0.4,0.4 0.9,0.6 1.6,0.6 0.7,0 1.2,-0.2 1.6,-0.6 0.4,-0.4 0.6,-0.9 0.6,-1.5 0,-0.6 -0.1,-1.2 -0.5,-1.5 z"
     id="path90"
     style="fill:#ffffff" /></g></svg>