<?xml version="1.0" encoding="UTF-8" standalone="no"?>
<svg
   xmlns:dc="http://purl.org/dc/elements/1.1/"
   xmlns:cc="http://creativecommons.org/ns#"
   xmlns:rdf="http://www.w3.org/1999/02/22-rdf-syntax-ns#"
   xmlns:svg="http://www.w3.org/2000/svg"
   xmlns="http://www.w3.org/2000/svg"
   xmlns:sodipodi="http://sodipodi.sourceforge.net/DTD/sodipodi-0.dtd"
   xmlns:inkscape="http://www.inkscape.org/namespaces/inkscape"
   sodipodi:docname="RockRadio.svg"
   inkscape:version="1.0 (4035a4fb49, 2020-05-01)"
   id="svg2"
   xml:space="preserve"
   enable-background="new 0 0 308 308"
   viewBox="0 0 308 308"
   height="308px"
   width="308px"
   y="0px"
   x="0px"
   version="1.1"><metadata
     id="metadata45"><rdf:RDF><cc:Work
         rdf:about=""><dc:format>image/svg+xml</dc:format><dc:type
           rdf:resource="http://purl.org/dc/dcmitype/StillImage" /><dc:title></dc:title></cc:Work></rdf:RDF></metadata><defs
     id="defs43" /><sodipodi:namedview
     inkscape:document-rotation="0"
     inkscape:current-layer="drawing"
     inkscape:window-maximized="0"
     inkscape:window-y="22"
     inkscape:window-x="1200"
     inkscape:cy="154"
     inkscape:cx="144.50791"
     inkscape:zoom="3.1605263"
     showgrid="false"
     id="namedview41"
     inkscape:window-height="1416"
     inkscape:window-width="2558"
     inkscape:pageshadow="2"
     inkscape:pageopacity="0"
     guidetolerance="10"
     gridtolerance="10"
     objecttolerance="10"
     borderopacity="1"
     bordercolor="#666666"
     pagecolor="#ffffff" /><g
     id="image_base" /><g
     id="drawing"><circle
       id="circle6"
       r="154"
       cy="154"
       cx="154"
       fill="#7f7f7f" /><rect
       id="rect8"
       height="117.402"
       width="257.48499"
       fill="none"
       y="87.299004"
       x="24.257" /><path
       id="path2520"
       d="m 251.94202,252.85445 c -0.38317,-1.20729 -0.74186,-1.44504 -1.15981,-0.76878 -0.74172,1.20012 -13.73286,0.938 -14.57116,-0.29401 -0.34229,-0.50303 -1.17604,-0.24451 -2.2,0.68217 -0.90687,0.8207 -1.64884,1.154 -1.64884,0.74068 0,-0.41332 -1.07318,-1.38544 -2.38484,-2.16026 -1.847,-1.09106 -2.74907,-1.21381 -4,-0.54434 -0.88834,0.47543 -1.61516,0.57068 -1.61516,0.21166 0,-0.35902 -1.08,-1.06041 -2.4,-1.55866 -2.1077,-0.79556 -2.4,-0.73227 -2.4,0.51968 0,1.14735 -0.50743,1.35673 -2.6,1.07288 -1.43,-0.19399 -4.22,-0.46269 -6.2,-0.59712 -1.98,-0.13444 -3.69,-0.33351 -3.8,-0.44237 -0.11,-0.10887 -1.19,-0.28369 -2.4,-0.3885 -1.21,-0.1048 -3.3862,-0.68484 -4.836,-1.28897 -1.68681,-0.7029 -2.83908,-0.81433 -3.2,-0.30945 -0.3102,0.43393 -1.464,0.88584 -2.564,1.00422 -1.1,0.11839 -2.41023,0.76281 -2.91162,1.43203 -0.59048,0.78816 -2.7041,1.3372 -6,1.55859 -2.79861,0.18799 -7.11024,0.54929 -9.5814,0.80288 l -4.49302,0.46108 -0.48698,-2.43491 c -0.26784,-1.3392 -0.86284,-2.43492 -1.32222,-2.43492 -0.47656,0 -0.6332,0.80506 -0.36473,1.87468 0.42055,1.67563 0.21404,1.85942 -1.94497,1.73098 -1.32852,-0.079 -3.00082,-0.62949 -3.71625,-1.22323 -1.31838,-1.09417 -1.90237,-0.71469 -3.1049,2.01757 -0.20311,0.46146 -0.67857,0.33345 -1.12357,-0.30249 -0.4243,-0.60637 -1.11238,-0.89179 -1.52907,-0.63426 -1.2541,0.77507 -3.69393,-5.18068 -3.92558,-9.58253 -0.20517,-3.899 -0.0894,-4.17205 2.16496,-5.10584 1.44879,-0.60011 3.8127,-0.79041 6.03491,-0.48582 l 3.65317,0.50072 -0.51574,-3.79489 c -0.28367,-2.08719 -0.65896,-6.31489 -0.83399,-9.39489 -0.17504,-3.08 -0.60642,-5.61378 -0.95863,-5.63062 -0.35221,-0.0169 -1.72037,-0.66 -3.04037,-1.42923 -1.63863,-0.95491 -1.85033,-1.25211 -0.66733,-0.93683 0.95297,0.25397 1.96421,0.0871 2.24721,-0.37077 0.283,-0.45791 -0.0167,-0.83255 -0.666,-0.83255 -0.64931,0 -1.36793,-0.45 -1.59696,-1 -0.30301,-0.72768 -0.72644,-0.61874 -1.55486,0.4 -0.62615,0.77 -2.06752,1.4 -3.20305,1.4 -1.13552,0 -2.32078,0.41454 -2.63392,0.9212 -0.40003,0.64727 -0.862,0.52093 -1.55358,-0.42486 -1.11249,-1.52142 -4.59242,-1.95566 -7.56524,-0.94401 -1.78873,0.60871 -1.88148,0.54322 -0.90204,-0.63693 0.92593,-1.11568 0.9189,-1.3154 -0.0463,-1.3154 -0.62587,0 -1.5686,0.43065 -2.09495,0.957 -0.74268,0.74268 -1.22074,0.6083 -2.13456,-0.6 -1.06414,-1.40703 -1.18001,-1.42215 -1.203,-0.157 -0.0292,1.60758 -1.32672,1.8914 -1.82868,0.4 -0.25139,-0.74692 -0.62257,-0.77388 -1.46667,-0.10653 -0.62155,0.49141 -2.57009,0.83065 -4.33009,0.75389 -1.79472,-0.0783 -4.25397,0.4615 -5.6,1.22915 -1.87416,1.06883 -4.0289,1.32705 -9.83436,1.17854 -5.80452,-0.14849 -7.5765,0.0638 -8.08269,0.96831 -0.54787,0.979 -0.9454,0.99412 -2.56564,0.0976 -1.05452,-0.58349 -2.18731,-0.98441 -2.51731,-0.89093 -0.330005,0.0935 -0.600005,-0.15633 -0.600005,-0.55514 0,-0.39881 -0.725352,-0.53542 -1.611888,-0.30358 -1.281792,0.33519 -1.501432,0.13367 -1.07252,-0.98406 0.384656,-1.00241 0.215968,-1.28947 -0.588112,-1.00081 -0.620112,0.22263 -1.724272,-0.11399 -2.45368,-0.74804 -1.166008,-1.01357 -1.84244,-0.91726 -5.6,0.79727 -4.038832,1.84286 -8.887002,2.31584 -10.911686,1.06452 -0.468356,-0.28947 -1.077678,-0.16042 -1.354049,0.28676 -0.27633,0.44717 -1.53996,0.81304 -2.808025,0.81304 -1.268064,0 -2.509466,0.32991 -2.758669,0.73313 -0.249203,0.40322 -1.707803,0.63357 -3.241331,0.51189 -1.533529,-0.12167 -3.744332,0.2748 -4.912896,0.88106 -1.834073,0.95152 -2.381956,0.9337 -4.005883,-0.13034 -1.034671,-0.67794 -1.881221,-1.88349 -1.881221,-2.67899 0,-0.79551 -0.9,-1.92804 -2,-2.51675 -1.592012,-0.85201 -2,-1.68746 -2,-4.09543 0,-1.77014 -0.468706,-3.29045 -1.129845,-3.66481 -0.621415,-0.35187 -1.282528,-1.89976 -1.46914,-3.43976 -0.186612,-1.54 -0.542646,-3.34 -0.791185,-4 -0.24854,-0.66 -1.041225,-3.43279 -1.761522,-6.16176 -1.031566,-3.90826 -1.108508,-5.2838 -0.362383,-6.47854 0.749477,-1.2001 0.672463,-2.32323 -0.36887,-5.37938 -1.126298,-3.3055 -1.158244,-4.10353 -0.221501,-5.53319 1.724072,-2.63126 2.380398,-6.75069 1.285707,-8.0697 -0.528144,-0.63638 -0.755709,-1.69011 -0.505701,-2.34162 0.250009,-0.65151 0.110284,-1.39734 -0.310499,-1.6574 -1.128065,-0.69718 -0.931113,-1.99191 0.234939,-1.54445 0.663035,0.25443 1.03496,-0.49536 1.103751,-2.22512 0.05706,-1.43486 0.369642,-5.30884 0.694621,-8.60884 0.32498,-3.3 0.586107,-6.72 0.580283,-7.6 -0.01054,-1.59268 -0.727985,-6.21894 -1.023535,-6.6 -0.08532,-0.11 -0.231212,-0.47 -0.324213,-0.8 -0.093,-0.33 -0.372465,-1.14 -0.621031,-1.8 -1.04348,-2.77068 -3.009876,-11.03673 -3.009876,-12.65248 0,-0.96113 0.393564,-1.74752 0.874587,-1.74752 1.018553,0 0.569551,-4.85433 -0.757815,-8.19305 -0.919336,-2.31239 -0.562917,-4.19851 1.179552,-6.24201 1.432867,-1.68041 1.661992,-5.928264 0.401676,-7.446856 -0.575366,-0.693272 -0.800609,-1.96464 -0.510184,-2.879688 0.302365,-0.952672 0.162614,-1.638392 -0.333905,-1.638392 -0.469651,0 -0.853911,-0.398512 -0.853911,-0.885592 0,-0.487072 0.486728,-0.698816 1.081616,-0.470536 0.73076,0.280416 1.111116,-0.275704 1.17256,-1.714408 0.650747,-15.237359 0.94668,-18.011613 2.110848,-19.78836 1.274746,-1.945506 2.834976,-2.599624 2.834976,-1.188546 0,0.413906 0.965272,0.251768 2.14505,-0.360307 1.987726,-1.031245 2.286698,-0.960024 4.076378,0.971072 1.444809,1.558976 2.091022,1.82555 2.565261,1.058216 0.482362,-0.780479 2.281225,-0.888505 7.523622,-0.451816 3.789329,0.315649 6.892498,0.271591 6.895931,-0.09791 0.0034,-0.369498 0.903433,-1.087944 2,-1.596547 1.096567,-0.508602 1.993758,-0.598602 1.993758,-0.2 0,0.398603 0.702112,0.724732 1.560248,0.724732 0.858136,0 1.931552,0.63 2.38536,1.4 0.718856,1.219695 0.926168,1.245454 1.609744,0.2 0.431544,-0.66 1.428128,-1.267333 2.21464,-1.349629 0.786504,-0.0823 2.240008,-0.394284 3.230008,-0.693305 1.356392,-0.409689 1.8,-0.220065 1.8,0.769429 0,0.722209 0.9,1.655286 2,2.073505 1.1,0.418219 2,1.129309 2,1.580199 0,0.450891 0.54,0.819801 1.2,0.819801 0.66,0 1.2,0.350755 1.2,0.779456 0,1.067398 4.790615,3.55226 7.000005,3.630856 0.99,0.03522 1.8,-0.26121 1.8,-0.65873 0,-0.39752 0.5102,-0.526979 1.13379,-0.287687 0.62358,0.239292 1.33229,-0.08219 1.57489,-0.714408 0.2426,-0.632218 0.94832,-1.149487 1.56825,-1.149487 0.61994,0 1.54223,-0.500133 2.04954,-1.111409 1.25832,-1.516176 4.87353,-2.156536 4.87353,-0.863244 0,0.922661 1.67444,1.974653 3.14302,1.974653 0.33669,0 1.46665,-0.741094 2.51102,-1.646876 1.6766,-1.454108 2.00391,-1.503229 2.79624,-0.419657 0.69532,0.95092 1.46588,1.064169 3.42252,0.50301 1.91646,-0.549631 2.81469,-0.434694 3.72619,0.4768 0.66055,0.660555 1.20101,0.939499 1.20101,0.619876 0,-0.319623 0.70393,0.05592 1.56431,0.834549 1.06295,0.961957 2.4518,1.312072 4.3334,1.092405 2.67342,-0.312108 2.84406,-0.166417 4.93922,4.217176 1.19358,2.497248 1.93135,4.926813 1.6395,5.399045 -0.29185,0.472224 -0.18472,1.503232 0.23806,2.291128 0.42279,0.787904 1.01887,2.152544 1.32462,3.032544 0.42381,1.219792 0.80117,0.555304 1.58805,-2.796264 0.56767,-2.417952 0.72375,-4.586864 0.34683,-4.819812 -0.37692,-0.232949 -0.57215,-1.134629 -0.43384,-2.003733 0.17053,-1.071595 0.79399,-1.519916 1.93705,-1.392919 2.31038,0.256687 5.92768,-1.208552 5.33822,-2.162321 -0.26447,-0.427924 0.40052,-0.999256 1.47776,-1.269627 1.57903,-0.396311 2.09458,-1.21484 2.66014,-4.223453 0.76382,-4.063383 0.39393,-3.919264 7.44668,-2.901418 1.98,0.285752 6.06734,0.631143 9.08298,0.767535 3.01565,0.136392 5.83346,0.598456 6.26182,1.02681 0.4605,0.460504 1.92893,0.519431 3.59276,0.144176 2.59857,-0.586073 2.9153,-0.446508 4.13819,1.82348 2.24318,4.163906 6.04246,7.320145 8.14856,6.76939 0.83654,-0.218761 1.44329,-0.16467 1.34833,0.120204 -0.0949,0.284874 0.18736,0.626968 0.62736,0.760209 0.44,0.133242 0.86602,-0.226758 0.94672,-0.8 0.93328,-6.62942 1.11588,-7.042257 3.11464,-7.042257 1.09387,0 2.19607,-0.54 2.44933,-1.2 0.60299,-1.571347 2.38822,-1.538519 2.99978,0.05516 0.31145,0.811644 1.02461,1.082829 2.01826,0.767459 0.84514,-0.268237 1.77721,-0.09842 2.07127,0.37738 0.29405,0.475796 1.16083,0.666343 1.92616,0.423436 0.76532,-0.242907 2.54836,0.135467 3.96229,0.840829 1.93486,0.965233 2.83934,1.059603 3.65641,0.381493 0.82076,-0.681169 1.38513,-0.60148 2.31324,0.326629 1.42371,1.423713 3.7419,1.635604 3.7419,0.342022 0,-0.487669 0.58232,-0.662132 1.29598,-0.388275 0.71279,0.273524 5.80827,0.685083 11.3233,0.914577 5.51501,0.229494 10.33182,0.605464 10.70401,0.835489 0.37219,0.230025 0.71259,1.566981 0.75645,2.971014 0.0714,2.287363 0.13562,2.353198 0.61709,0.633177 l 0.53735,-1.919609 0.9829,2.157251 c 1.21677,2.670514 1.27992,6.081968 0.1126,6.081968 -0.56683,0 -0.68846,1.076432 -0.3488,3.086896 0.3219,1.905256 0.0276,4.992976 -0.76876,8.066288 -1.30074,5.019734 -0.99261,12.500004 0.47748,11.591434 0.39072,-0.24147 0.7104,-0.0578 0.7104,0.40817 0,0.46597 -0.36,0.84721 -0.8,0.84721 -0.44,0 -0.8,0.51083 -0.8,1.13517 0,0.62435 -0.60584,2.19079 -1.34632,3.48098 -1.29508,2.25657 -1.26255,2.58621 0.85523,8.66483 1.21085,3.47546 2.19344,7.02364 2.18354,7.88483 -0.01,0.8612 0.64159,2.6612 1.44775,4 2.91359,4.83863 3.52434,8.1488 2.03514,11.03003 -1.86446,3.60729 -2.30166,8.60416 -0.75281,8.60416 1.65321,0 1.46459,1.09218 -0.49486,2.86546 -1.4485,1.31087 -1.61769,2.1573 -1.26411,6.32399 0.22452,2.6458 0.99015,6.18028 1.70138,7.85439 2.1185,4.98653 1.87232,21.16944 -0.37356,24.55616 -0.72946,1.1 -1.91005,3.49759 -2.62354,5.32796 -1.39548,3.58 -0.97235,4.27204 2.612,4.27204 2.0252,0 2.5736,1.78815 2.9442,9.6 0.66803,14.08128 0.39364,22.12385 -0.97519,28.58435 -1.35195,6.38079 -1.45695,6.56881 -3.39644,6.08203 -1.27603,-0.32026 -2.31866,-0.0971 -2.87689,0.61566 -0.48154,0.61488 -1.47525,1.58692 -2.20824,2.16008 -1.14302,0.89378 -1.41169,0.79333 -1.88747,-0.7057 z m -88.24281,-6.06041 c 4.10606,-3.71593 -1.5784,-9.70826 -6.0841,-6.41361 -1.67135,1.22212 -1.91846,4.77172 -0.45495,6.53514 1.32192,1.59281 4.7144,1.52976 6.53905,-0.12153 z m 22.99373,-0.89453 c 2.88894,-2.14404 4.04374,-4.75719 4.05747,-9.18148 l 0.0118,-3.8 h -4.26886 -4.26885 l -0.13168,3.36053 c -0.14742,3.76243 -1.01748,5.08431 -2.87684,4.37081 -1.84056,-0.70629 -1.85842,-20.63361 -0.0198,-22.15947 1.66329,-1.38041 2.60296,-0.25239 2.91263,3.49643 l 0.25347,3.0683 4.2,0.2858 4.2,0.2858 v -3.1798 c -3e-5,-7.23955 -3.77862,-11.1284 -10.8129,-11.1284 -5.80135,0 -9.52099,2.7017 -10.43619,7.58016 -0.26563,1.41594 -0.36326,7.28176 -0.21696,13.03516 0.24948,9.81047 0.3876,10.58997 2.22194,12.54023 3.60253,3.83018 10.99878,4.52518 15.17481,1.42593 z m 26.42547,0.40494 c 3.77652,-1.91122 4.93126,-5.30186 5.30203,-15.5682 0.52037,-14.40895 -1.42488,-18.48474 -9.17775,-19.2297 -5.1164,-0.49162 -8.5714,0.89324 -10.22992,4.10045 -1.88848,3.65193 -2.33496,22.35633 -0.63098,26.43451 1.94108,4.64566 9.60162,6.86167 14.73662,4.26294 z m -7.5562,-2.18642 c -0.27194,-0.44 -0.11319,-0.8 0.35278,-0.8 0.46597,0 0.84722,0.36 0.84722,0.8 0,0.44 -0.15876,0.8 -0.35279,0.8 -0.19403,0 -0.57528,-0.36 -0.84721,-0.8 z m 1.37304,-3.89304 c -0.55264,-0.34156 -0.97354,-4.64492 -1.12745,-11.52734 -0.24085,-10.77002 -0.21246,-10.98228 1.46881,-10.98096 2.41306,0.002 2.6856,1.25836 2.6856,12.38118 0,9.90288 -0.52855,11.67121 -3.02696,10.12712 z m 27.09012,-4.30696 c 0.0347,-5.83 0.18302,-10.24 0.32952,-9.8 0.14651,0.44 1.07142,5.18069 2.05537,10.53488 l 1.78899,9.73487 2.65818,-0.13487 c 3.07811,-0.15618 2.9596,0.17043 4.6451,-12.80141 0.61934,-4.76659 1.33613,-8.87659 1.59288,-9.13333 0.54899,-0.54899 0.55856,-0.32401 0.52729,12.39986 l -0.0241,9.8 h 4.49323 4.49322 l -0.50448,-4.2 c -0.27746,-2.31 -0.50761,-10.41812 -0.51143,-18.01804 l -0.007,-13.81804 -6.3612,0.20901 c -7.31233,0.24026 -6.79728,-0.41341 -7.74292,9.82707 l -0.59099,6.4 -1.01754,-4.8 c -0.55964,-2.64 -1.03325,-6.15 -1.05245,-7.8 l -0.0349,-3 h -6.91144 -6.91143 l 0.50448,4.2 c 0.27747,2.31 0.50761,10.23 0.51143,17.6 l 0.007,13.4 h 4 4 l 0.0632,-10.6 z m -39.76689,-25.57798 c 0.64057,-1.01719 0.60379,-1.64195 -0.14046,-2.3862 -0.81096,-0.81096 -1.09961,-0.65875 -1.47532,0.77798 -0.25691,0.98241 -0.70511,1.7862 -0.99601,1.7862 -0.90552,0 -3.28448,-3.15936 -3.28448,-4.36192 0,-1.96356 -1.67463,-2.28755 -2.88583,-0.55831 -0.65995,0.94221 -1.66464,1.45879 -2.33607,1.20114 -0.64795,-0.24865 -1.1781,-0.0921 -1.1781,0.34791 0,0.88534 1.87017,1.77118 3.73924,1.77118 0.66461,0 2.14113,0.7337 3.28115,1.63044 2.35797,1.85477 4.0179,1.7892 5.27588,-0.20842 z m -23.29441,-1.85372 c 0.2451,-1.28218 0.0582,-1.92311 -0.50674,-1.73734 -1.11041,0.36517 -1.69204,3.76904 -0.64403,3.76904 0.41931,0 0.93715,-0.91427 1.15077,-2.0317 z m 26.19814,0.47892 c 0,-0.41403 -0.36,-0.97528 -0.8,-1.24722 -0.44,-0.27193 -0.8,0.0668 -0.8,0.75279 0,0.68597 0.36,1.24721 0.8,1.24721 0.44,0 0.8,-0.33875 0.8,-0.75278 z m -16.8,-1.64722 c 0,-0.44 -0.15876,-0.8 -0.35279,-0.8 -0.19403,0 -0.57528,0.36 -0.84721,0.8 -0.27194,0.44 -0.11319,0.8 0.35278,0.8 0.46597,0 0.84722,-0.36 0.84722,-0.8 z m 44.46555,-0.19888 c 0.22493,-0.22493 -0.53843,-0.64674 -1.69633,-0.93736 -2.33098,-0.58504 -5.40886,0.10129 -4.80875,1.07228 0.40963,0.6628 5.81957,0.5506 6.50508,-0.13492 z m 15.53445,0.19888 c 0,-0.44 -0.15876,-0.8 -0.35279,-0.8 -0.19403,0 -0.57528,0.36 -0.84721,0.8 -0.27194,0.44 -0.11319,0.8 0.35278,0.8 0.46597,0 0.84722,-0.36 0.84722,-0.8 z m 4.26543,-0.0243 c 0.51401,-0.0134 0.30172,-0.39286 -0.47177,-0.84329 -1.50226,-0.87484 -2.99366,-0.37644 -2.99366,1.00042 0,0.46111 0.56944,0.61986 1.26543,0.35279 0.69598,-0.26708 1.68598,-0.49654 2.2,-0.50992 z m 12.53457,0.0243 c 0,-0.44 -0.36,-0.8 -0.8,-0.8 -0.44,0 -0.8,0.36 -0.8,0.8 0,0.44 0.36,0.8 0.8,0.8 0.44,0 0.8,-0.36 0.8,-0.8 z m -141.9364,-4.8 c 0.5326,-4.70752 0.59116,-4.80117 3.03973,-4.8612 1.37316,-0.0337 3.10975,-0.17933 3.85909,-0.3237 1.35092,-0.26028 1.42678,-0.0244 2.56778,7.9849 0.208,1.46013 0.83724,1.6 7.1978,1.6 h 6.96988 l -0.52053,-2.8 c -0.28629,-1.54 -0.80092,-3.16 -1.14362,-3.6 -0.34269,-0.44 -0.64466,-1.88 -0.67105,-3.2 -0.0264,-1.32 -0.79378,-5.96734 -1.70532,-10.32744 -0.91156,-4.36008 -1.65736,-8.23008 -1.65736,-8.6 0,-0.3699 -0.63,-0.71432 -1.4,-0.76536 -1.2716,-0.0843 -1.26622,-0.12739 0.0587,-0.46997 0.88486,-0.22879 1.28205,-0.83759 1.00963,-1.54753 -0.24702,-0.6437 -1.39899,-6.19221 -2.55995,-12.33002 l -2.1108,-11.15968 h -8.6988 c -7.71235,0 -8.71038,0.15876 -8.8009,1.4 -0.12304,1.68709 -0.11789,1.65604 -2.68567,16.2 -1.12641,6.38 -2.95189,16.82 -4.05663,23.2 -1.10473,6.38 -2.20094,12.23 -2.43601,13 -0.38382,1.25721 0.26758,1.4 6.38677,1.4 h 6.81419 z m -11.15202,-0.55508 c -0.8731,-0.87309 -0.56552,-1.57825 0.68842,-1.57825 0.66,0 1.2,0.27876 1.2,0.61945 0,0.90105 -1.2908,1.55642 -1.88842,0.9588 z m 8.05662,-2.64492 c 0.23012,-0.88 0.55642,-1.6 0.7251,-1.6 0.16868,0 0.3067,0.72 0.3067,1.6 0,0.88 -0.3263,1.6 -0.72511,1.6 -0.39881,0 -0.53682,-0.72 -0.30669,-1.6 z m 5.37371,-17.26192 c 0.1734,-2.45406 0.52741,-4.67406 0.78668,-4.93334 0.25927,-0.25927 0.47141,-2.98164 0.47141,-6.0497 v -5.57831 l 2,2.94716 c 2.05964,3.03506 2.61933,4.95331 1.18695,4.06805 -0.44718,-0.27637 -0.62131,-0.81274 -0.38695,-1.19194 0.23435,-0.37919 0.0376,-0.92956 -0.43728,-1.22303 -0.58525,-0.36171 -0.73067,0.45801 -0.45144,2.54472 0.22656,1.69307 0.65115,5.50831 0.94352,8.47831 l 0.53159,5.4 h -2.47988 -2.47988 z m 6.1844,1.26192 c 0,-1.1 0.18158,-1.55 0.40351,-1 0.22193,0.55 0.22193,1.45 0,2 -0.22193,0.55 -0.40351,0.1 -0.40351,-1 z m 0.67369,-4.8 c 0,-0.44 0.36,-0.8 0.8,-0.8 0.44,0 0.8,0.36 0.8,0.8 0,0.44 -0.36,0.8 -0.8,0.8 -0.44,0 -0.8,-0.36 -0.8,-0.8 z m 2.8,-2.4 c 0.27193,-0.44 0.65318,-0.8 0.84721,-0.8 0.19403,0 0.35279,0.36 0.35279,0.8 0,0.44 -0.38125,0.8 -0.84722,0.8 -0.46597,0 -0.62472,-0.36 -0.35278,-0.8 z m -57.155268,17.4 -0.11826,-11.8 h 2.408615 c 3.295801,0 4.05328,1.79028 4.124207,9.74741 0.03262,3.65893 0.302614,8.2549 0.6,10.21327 l 0.540701,3.56067 5.051384,0.0798 c 2.778264,0.0439 5.2198,-0.1927 5.425624,-0.52573 0.205824,-0.33304 0.96176,-0.38006 1.679848,-0.10451 0.776096,0.29781 1.103512,0.174 0.807296,-0.30528 -0.274072,-0.44347 -0.680656,-5.48839 -0.903512,-11.21095 -0.456032,-11.71024 -0.978664,-13.71664 -4.198168,-16.11708 -1.24436,-0.9278 -1.816992,-1.6983 -1.272504,-1.71224 0.54448,-0.0139 1.846616,-1.38237 2.89364,-3.04097 1.588448,-2.51626 1.865944,-3.87413 1.675752,-8.2 -0.556616,-12.66016 -3.842528,-14.67239 -22.35936,-13.69243 -8.981066,0.47531 -9.588252,0.61121 -9.417792,2.10806 0.100215,0.88 0.192199,13.18062 0.204409,27.33471 l 0.0222,25.73471 6.477089,-0.13471 6.47709,-0.13471 -0.11826,-11.8 z m -8.988549,0.94259 c -0.303043,-0.76741 0.09586,-1.62737 1.023636,-2.20678 0.927708,-0.57936 1.520176,-0.63493 1.520176,-0.14258 0,0.44373 -0.333603,0.80677 -0.74134,0.80677 -0.407738,0 -0.868373,0.63 -1.023636,1.4 -0.244287,1.21151 -0.349148,1.23071 -0.778836,0.14259 z m 0.543812,-10.34259 c 0.271936,-0.44 0.653181,-0.8 0.847214,-0.8 0.194033,0 0.352786,0.36 0.352786,0.8 0,0.44 -0.381246,0.8 -0.847213,0.8 -0.465967,0 -0.624722,-0.36 -0.352787,-0.8 z m 8.4,-17.67489 c 0,-6.16383 0.04954,-6.32511 1.942857,-6.32511 2.921734,0 4.457143,2.04388 4.457143,5.93316 0,3.64586 -1.349797,5.48837 -4.6,6.27912 -1.751816,0.42621 -1.8,0.26862 -1.8,-5.88717 z m -7.6,3.27489 c -0.271935,-0.44 -0.134427,-0.8 0.305573,-0.8 0.44,0 1.022492,0.36 1.294427,0.8 0.271936,0.44 0.134428,0.8 -0.305572,0.8 -0.44,0 -1.022492,-0.36 -1.294428,-0.8 z m -3.169784,-15.95111 c -0.231564,-0.37468 0.105377,-0.88323 0.74876,-1.13012 0.643381,-0.24689 1.359246,-0.14233 1.590809,0.23235 0.231564,0.37468 -0.105377,0.88323 -0.74876,1.13012 -0.643381,0.24688 -1.359246,0.14233 -1.590809,-0.23235 z m 114.369789,50.66023 c 3.00235,-0.7862 6.8,-3.07096 6.8,-4.09104 0,-0.55994 0.30301,-1.01808 0.67336,-1.01808 2.23786,0 3.60773,-21.05233 1.69691,-26.07819 -0.57297,-1.50703 -0.57297,-2.43911 0,-3.01208 1.94585,-1.94585 0.38786,-13.02945 -2.2479,-15.99163 -3.16722,-3.55947 -6.56552,-4.1318 -22.82365,-3.84386 l -7.10127,0.12576 0.44164,27.4 c 0.2429,15.07 0.46847,27.51966 0.50127,27.6659 0.0874,0.38953 20.17779,-0.66398 22.05964,-1.15678 z m -9.2,-10.1826 c 0,-0.59043 -0.09,-8.42043 -0.2,-17.4 l -0.2,-16.32652 2,-0.20724 c 4.28465,-0.44397 4.4,0.0123 4.4,17.40704 0,13.40356 -0.19839,16.18376 -1.2,16.81702 -1.77894,1.1247 -4.8,0.94199 -4.8,-0.2903 z m -8,-22.12652 c 0,-0.44 0.81,-0.79448 1.8,-0.78775 1.45555,0.01 1.57036,0.16066 0.6,0.78775 -1.55101,1.00234 -2.4,1.00234 -2.4,0 z m 52.50708,19 c -0.23044,-8.03 -0.43881,-15.08851 -0.46304,-15.68559 -0.0242,-0.59707 -0.5433,-0.89401 -1.1535,-0.65985 -0.78937,0.30291 -0.98815,-0.0381 -0.68901,-1.18204 0.2837,-1.08484 0.61202,-1.2978 1.00946,-0.65473 1.06225,1.71877 1.24074,-0.28098 0.94769,-10.61779 l -0.28917,-10.2 h -6.38262 -6.38261 l 0.21111,22.6 c 0.1161,12.43 0.35238,24.49 0.52506,26.8 l 0.31397,4.2 h 6.38582 6.38584 z m 35.81127,13.30406 c 2.46132,-0.83866 4.10949,-1.9678 4.67093,-3.2 0.47714,-1.04723 1.27744,-1.90406 1.77842,-1.90406 0.50098,0 1.38087,-1.29975 1.9553,-2.88832 1.19954,-3.31726 1.27632,-24.76716 0.11768,-32.87711 -0.75202,-5.26382 -3.02076,-10.09014 -4.47992,-9.53021 -0.48158,0.1848 -1.28176,-0.3144 -1.7782,-1.10932 -1.41997,-2.27372 -8.28307,-3.41317 -13.901,-2.30791 -4.91831,0.96762 -5.3045,1.29431 -3.68156,3.11429 0.85033,0.95358 0.79107,0.96337 -0.396,0.0654 -2.04681,-1.54838 -4.91857,0.60864 -6.57107,4.93562 -1.11568,2.92137 -1.28595,6.16755 -1.07885,20.56739 0.18394,12.78912 0.49795,17.18232 1.24592,17.43103 0.55,0.18288 1,0.95976 1,1.72639 0,0.76663 0.81256,2.15725 1.80571,3.09026 4.40093,4.13446 12.22029,5.30319 19.31264,2.88658 z m -10.20766,-3.10406 c -0.27768,-0.72364 -0.004,-1.2 0.68931,-1.2 0.69336,0 0.96698,0.47636 0.6893,1.2 -0.25327,0.66 -0.56346,1.2 -0.6893,1.2 -0.12585,0 -0.43604,-0.54 -0.68931,-1.2 z m 0.28474,-7.60854 c -0.55453,-1.03614 -0.77806,-7.15706 -0.62815,-17.20086 0.128,-8.57576 -0.0373,-15.59192 -0.36728,-15.59145 -0.33,4.7e-4 -0.6,-0.27174 -0.6,-0.60491 0,-0.33317 1.56837,-0.48103 3.48528,-0.32857 l 3.48527,0.2772 0.51473,7.25146 c 0.85618,12.062 0.62878,25.77161 -0.44528,26.84567 -1.49024,1.49024 -4.49125,1.13277 -5.44457,-0.64854 z m 13.27185,-13.30461 c -0.42134,-1.09798 -0.30428,-1.14747 0.7144,-0.30205 1.3882,1.15211 1.53268,1.6152 0.50391,1.6152 -0.39293,0 -0.94117,-0.59092 -1.21831,-1.31315 z m -17.26728,-18.68685 c 0,-0.44 0.33875,-0.8 0.75278,-0.8 0.41403,0 0.97528,0.36 1.24722,0.8 0.27193,0.44 -0.0668,0.8 -0.75279,0.8 -0.68597,0 -1.24721,-0.36 -1.24721,-0.8 z m -86.46848,19.2 c 0.0242,-2.42 -0.305,-4.94 -0.73152,-5.6 -0.55733,-0.8624 -0.77895,-0.0634 -0.78776,2.84 -0.006,2.222 -0.37232,4.40008 -0.8124,4.84016 -0.53356,0.53356 -0.46692,1.50766 0.2,2.92351 0.84557,1.79514 1.0842,1.91258 1.54392,0.75983 0.29908,-0.74992 0.56357,-3.3435 0.58776,-5.7635 z m 0.0122,-15.8 c -0.0423,-2.85916 -0.22645,-3.40386 -0.74377,-2.2 -0.96099,2.23632 -0.96099,6 0,6 0.44,0 0.77469,-1.71 0.74377,-3.8 z m -46.400005,-3.24721 c -0.0392,-3.73226 -0.264376,-4.86839 -0.743768,-3.75279 -0.987376,2.29775 -0.987376,10.21024 0,9.6 0.44,-0.27193 0.774696,-2.90318 0.743768,-5.84721 z m 160.056245,-4.90557 c 0,-0.41403 -0.36,-0.97528 -0.8,-1.24722 -0.44,-0.27193 -0.8,0.0668 -0.8,0.75279 0,0.68597 0.36,1.24721 0.8,1.24721 0.44,0 0.8,-0.33875 0.8,-0.75278 z m -1.07607,-5.21271 c -0.26054,-0.67898 -0.85769,-1.23451 -1.32697,-1.23451 -0.59165,0 -0.57948,0.51157 0.0397,1.66852 0.99304,1.85552 2.03148,1.5054 1.28726,-0.43401 z m -70.51781,-0.42459 c -0.19694,-0.31867 -0.72549,-1.54575 -1.17454,-2.72685 -0.69965,-1.84021 -1.04646,-2.02436 -2.42402,-1.28711 -1.27422,0.68193 -1.60756,0.6143 -1.60756,-0.3262 0,-0.96709 -0.43745,-1.03403 -2.36544,-0.36193 -1.98258,0.69113 -2.22516,1.04918 -1.49882,2.21225 0.47662,0.7632 1.63107,1.7234 2.56542,2.13378 2.04838,0.89966 7.00873,1.17118 6.50496,0.35606 z m 32.39388,-4.96916 c 0,-0.3742 -0.90923,-1.02604 -2.02051,-1.44855 -1.11127,-0.42251 -2.22106,-1.29086 -2.4662,-1.92969 -0.24514,-0.63882 -0.98011,-0.95642 -1.63328,-0.70578 -0.84157,0.32294 -0.93882,0.70446 -0.33379,1.30949 0.46958,0.46957 0.85378,1.52544 0.85378,2.34637 0,0.82092 0.39077,2.22276 0.86839,3.1152 0.86365,1.61374 0.87894,1.61269 2.8,-0.19204 1.06238,-0.99807 1.93161,-2.12081 1.93161,-2.495 z m -70.41225,2.75924 c -0.0224,-1.09493 -1.49305,-2.96137 -1.96309,-2.49133 -0.6302,0.6302 0.37367,3.09133 1.26093,3.09133 0.39292,0 0.70889,-0.27 0.70216,-0.6 z m 15.21225,-0.2 c 0,-0.44 -0.38125,-0.8 -0.84722,-0.8 -0.46597,0 -0.62472,0.36 -0.35278,0.8 0.27193,0.44 0.65318,0.8 0.84721,0.8 0.19403,0 0.35279,-0.36 0.35279,-0.8 z m -55.64,-3.2566 c 0.47877,-0.46832 0.40476,-1.09863 -0.2,-1.7034 -0.70952,-0.70952 -1.19417,-0.72583 -1.85749,-0.0625 -1.24299,1.24296 -3.10251,0.36604 -3.10251,-1.46311 0,-0.83292 -0.39852,-1.51441 -0.8856,-1.51441 -0.48707,0 -0.66553,0.57345 -0.39658,1.27432 0.26895,0.70088 0.71339,2.16838 0.98765,3.26112 0.42059,1.67576 0.82707,1.90574 2.59659,1.46906 1.15386,-0.28474 2.43994,-0.85224 2.85794,-1.2611 z m 49.6184,0.0915 c 0.26006,-0.42078 1.09131,-0.57065 1.84722,-0.33303 1.27123,0.3996 0.90851,0.0258 -3.59186,-3.70163 -0.53143,-0.44015 -1.70143,-0.80028 -2.6,-0.80028 -1.53192,0 -2.03914,-1.13814 -1.69348,-3.8 0.0714,-0.55 -0.19793,-1 -0.59856,-1 -0.8888,0 -4.27703,7.93386 -3.75143,8.78431 0.20639,0.33393 1.913,0.31239 3.79247,-0.0478 2.63847,-0.50575 3.59862,-0.39083 4.21315,0.50427 0.92322,1.34474 1.71416,1.47562 2.38249,0.39423 z m -64.378405,-2.08215 c 0,-0.63403 -0.54,-1.15279 -1.2,-1.15279 -1.345856,0 -1.400384,0.14695 -0.716176,1.92998 0.562,1.46454 1.916176,0.9153 1.916176,-0.77719 z m 39.841475,-1.07721 c 0.14405,-0.43213 0.71207,-0.61294 1.26229,-0.40181 0.9256,0.35519 1.91589,-0.45361 6.64916,-5.43059 0.9641,-1.01374 2.15768,-2.91864 2.6524,-4.23309 1.7121,-4.54902 0.73848,-36.564726 -1.31344,-43.189902 -0.64078,-2.06892 -3.55236,-6.22638 -4.02764,-5.751096 -0.19867,0.198672 -1.18125,-0.45882 -2.18352,-1.461085 -1.6887,-1.688703 -2.36478,-1.798892 -9.22204,-1.503013 -8.45755,0.364929 -13.09278,2.040756 -16.34933,5.910954 -3.47823,4.13364 -3.85179,6.964216 -3.57064,27.055732 0.25552,18.2596 0.30111,18.70388 2.06575,20.13184 1.21354,0.982 1.47552,1.57755 0.8,1.81859 -2.22227,0.79295 4.35968,6.09149 9.79036,7.88134 2.58006,0.85035 13.10321,0.20246 13.44665,-0.82787 z m -11.22015,-3.87242 c -0.26496,-1.01319 0.0578,-1.4603 1.05408,-1.4603 1.16134,0 1.25824,0.23496 0.50665,1.22858 -0.51112,0.67571 -0.98545,1.33284 -1.05408,1.46029 -0.0686,0.12746 -0.29661,-0.4254 -0.50665,-1.22857 z m 0.94708,-7.84123 c -0.76603,-0.92301 -1.04544,-5.9101 -1.09796,-19.59689 -0.0387,-10.09734 -0.34044,-18.360204 -0.67044,-18.361916 -0.33,-0.0016 -0.60023,-0.27312 -0.6005,-0.60312 -2.7e-4,-0.33 1.7827,-0.4764 3.96218,-0.325344 l 3.96267,0.274664 0.44619,3.325336 c 0.2454,1.828944 0.53242,10.44606 0.63782,19.14914 0.16153,13.33775 0.003,15.94383 -1.00836,16.58776 -1.811,1.15292 -4.47836,0.93995 -5.6316,-0.44963 z m 14.89888,-16.07508 c -0.42134,-1.09798 -0.30428,-1.14747 0.7144,-0.30205 1.3882,1.15211 1.53268,1.6152 0.50391,1.6152 -0.39293,0 -0.94117,-0.59092 -1.21831,-1.31315 z m 2.73272,0.19875 c 0,-0.17293 0.55869,-0.5288 1.24155,-0.79084 0.71193,-0.2732 1.03305,-0.13908 0.75278,0.3144 -0.46981,0.76017 -1.99433,1.12436 -1.99433,0.47644 z M 118.48465,94.579938 c -1.28576,-0.467512 -1.32385,-0.664824 -0.29343,-1.52 0.95809,-0.795136 1.28192,-0.727912 1.69639,0.352176 0.64164,1.672088 0.44166,1.838544 -1.40296,1.167824 z m -2.92244,-9.70912 c 0,-0.465968 0.36,-0.62472 0.8,-0.352784 0.44,0.271936 0.8,0.653184 0.8,0.847216 0,0.194032 -0.36,0.352784 -0.8,0.352784 -0.44,0 -0.8,-0.381248 -0.8,-0.847216 z m 73.17622,56.058732 c 2.82583,-1.36796 3.48059,-2.02011 2.82334,-2.81204 -0.64657,-0.77908 -0.50669,-1.00276 0.57237,-0.91527 3.11383,0.25247 5.99763,-10.46514 4.69056,-17.43242 l -0.52948,-2.82239 -6.75905,0.0496 c -6.38906,0.0469 -9.21958,0.93972 -6.40425,2.02007 0.9764,0.37468 1.06037,0.74171 0.36218,1.58298 -0.49992,0.60237 -0.97201,2.68054 -1.04908,4.61815 -0.17112,4.3018 -1.33875,5.83788 -4.73942,6.23488 -1.89145,0.22082 -2.63664,-0.0289 -2.73294,-0.91575 -0.0728,-0.67064 -0.31087,-8.23934 -0.529,-16.81934 -0.46488,-18.285898 0.22272,-23.642234 3.10573,-24.193354 3.0939,-0.59144 3.80255,0.49592 4.372,6.70848 0.29667,3.23668 0.51722,6.064874 0.49011,6.284874 -0.0271,0.22 3.32407,0.47596 7.44707,0.56879 l 7.49636,0.1688 -0.33322,-6.9696 c -0.57806,-12.090792 -5.52366,-17.589872 -16.51937,-18.368149 -9.66443,-0.68405 -16.31897,2.752084 -19.44269,10.039413 -1.8799,4.38564 -2.07008,12.160756 -0.29744,12.160756 0.66,0 1.2,0.36 1.2,0.8 0,0.44 -0.56861,0.8 -1.26358,0.8 -1.11715,0 -1.22885,1.73812 -0.96392,15 0.3265,16.34384 0.64592,17.6718 5.31915,22.1143 4.88182,4.64078 16.33525,5.65496 23.68457,2.09722 z M 164.76221,89.718034 c 0.27193,-0.44 0.65318,-0.8 0.84721,-0.8 0.19403,0 0.35279,0.36 0.35279,0.8 0,0.44 -0.38125,0.8 -0.84722,0.8 -0.46597,0 -0.62472,-0.36 -0.35278,-0.8 z m 16.25,-3.746488 c 0.57749,-0.231096 1.26749,-0.20268 1.53333,0.06312 0.26583,0.26584 -0.20667,0.454912 -1.05,0.420176 -0.93196,-0.0384 -1.12152,-0.227952 -0.48333,-0.483328 z m 37.80259,56.518344 c 1.08893,-0.58278 1.54741,-0.57039 1.54741,0.0418 0,0.54684 1.55993,0.78014 4.2,0.62814 l 4.2,-0.2418 -0.20992,-8.8 c -0.15537,-6.51361 0.0894,-9.31964 0.94215,-10.8 1.09571,-1.90218 1.17813,-1.92174 1.6849,-0.4 1.64242,4.9318 2.2059,6.5561 2.77525,8 0.347,0.88 1.27903,3.88752 2.07118,6.6834 1.51113,5.33352 2.78444,6.5711 5.20532,5.05924 0.80132,-0.50044 1.64998,-0.59753 1.88592,-0.21577 0.23594,0.38176 2.50263,0.60308 5.03709,0.49182 4.02439,-0.17665 4.57315,-0.39332 4.33209,-1.71049 -0.15181,-0.82951 -0.56037,-1.8682 -0.9079,-2.3082 -0.34753,-0.44 -1.96704,-4.4 -3.59889,-8.8 -1.63186,-4.4 -4.19423,-11.29228 -5.69415,-15.31617 l -2.72714,-7.31617 3.1101,-6.68383 c 6.64188,-14.273922 8.12855,-17.839889 7.79734,-18.703008 -0.18886,-0.492158 -1.72938,-0.817756 -3.42336,-0.723552 -1.69399,0.0942 -4.96313,0.209854 -7.26474,0.257002 -3.87533,0.07938 -4.22362,0.248396 -4.71032,2.285724 -0.28904,1.21 -0.78457,2.56 -1.10117,3 -0.31659,0.44 -1.5756,4.1036 -2.79779,8.141336 -2.08804,6.898188 -2.24896,10.597708 -0.41161,9.462158 0.4431,-0.27385 0.80565,-0.11668 0.80565,0.34929 0,0.46597 -0.54,0.84722 -1.2,0.84722 -0.66,0 -1.2,-0.38125 -1.2,-0.84722 0,-0.46597 -0.36,-0.62472 -0.8,-0.35278 -0.50896,0.31456 -0.8,-1.93836 -0.8,-6.192788 0,-4.241848 -0.36568,-7.081184 -1,-7.764576 -0.80344,-0.865592 -0.79472,-0.961 0.0444,-0.485352 0.81451,0.461704 0.9906,-0.34888 0.8,-3.682632 l -0.2444,-4.274688 -5.2,0.138567 c -2.86,0.07621 -5.95446,0.166211 -6.87657,0.2 -1.47309,0.05398 -1.69402,0.59546 -1.82035,4.461433 -0.0791,2.42 0.18339,4.4 0.58326,4.4 0.39987,0 0.91533,0.72 1.14546,1.6 0.23012,0.88 0.15211,1.6 -0.17336,1.6 -1.051,0 -1.1508,2.4534 -0.97642,23.999996 0.19671,24.30639 0.61112,26.30496 4.97057,23.97186 z m 15.94741,-12.6739 c 0,-0.38612 0.50795,-1.1236 1.12877,-1.63884 0.85528,-0.70983 1.26779,-0.71189 1.7025,-0.008 0.31554,0.51055 0.0776,1.24252 -0.52878,1.62659 -1.41942,0.89905 -2.30249,0.90701 -2.30249,0.0208 z m 6.4,-1.67285 c 0,-0.42619 0.54,-0.56767 1.2,-0.31441 0.66,0.25327 1.2,0.60197 1.2,0.7749 0,0.17292 -0.54,0.3144 -1.2,0.3144 -0.66,0 -1.2,-0.3487 -1.2,-0.77489 z m -21.6,-2.47232 c 0,-0.46597 0.36,-0.62472 0.8,-0.35279 0.44,0.27194 0.8,0.65319 0.8,0.84722 0,0.19403 -0.36,0.35278 -0.8,0.35278 -0.44,0 -0.8,-0.38124 -0.8,-0.84721 z m 20.8,-2.4 c 0,-0.46597 0.36,-0.62472 0.8,-0.35279 0.44,0.27194 0.8,0.65319 0.8,0.84722 0,0.19403 -0.36,0.35278 -0.8,0.35278 -0.44,0 -0.8,-0.38124 -0.8,-0.84721 z m -168.800005,4.87893 v -13.63172 h 2.381558 c 3.889383,0 4.680186,2.19514 4.899439,13.6 0.236593,12.30684 0.583096,13.4876 3.881883,13.2281 2.44212,-0.19211 4.498,-1.2281 2.43712,-1.2281 -0.586664,0 -0.881144,-0.18552 -0.654384,-0.41228 0.226752,-0.22675 1.631704,0.10045 3.122104,0.72712 1.849112,0.77749 3.163328,0.89669 4.137592,0.37528 0.785264,-0.42026 1.70508,-0.59271 2.044032,-0.38323 0.338952,0.20948 0.47212,-0.85387 0.295936,-2.36301 -0.321592,-2.75468 -1.293072,-3.61032 -1.979976,-1.74388 -0.202424,0.55 -0.64028,-0.0252 -0.973024,-1.2782 -0.39468,-1.48624 -0.05424,-4.34223 0.979408,-8.2157 2.494152,-9.34678 0.749336,-16.0548 -4.717984,-18.13856 -0.748872,-0.28542 -0.531656,-0.7868 0.750864,-1.73313 0.992512,-0.73234 2.295768,-2.29968 2.89612,-3.48297 1.59328,-3.14036 2.339264,-9.408268 1.3416,-11.27242 -0.504264,-0.942224 -0.548464,-1.766176 -0.10932,-2.037584 0.652344,-0.403176 -0.156512,-2.84292 -2.268152,-6.841432 -0.348552,-0.66 -1.855728,-1.92 -3.349272,-2.8 -2.397224,-1.412443 -4.344304,-1.62031 -16.610124,-1.773264 l -13.894582,-0.173264 0.526664,30.901564 c 0.289665,16.99587 0.684946,31.15768 0.878402,31.47069 0.193456,0.31303 3.419019,0.62955 7.167917,0.70341 l 6.816179,0.13428 z m -11.133333,-0.24024 c 0.183333,-0.11469 1.169966,-0.91459 2.192517,-1.77755 1.371172,-1.15717 1.791151,-1.25993 1.6,-0.39148 -0.315521,1.43351 -1.473627,2.34889 -2.992517,2.36531 -0.623333,0.006 -0.983333,-0.0816 -0.8,-0.19628 z m 1.133333,-10.19148 c 0.271936,-0.44 0.653181,-0.8 0.847214,-0.8 0.194033,0 0.352786,0.36 0.352786,0.8 0,0.44 -0.381246,0.8 -0.847213,0.8 -0.465967,0 -0.624722,-0.36 -0.352787,-0.8 z m 7.251435,-13.0345 c 0.300425,-0.78898 0.747753,-1.23298 0.994063,-0.98666 0.24631,0.24631 5.07e-4,0.89183 -0.546227,1.4345 -0.790093,0.78421 -0.881984,0.69232 -0.447836,-0.44784 z m 2.431972,-1.83662 c -0.265874,-0.69285 -0.483407,-3.930292 -0.483407,-7.194308 0,-6.36716 0.203303,-6.608864 4.573505,-5.437264 1.968785,0.5278 2.502311,1.700328 2.986003,6.562336 0.378059,3.800196 -1.118722,6.090876 -4.476101,6.850246 -1.505026,0.34041 -2.256268,0.11474 -2.6,-0.78101 z m -8.483407,-1.92888 c -1.034149,-0.66832 -1.013033,-0.77719 0.152787,-0.78775 0.744033,-0.006 1.575278,0.34775 1.847213,0.78775 0.625746,1.01248 -0.433302,1.01248 -2,0 z m 0,-7.247212 c 0,-0.465968 0.36,-0.62472 0.8,-0.352784 0.44,0.271936 0.8,0.653184 0.8,0.847216 0,0.194032 -0.36,0.352784 -0.8,0.352784 -0.44,0 -0.8,-0.381248 -0.8,-0.847216 z m 7.6,-9.552784 c -0.271935,-0.44 -0.11318,-0.8 0.352787,-0.8 0.465967,0 0.847213,0.36 0.847213,0.8 0,0.44 -0.158753,0.8 -0.352786,0.8 -0.194033,0 -0.575278,-0.36 -0.847214,-0.8 z M 59.174776,82.538373 c -0.646491,-1.046044 1.194761,-1.933007 2.110909,-1.016859 0.512091,0.512091 0.358047,0.947548 -0.444086,1.255355 -0.675484,0.259208 -1.425555,0.151885 -1.666823,-0.238496 z"
       style="fill:#000000;stroke-width:0.8" /><path
       id="path2522"
       d="m 61.684507,141.3431 c -1.960448,-0.121 -3.666459,-0.322 -3.791136,-0.44668 -0.340645,-0.34064 -0.61855,-9.21041 -0.997153,-31.82565 C 56.70831,97.846378 56.480793,86.405302 56.390625,83.646162 l -0.163942,-5.01662 11.472004,0.213883 c 16.163302,0.301347 17.630528,0.530303 20.803602,3.246337 1.94036,1.660877 3.582065,5.219861 3.688813,7.996833 0.04348,1.13114 0.173895,3.098587 0.289809,4.372104 0.408704,4.490313 -0.902799,8.608511 -3.690597,11.588671 -1.736792,1.85664 -2.241164,2.707 -1.605592,2.707 0.144186,0 0.909407,0.42872 1.700487,0.95271 4.015005,2.65943 5.044957,8.20778 3.134111,16.88345 -1.239746,5.62873 -1.391243,6.91111 -0.991733,8.39478 0.413567,1.53586 0.854788,1.87192 1.43178,1.0905 0.670534,-0.90808 1.202721,-0.10906 1.3581,2.03904 l 0.1333,1.84284 -1.900215,0.57534 -1.900212,0.57534 -2.407694,-0.83145 c -1.324233,-0.45731 -2.620009,-0.83146 -2.879501,-0.83146 -0.632021,0 -0.599579,0.52986 0.05487,0.8961 0.4095,0.22917 0.158651,0.37367 -1.127538,0.64951 -2.105446,0.45154 -3.097061,0.19625 -3.689763,-0.94991 -0.592397,-1.14557 -1.068598,-5.93007 -1.082764,-10.8788 -0.01476,-5.15731 -0.532429,-10.63859 -1.150657,-12.18369 -0.79373,-1.98373 -1.715798,-2.52904 -4.276321,-2.52904 h -2.172151 v 13.60532 13.60533 l -3.08493,-0.0486 c -1.696711,-0.0267 -4.688932,-0.14759 -6.649381,-0.26858 z m 1.903336,-14.26513 c 0.884948,-0.9473 1.100629,-1.69083 0.583232,-2.0106 -0.401031,-0.24785 -3.880597,2.64386 -3.643313,3.02779 0.340346,0.55069 2.160661,-0.0544 3.060081,-1.01719 z m -0.826326,-8.98971 c 0.100168,-0.26103 0.09273,-0.70756 -0.01653,-0.99228 -0.181023,-0.47174 -0.254213,-0.46739 -0.824859,0.049 -0.344416,0.31169 -0.62621,0.75822 -0.62621,0.99228 0,0.58197 1.241369,0.54049 1.467595,-0.049 z m 7.107192,-13.50674 c 0.428954,-0.80151 0.05276,-1.35375 -0.570073,-0.83684 -0.565162,0.46904 -1.034113,1.57814 -0.820328,1.94013 0.183418,0.31057 0.966113,-0.31051 1.390401,-1.10329 z m 5.70476,-1.39025 c 1.0657,-0.54516 2.432591,-2.16703 2.689698,-3.191421 0.328459,-1.308686 -0.07691,-6.504499 -0.60487,-7.752924 -0.619556,-1.465013 -1.529838,-2.061751 -3.858411,-2.529396 -1.732561,-0.347948 -1.878898,-0.329661 -2.387422,0.29834 -0.740165,0.914065 -1.004533,4.67764 -0.65907,9.382589 0.228726,3.115072 0.38022,3.850252 0.8668,4.206452 0.66677,0.48812 2.582288,0.28769 3.953275,-0.41364 z m -10.482711,-1.83363 c 0,-0.64904 -0.752577,-1.15403 -2.028387,-1.361061 -1.450531,-0.235389 -1.501369,0.317631 -0.107334,1.167591 1.197417,0.73008 2.135721,0.81508 2.135721,0.19347 z m -0.632806,-7.239898 c 0,-0.219172 -0.301549,-0.586815 -0.67011,-0.816985 -0.77649,-0.484927 -1.424738,-0.06919 -1.12205,0.719607 0.225778,0.588367 1.79216,0.673476 1.79216,0.09738 z m 7.164395,-9.572229 c 0.215785,-0.562326 -0.408249,-1.419784 -1.033279,-1.419784 -0.536417,0 -0.573461,1.001452 -0.05618,1.518734 0.51053,0.51053 0.868039,0.478059 1.089459,-0.09895 z m -10.624028,-1.74732 c 1.219478,-0.652644 0.315273,-2.119648 -1.089202,-1.767147 -0.904022,0.226895 -1.300539,1.053132 -0.796733,1.660182 0.429993,0.51811 1.051806,0.553378 1.885935,0.106965 z"
       style="fill:#ffffff;fill-opacity:1;stroke:none;stroke-width:0.316403;stroke-opacity:1" /><path
       id="path2524"
       d="m 118.55678,142.82518 c -2.95091,-1.21412 -5.44534,-2.79835 -7.40697,-4.70419 -1.85131,-1.79866 -1.86827,-1.8312 -1.28838,-2.47198 0.57774,-0.63839 0.56797,-0.66946 -0.58069,-1.84579 -0.64257,-0.65805 -1.31772,-1.68669 -1.50032,-2.28585 -0.18638,-0.61156 -0.46135,-6.98766 -0.62688,-14.53652 -0.30571,-13.94185 -0.0649,-22.124777 0.74121,-25.183288 0.87834,-3.332689 3.59169,-6.706039 6.78987,-8.441445 2.4852,-1.348527 6.03972,-2.114367 11.63012,-2.505774 6.55091,-0.458655 7.59835,-0.296446 9.70669,1.503197 0.9053,0.772747 1.81773,1.404995 2.02763,1.404995 0.60721,0 2.26625,2.075658 3.3071,4.13757 1.71932,3.405956 2.48308,11.039549 2.73587,27.344525 0.26688,17.21379 0.1289,17.80995 -5.43745,23.49293 -2.79648,2.85508 -3.30535,3.24313 -4.25286,3.24313 -0.59196,0 -1.30283,0.20501 -1.5797,0.45558 -0.75391,0.68228 -4.12871,1.12227 -8.5639,1.11653 -3.38121,-0.004 -4.20841,-0.10936 -5.70134,-0.72362 z m 4.67303,-3.8538 c 0.95626,-1.4763 0.90132,-1.74074 -0.36165,-1.74074 -1.10235,0 -1.57226,0.51885 -1.28954,1.42381 l 0.29655,0.94921 c 0.22813,0.73026 0.57777,0.56706 1.35464,-0.63228 z m 4.48412,-7.15842 c 0.61484,-0.21433 1.14817,-0.68494 1.34464,-1.18651 1.01099,-2.58092 0.31008,-37.433212 -0.77463,-38.51792 -0.20942,-0.209419 -7.77068,-0.277533 -7.97804,-0.07187 -0.11637,0.115417 0.0297,0.578091 0.3246,1.028164 0.47714,0.728216 0.56645,2.638547 0.81115,17.350516 0.15124,9.09271 0.41884,17.38649 0.59468,18.43062 0.17584,1.04413 0.32053,1.93611 0.32154,1.98217 10e-4,0.0461 0.46457,0.36589 1.03014,0.71072 1.15146,0.70206 2.79886,0.80645 4.32592,0.27411 z m 11.92156,-15.83282 c 0.23058,-0.37308 -1.50184,-2.16332 -2.09344,-2.16332 -0.5166,0 -0.35176,0.81257 0.34436,1.69755 0.69807,0.88745 1.37677,1.06818 1.74908,0.46577 z m 2.362,-0.90884 c 0.54149,-0.2898 0.88265,-1.25448 0.44364,-1.25448 -0.6232,0 -2.3711,0.9963 -2.20876,1.25898 0.25594,0.41411 0.98641,0.41225 1.76512,-0.004 z M 120.29447,94.846567 c 0.2353,-0.380712 -0.64913,-2.545152 -1.03999,-2.545152 -0.43088,0 -1.95723,1.263554 -1.95723,1.620254 0,0.316107 1.75572,1.192715 2.43345,1.214989 0.20726,0.0068 0.46096,-0.12373 0.56377,-0.290091 z m -3.14685,-9.203474 c 0.28587,-0.462554 -0.44215,-1.251752 -1.15472,-1.251752 -0.67154,0 -0.7843,0.632408 -0.21438,1.202331 0.46752,0.467525 1.09666,0.490235 1.3691,0.04942 z"
       style="fill:#ffffff;fill-opacity:1;stroke:none;stroke-width:0.316403;stroke-opacity:1" /><path
       id="path2526"
       d="m 175.199,142.7413 c -5.06347,-0.9074 -7.85674,-2.10978 -10.488,-4.5146 -2.08647,-1.90691 -3.30915,-4.06186 -3.92573,-6.919 -0.5322,-2.46618 -1.25089,-21.03329 -0.98933,-25.55916 0.19004,-3.28829 0.3856,-3.95503 1.16004,-3.95503 0.30811,0 0.75024,-0.22898 0.98251,-0.50885 0.35881,-0.43233 0.33175,-0.57505 -0.17993,-0.94921 -0.33123,-0.2422 -0.77467,-0.440363 -0.98542,-0.440363 -1.07791,0 -1.38447,-4.037198 -0.61282,-8.070274 1.36514,-7.134938 5.82149,-11.707163 12.95507,-13.291914 1.9661,-0.436778 3.35991,-0.519548 6.48626,-0.385182 4.9731,0.213738 8.25134,1.163785 10.99378,3.186042 4.23299,3.121371 5.9612,7.777345 6.34348,17.089917 l 0.19449,4.738034 -6.60096,-0.21938 c -3.63053,-0.12066 -6.90298,-0.29519 -7.27212,-0.38784 -0.62134,-0.15594 -0.69991,-0.50685 -1.05853,-4.727635 -0.62461,-7.351283 -1.41541,-8.994146 -4.11025,-8.538856 -1.62292,0.27419 -2.4958,1.25233 -3.15021,3.530094 -0.47334,1.64753 -0.52565,3.671497 -0.46497,17.992897 0.0376,8.8751 0.17999,17.13322 0.31641,18.35137 l 0.24803,2.21483 h 2.27125 c 3.78507,0 4.63192,-1.01294 5.33687,-6.38361 0.24154,-1.84014 0.65746,-3.67888 0.92426,-4.08608 0.68454,-1.04473 0.60525,-1.55551 -0.3059,-1.97066 -0.92674,-0.42225 -1.01292,-0.84686 -0.2373,-1.16917 0.30453,-0.12655 3.30642,-0.38014 6.67085,-0.56353 5.00591,-0.27287 6.16413,-0.25742 6.37579,0.0851 0.53599,0.86724 1.0377,5.52023 0.8532,7.91274 -0.35962,4.66347 -1.8364,9.53644 -3.34823,11.04828 -0.36521,0.36521 -1.01157,0.66402 -1.43635,0.66402 -0.96343,0 -1.2539,0.43559 -0.82495,1.2371 0.41539,0.77615 -0.0995,1.33734 -2.20652,2.40506 -2.62421,1.32979 -5.88687,2.07622 -9.64333,2.20621 -1.91424,0.0662 -3.83639,0.0567 -4.27144,-0.0213 z m -9.23377,-53.052915 c 0.0706,-0.611543 -0.0428,-0.867402 -0.38437,-0.867402 -0.57294,0 -1.25678,1.136377 -0.96649,1.606072 0.38115,0.61672 1.2492,0.142057 1.35086,-0.73867 z m 16.59014,-3.556828 c -0.11753,-0.470112 -1.74427,-0.383331 -1.90594,0.101675 -0.10108,0.303234 0.15242,0.390149 0.92284,0.316403 0.58421,-0.05592 1.02661,-0.244056 0.9831,-0.418078 z"
       style="fill:#ffffff;fill-opacity:1;stroke:none;stroke-width:0.316403;stroke-opacity:1" /><path
       id="path2528"
       d="m 238.88125,142.84243 c -0.95021,-0.43643 -1.68428,-2.06736 -3.38029,-7.51021 -2.46129,-7.89879 -4.51456,-13.44712 -4.97637,-13.44712 -0.23632,0 -0.78562,0.7119 -1.22068,1.58201 -0.78896,1.57793 -0.79097,1.60508 -0.77624,10.5204 l 0.0148,8.93839 h -3.87498 c -3.35853,0 -3.91619,-0.0737 -4.18423,-0.55261 -0.27743,-0.49574 -0.41742,-0.50794 -1.36043,-0.11853 -0.57815,0.23875 -1.50139,0.50153 -2.05165,0.58397 -2.3496,0.35203 -2.57321,-1.34301 -2.95206,-22.37745 -0.33936,-18.84207 -0.16212,-24.894618 0.7588,-25.912227 0.66156,-0.73102 0.49681,-1.538793 -0.66413,-3.256231 -0.73987,-1.09452 -0.782,-1.375413 -0.68025,-4.534761 0.14055,-4.36431 0.0126,-4.265138 5.50138,-4.265138 2.2905,0 5.01832,-0.08924 6.06181,-0.198304 l 1.89726,-0.198303 0.21896,3.460296 c 0.24313,3.842277 0.12208,4.535044 -0.75243,4.306353 -0.56037,-0.146538 -0.55793,-0.09342 0.0523,1.140043 0.53693,1.085236 0.67921,2.231464 0.88278,7.112095 0.23912,5.733037 0.36138,6.526027 1.00616,6.526027 0.17936,0 0.5832,0.31749 0.89742,0.70553 0.48761,0.60218 0.70362,0.659 1.47453,0.38789 1.1865,-0.41727 1.21104,-1.27267 0.0342,-1.1922 -1.16677,0.0798 -1.39397,-0.89556 -0.87939,-3.77497 0.47899,-2.680282 2.59741,-9.803258 3.69409,-12.421002 0.43743,-1.04413 1.07727,-2.795166 1.42186,-3.891191 0.4472,-1.422367 0.82524,-2.068317 1.3207,-2.25669 0.94686,-0.359996 11.57713,-0.781009 12.82113,-0.507782 1.80961,0.397458 1.55921,1.14433 -5.54519,16.53943 l -4.26905,9.250965 4.97344,13.37185 c 2.73539,7.35452 5.53442,14.65328 6.22006,16.21948 1.98227,4.52802 2.00989,4.6272 1.41094,5.06517 -0.76762,0.5613 -5.15947,0.83463 -7.16885,0.44616 -2.42403,-0.46864 -2.8536,-0.45866 -4.11324,0.0956 -0.81974,0.36068 -1.29074,0.40304 -1.81317,0.16309 z m -1.86813,-12.91202 c 0.89374,-0.70302 1.06703,-1.51553 0.45399,-2.12858 -0.53135,-0.53135 -0.70811,-0.48845 -1.81086,0.43945 -1.22175,1.02804 -1.34819,2.3449 -0.22515,2.3449 0.41159,0 1.12349,-0.2951 1.58202,-0.65577 z m 6.52893,-1.3699 c 0,-0.56516 -1.9022,-1.26115 -2.31596,-0.84738 -0.16461,0.16461 -0.21366,0.52243 -0.10901,0.79516 0.24922,0.64945 2.42497,0.6963 2.42497,0.0522 z m -22.48496,-2.0683 c 0.37647,-0.23822 0.38338,-0.37285 0.0404,-0.78616 -0.58785,-0.70831 -1.60203,-0.64012 -1.60203,0.10772 0,0.52061 0.35018,0.86951 0.94921,0.94575 0.087,0.0111 0.36262,-0.10922 0.61246,-0.26731 z m 20.90294,-2.64542 c 0,-0.52912 -0.64156,-1.17069 -1.17069,-1.17069 -0.42585,0 -0.57194,0.99953 -0.20039,1.37108 0.37156,0.37156 1.37108,0.22547 1.37108,-0.20039 z"
       style="fill:#ffffff;fill-opacity:1;stroke:none;stroke-width:0.316403;stroke-opacity:1" /><path
       id="path2530"
       d="m 57.180683,178.59504 v -27.05246 l 0.711907,-0.196 c 1.518755,-0.41813 8.889527,-0.86726 14.475437,-0.88204 8.137754,-0.0215 11.402892,0.80536 13.572239,3.43715 1.808085,2.19352 2.70312,6.56152 2.51074,12.25305 -0.106713,3.15707 -0.210402,3.67426 -1.038595,5.18047 -0.506025,0.9203 -1.556282,2.25973 -2.333903,2.97652 l -1.413856,1.30324 1.797043,1.67256 c 3.0277,2.81797 3.418847,4.33942 3.977605,15.47184 0.353309,7.03916 0.606102,10.4241 0.842442,11.28049 0.115848,0.41978 -0.0918,0.52228 -1.053745,0.52017 -0.658912,-0.002 -1.909929,0.14635 -2.780037,0.32845 -0.870108,0.1821 -3.107605,0.33957 -4.972215,0.34994 -2.93842,0.0164 -3.430365,-0.0562 -3.6916,-0.54431 -0.464677,-0.86825 -0.9707,-6.20754 -1.271241,-13.41347 -0.367752,-8.81741 -0.826668,-9.73858 -4.856784,-9.74892 l -1.819317,-0.005 v 11.86511 11.86512 l -5.616154,0.004 c -3.088884,0.003 -5.936511,0.0902 -6.328059,0.19511 l -0.711907,0.19076 z m 4.746045,15.93817 c 0,-0.30901 0.441622,-0.95532 0.981382,-1.43625 1.163894,-1.03703 0.854598,-1.80646 -0.48146,-1.19771 -1.256164,0.57235 -1.929497,1.8306 -1.492667,2.78934 0.390302,0.85662 0.992745,0.76233 0.992745,-0.15538 z m 0.896548,-10.27123 c 0.18266,-0.9578 -0.538689,-1.42499 -1.07605,-0.69693 -0.249317,0.3378 -0.453304,0.81044 -0.453304,1.05032 0,0.66154 1.397377,0.33864 1.529354,-0.35339 z m 9.884766,-12.07714 c 0.752831,-0.26561 1.645129,-0.72835 1.982884,-1.02831 1.047998,-0.93071 1.775956,-2.94647 1.783391,-4.93831 0.01486,-3.98083 -1.310881,-5.89567 -4.250642,-6.13946 -1.654388,-0.1372 -1.756338,-0.10232 -2.06362,0.70589 -0.424784,1.11726 -0.421227,10.47605 0.0043,11.27112 0.395158,0.73836 0.763779,0.75707 2.543704,0.12907 z m -8.679367,-1.89412 c 0.238202,-0.62074 -0.432351,-1.41978 -1.19148,-1.41978 -0.765934,0 -0.794899,1.11719 -0.04036,1.55667 0.766289,0.44632 1.018809,0.41826 1.23184,-0.13689 z m -2.798034,-16.354 c 0.670632,-0.67063 0.455389,-1.51873 -0.385446,-1.51873 -0.420821,0 -0.990347,0.0864 -1.265612,0.19205 -0.504313,0.19352 -0.680662,1.10431 -0.289547,1.49543 0.343787,0.34378 1.531335,0.24052 1.940605,-0.16875 z"
       style="fill:#ffffff;fill-opacity:1;stroke:none;stroke-width:0.316403;stroke-opacity:1" /><path
       id="path2532"
       d="m 102.15594,206.81721 c -0.51194,-0.20505 -0.68287,-0.46024 -0.54643,-0.81579 0.42759,-1.11427 9.04328,-50.15016 9.04328,-51.46948 0,-0.46659 0.28476,-1.13311 0.63281,-1.48115 0.59962,-0.59962 1.05467,-0.6328 8.67865,-0.6328 h 8.04584 l 0.33352,1.66111 c 0.18344,0.91361 1.11628,5.71898 2.07299,10.6786 0.9567,4.95962 1.88457,9.51488 2.06193,10.12281 0.45418,1.55679 0.45277,1.56027 -0.86404,2.12743 l -1.18651,0.51103 1.05762,0.22987 c 0.58169,0.12642 1.16356,0.35193 1.29303,0.50112 0.32869,0.37878 3.13551,15.18179 3.51134,18.51866 0.16996,1.509 0.57498,3.36409 0.90004,4.12243 0.62136,1.44959 1.30624,4.26201 1.30624,5.36403 0,0.63809 -0.11809,0.64815 -6.31686,0.53813 -5.08444,-0.0902 -6.40933,-0.20471 -6.79077,-0.58672 -0.27514,-0.27553 -0.68206,-1.86128 -0.97017,-3.78064 -0.60681,-4.04255 -0.75521,-4.6549 -1.21968,-5.03286 -0.53179,-0.43273 -6.58445,0.18515 -7.12684,0.72754 -0.24869,0.24869 -0.63326,1.97429 -0.89665,4.02341 -0.25366,1.97337 -0.52341,3.90831 -0.59945,4.29986 -0.13752,0.70808 -0.16926,0.7118 -5.90659,0.69185 -3.17258,-0.0111 -6.10356,-0.15433 -6.5133,-0.31844 z m 3.58723,-5.03442 c 0.95125,-1.05112 -0.30947,-1.99364 -1.86717,-1.3959 -0.63835,0.24496 -0.63974,0.8891 -0.003,1.52556 0.66292,0.66293 1.18597,0.62667 1.87044,-0.12966 z m 7.24879,-1.13923 c 0.36476,-0.95055 0.21825,-3.04126 -0.20345,-2.90318 -0.49098,0.16076 -1.03395,2.20393 -0.7691,2.89411 0.24943,0.65002 0.72489,0.65446 0.97255,0.009 z m 9.21027,-15.55697 c -0.63834,-5.35166 -1.42454,-13.0403 -1.42454,-13.93122 0,-0.62354 0.1296,-0.97606 0.3164,-0.86062 0.17402,0.10756 0.3164,0.60928 0.3164,1.11496 0,0.98485 1.0372,1.88362 1.43359,1.24225 0.27812,-0.45 -1.11586,-3.23589 -2.77221,-5.54032 l -1.3508,-1.87933 -0.18668,5.69525 c -0.10267,3.13239 -0.33862,6.14655 -0.52433,6.69814 -0.18571,0.55159 -0.42793,2.11779 -0.53827,3.48044 -0.11035,1.36264 -0.27931,3.15385 -0.37548,3.98045 l -0.17484,1.50292 h 2.73001 2.73002 z m 2.05589,-1.81931 c 0,-0.7831 -0.14238,-1.42382 -0.3164,-1.42382 -0.17403,0 -0.31641,0.64072 -0.31641,1.42382 0,0.78309 0.14238,1.42381 0.31641,1.42381 0.17402,0 0.3164,-0.64072 0.3164,-1.42381 z m 1.74021,-4.74605 c 0,-0.45513 -0.2443,-0.66091 -0.8701,-0.73292 -0.67901,-0.0781 -0.87011,0.0319 -0.87011,0.50097 0,0.79718 0.31115,1.06932 1.09439,0.95721 0.40407,-0.0579 0.64582,-0.32933 0.64582,-0.72526 z m 2.31494,-2.45483 c 0.0646,-0.5598 -0.0486,-0.8674 -0.31939,-0.8674 -0.53332,0 -1.29013,1.18755 -1.02755,1.61241 0.37789,0.61143 1.24579,0.1314 1.34694,-0.74501 z"
       style="fill:#ffffff;fill-opacity:1;stroke:none;stroke-width:0.316403;stroke-opacity:1" /><path
       id="path2534"
       d="m 151.66763,203.94675 c -0.16673,-1.64691 -0.85001,-42.21506 -0.83776,-49.73988 l 0.006,-3.74816 11.15321,0.14713 c 12.05348,0.15901 13.43432,0.32365 16.17248,1.92832 2.5532,1.49627 3.91022,4.05021 4.81373,9.05951 0.65708,3.64302 0.57769,6.49748 -0.22693,8.15961 l -0.67702,1.39854 0.59792,2.57729 c 0.49105,2.11667 0.59712,3.8214 0.59345,9.53817 -0.006,9.13786 -0.90618,15.19571 -2.37519,15.9819 -0.34439,0.18431 -0.62617,0.52893 -0.62617,0.76581 0,1.21001 -4.39349,3.77036 -7.36148,4.28998 -1.67766,0.29371 -8.4085,0.75248 -16.57901,1.12999 l -4.48171,0.20708 z m 16.74088,-8.95726 c 0.63556,-0.26555 1.26525,-0.8328 1.49275,-1.34471 0.58955,-1.32656 0.56218,-29.83409 -0.0302,-31.50861 -0.64162,-1.81355 -1.52604,-2.24356 -4.05699,-1.97252 l -2.10646,0.22559 0.20866,9.9877 c 0.11477,5.49324 0.20867,13.1579 0.20867,17.03257 0,5.98256 0.075,7.11985 0.4972,7.54208 0.62242,0.62242 2.34617,0.63967 3.78641,0.0379 z m -9.94298,-22.49848 c 1.24762,-0.64516 1.00137,-1.25714 -0.48648,-1.20898 -1.33528,0.0432 -1.93644,0.4806 -1.65797,1.20628 0.24127,0.62874 0.93214,0.62962 2.14445,0.003 z"
       style="fill:#ffffff;fill-opacity:1;stroke:none;stroke-width:0.316403;stroke-opacity:1" /><path
       id="path2536"
       d="m 196.58287,204.54538 c -0.30181,-1.47341 -0.79805,-26.13201 -0.80866,-40.18318 l -0.009,-11.94421 h 6.12045 6.12046 l 0.2076,4.79635 c 0.28679,6.62577 0.26039,15.76984 -0.0455,15.76984 -0.13921,0 -0.42398,-0.17086 -0.6328,-0.37968 -0.49261,-0.49261 -0.88403,-0.0718 -1.1625,1.24979 -0.20688,0.98181 -0.17326,1.02831 0.74334,1.02831 0.84065,0 0.9791,0.12785 1.1136,1.02831 0.13377,0.89562 0.84405,25.27514 0.82963,28.47627 l -0.005,1.18651 h -6.13031 -6.1303 z"
       style="fill:#ffffff;fill-opacity:1;stroke:none;stroke-width:0.316403;stroke-opacity:1" /><path
       id="path2538"
       d="m 234.52456,205.35298 c -4.889,-0.64844 -9.84162,-3.69017 -10.65239,-6.54235 -0.20406,-0.71787 -0.64371,-1.61206 -0.977,-1.98708 -1.0115,-1.13817 -1.24726,-4.81134 -1.29653,-20.20074 -0.0457,-14.26308 -0.0324,-14.5997 0.66283,-16.81031 0.88807,-2.82381 2.4349,-5.10144 4.02504,-5.92664 l 1.22343,-0.63491 1.21339,0.66464 c 1.39232,0.76265 1.46264,0.69034 0.56058,-0.57649 -0.35905,-0.50424 -0.56538,-1.05828 -0.4585,-1.2312 0.28949,-0.46841 3.15346,-1.22723 5.98168,-1.58487 3.06954,-0.38816 7.60155,0.0619 9.62161,0.95546 0.77588,0.34321 1.96206,1.12214 2.63596,1.73096 0.67389,0.60883 1.48754,1.10695 1.80811,1.10695 1.83944,0 3.85294,5.52591 4.44554,12.20044 0.82661,9.31032 0.65617,25.56504 -0.30804,29.37723 -0.28752,1.13674 -0.82429,2.00434 -2.00374,3.23868 -0.88607,0.9273 -2.03817,2.19067 -2.56024,2.8075 -2.02388,2.39124 -8.90513,4.07809 -13.92173,3.41273 z m 1.35813,-4.52505 c -0.0642,-0.54952 -0.28586,-0.79129 -0.72532,-0.79129 -0.76759,0 -0.99976,1.07535 -0.45282,2.09732 0.36955,0.6905 0.3878,0.69262 0.82428,0.0957 0.2455,-0.33575 0.40474,-0.96653 0.35386,-1.40174 z m 4.21767,-6.22646 c 0.4677,-0.46771 0.67794,-1.40345 0.94975,-4.22722 0.40122,-4.1681 0.2042,-17.01373 -0.38384,-25.02556 l -0.38624,-5.26246 -3.03741,-0.21534 c -1.67059,-0.11844 -3.28592,-0.11999 -3.58965,-0.003 -0.63872,0.2451 -0.73685,0.97919 -0.15672,1.17241 0.30661,0.10212 0.43106,3.71711 0.55371,16.08382 0.16969,17.111 0.1485,16.90394 1.82727,17.84977 1.12258,0.63247 3.42113,0.43001 4.22313,-0.37198 z m 9.89696,-13.02428 c 0.21669,-0.3506 -1.951,-2.44505 -2.2358,-2.16025 -0.40853,0.40853 0.79901,2.42652 1.45199,2.42652 0.34059,0 0.69331,-0.11982 0.78381,-0.26627 z m -16.98039,-19.56785 c 0.0677,-0.20643 -0.25022,-0.61995 -0.70652,-0.91893 -0.7554,-0.49496 -0.87427,-0.49896 -1.32852,-0.0447 -0.77745,0.77744 -0.28711,1.55603 0.90581,1.43828 0.55336,-0.0546 1.06152,-0.26821 1.12923,-0.47465 z"
       style="fill:#ffffff;fill-opacity:1;stroke:none;stroke-width:0.316403;stroke-opacity:1" /><path
       id="path2540"
       d="m 158.86447,247.75355 c -2.59718,-0.50959 -3.29881,-5.14945 -1.07944,-7.13823 2.49286,-2.23384 7.05896,-0.16474 7.05896,3.19873 0,2.70591 -2.81486,4.56043 -5.97952,3.9395 z"
       style="fill:#ffffff;fill-opacity:1;stroke:none;stroke-width:0.316403;stroke-opacity:1" /><path
       id="path2542"
       d="m 177.01703,247.33193 c -3.28587,-0.83017 -6.18914,-3.23741 -6.93415,-5.74947 -0.29346,-0.98949 -0.40643,-4.3952 -0.41253,-12.43675 l -0.008,-11.0741 0.94921,-1.72897 c 1.75907,-3.20411 4.80644,-4.75729 9.33389,-4.75729 7.20131,0 10.74469,3.99008 10.75531,12.11122 l 0.002,1.82813 -2.13572,-0.17874 c -1.17465,-0.0983 -3.00379,-0.25364 -4.06475,-0.3452 l -1.92904,-0.16647 -0.34647,-2.81403 c -0.39432,-3.20256 -0.76443,-4.10685 -1.68085,-4.10685 -2.24574,0 -2.65503,1.82813 -2.65643,11.86511 -0.001,8.63147 0.31111,10.78367 1.61229,11.11024 0.41704,0.10467 0.97857,0.10577 1.24785,0.002 0.75173,-0.28847 1.41024,-2.20393 1.41024,-4.1021 0,-0.94096 0.089,-2.15577 0.19775,-2.69959 l 0.19775,-0.98876 h 4.12109 4.12109 l -0.18815,3.40133 c -0.22562,4.07859 -0.80291,5.89846 -2.47289,7.79566 -1.8421,2.09273 -4.09407,3.08459 -7.3164,3.22242 -1.4384,0.0615 -3.14979,-0.0232 -3.80308,-0.18823 z"
       style="fill:#ffffff;fill-opacity:1;stroke:none;stroke-width:0.316403;stroke-opacity:1" /><path
       id="path2544"
       d="m 205.41549,246.89893 c -3.56844,-0.95219 -5.59126,-2.3913 -6.66844,-4.74417 -1.89354,-4.13602 -1.55238,-22.43596 0.493,-26.44524 1.51017,-2.96018 4.63271,-4.33183 9.17075,-4.02847 5.35418,0.35792 7.68113,1.96695 9.03805,6.2496 0.4105,1.29558 0.58427,3.27515 0.70054,7.98035 0.24565,9.94036 -0.67548,15.99137 -2.80322,18.41472 -2.05775,2.34366 -6.48843,3.49172 -9.93068,2.57321 z m 1.36573,-2.64497 c -0.0717,-0.62301 -0.3023,-0.89883 -0.81203,-0.97122 -0.84483,-0.11999 -0.92895,0.44425 -0.18826,1.2627 0.74581,0.82412 1.11623,0.71618 1.00029,-0.29148 z m 2.9057,-5.61613 c 0.23629,-1.13818 0.3264,-4.73093 0.25994,-10.36318 -0.11955,-10.13109 -0.25466,-10.66128 -2.71989,-10.6728 -0.82334,-0.004 -1.09951,0.16183 -1.34471,0.80676 -0.64108,1.68617 -0.11377,19.19415 0.63761,21.17044 0.35854,0.94302 1.4998,1.48445 2.27431,1.07897 0.3124,-0.16355 0.67999,-0.99538 0.89274,-2.02019 z"
       style="fill:#ffffff;fill-opacity:1;stroke:none;stroke-width:0.316403;stroke-opacity:1" /><path
       id="path2546"
       d="m 226.13052,236.02748 c -0.009,-9.97729 -0.35528,-19.79655 -0.80892,-22.93922 l -0.21694,-1.50291 h 6.66048 6.66047 l 0.19018,2.45212 c 0.3283,4.23299 1.91459,13.32113 2.26412,12.9716 0.0605,-0.0605 0.40257,-3.06919 0.76009,-6.68591 0.35752,-3.61672 0.84677,-7.04671 1.08722,-7.62219 0.59625,-1.42704 1.53694,-1.66258 7.66713,-1.91977 l 5.11209,-0.21447 0.16728,16.09215 c 0.092,8.85069 0.29074,16.91085 0.44163,17.91148 l 0.27437,1.81932 h -4.36722 -4.36721 v -11.23231 c 0,-6.90793 -0.11609,-11.23231 -0.30153,-11.23231 -0.48243,0 -0.91598,1.98461 -1.76257,8.06828 -1.67105,12.00831 -1.99637,13.43275 -3.17073,13.88339 -0.2817,0.1081 -1.33663,0.19654 -2.34428,0.19654 h -1.8321 l -0.20546,-1.34471 c -0.56401,-3.69143 -3.45534,-18.46283 -3.65649,-18.68049 -0.25048,-0.27106 -0.64857,9.72098 -0.64857,16.27925 v 4.06236 h -3.79684 -3.79684 z"
       style="fill:#ffffff;fill-opacity:1;stroke:none;stroke-width:0.316403;stroke-opacity:1" /></g><g
     display="none"
     id="guides" /></svg>
