<?xml version="1.0" encoding="UTF-8" standalone="no"?>
<!-- Generator: Adobe Illustrator 16.0.0, SVG Export Plug-In . SVG Version: 6.00 Build 0)  -->

<svg
   xmlns:dc="http://purl.org/dc/elements/1.1/"
   xmlns:cc="http://creativecommons.org/ns#"
   xmlns:rdf="http://www.w3.org/1999/02/22-rdf-syntax-ns#"
   xmlns:svg="http://www.w3.org/2000/svg"
   xmlns="http://www.w3.org/2000/svg"
   xmlns:sodipodi="http://sodipodi.sourceforge.net/DTD/sodipodi-0.dtd"
   xmlns:inkscape="http://www.inkscape.org/namespaces/inkscape"
   version="1.1"
   x="0px"
   y="0px"
   width="308px"
   height="308px"
   viewBox="0 0 308 308"
   enable-background="new 0 0 308 308"
   xml:space="preserve"
   id="svg2"
   inkscape:version="0.92.4 5da689c313, 2019-01-14"
   sodipodi:docname="logo-orig.svg"><metadata
     id="metadata45"><rdf:RDF><cc:Work
         rdf:about=""><dc:format>image/svg+xml</dc:format><dc:type
           rdf:resource="http://purl.org/dc/dcmitype/StillImage" /><dc:title /></cc:Work></rdf:RDF></metadata><defs
     id="defs43" /><sodipodi:namedview
     pagecolor="#ffffff"
     bordercolor="#666666"
     borderopacity="1"
     objecttolerance="10"
     gridtolerance="10"
     guidetolerance="10"
     inkscape:pageopacity="0"
     inkscape:pageshadow="2"
     inkscape:window-width="1916"
     inkscape:window-height="1058"
     id="namedview41"
     showgrid="false"
     inkscape:zoom="1.5811459"
     inkscape:cx="162.22189"
     inkscape:cy="154"
     inkscape:window-x="0"
     inkscape:window-y="18"
     inkscape:window-maximized="1"
     inkscape:current-layer="drawing" /><g
     id="image_base" /><g
     id="drawing"><circle
       fill="#7F7F7F"
       cx="154"
       cy="154"
       r="154"
       id="circle6" /><rect
       x="24.257"
       y="87.299"
       fill="none"
       width="257.485"
       height="117.402"
       id="rect8" /><path
       inkscape:connector-curvature="0"
       class="cls-1"
       d="m 153.90556,94.386075 a 79.807375,79.807375 0 1 0 80.17,79.805685 80.082294,80.082294 0 0 0 -80.17,-79.805685 z m 31.59541,56.621435 a 11.455507,11.455507 0 1 1 -11.50611,11.45382 11.469,11.469 0 0 1 11.50611,-11.4555 z m -60.83461,0 a 11.455507,11.455507 0 1 1 -11.50611,11.45382 11.469,11.469 0 0 1 11.50611,-11.4555 z m 74.97521,41.24622 c -0.9445,5.54559 -7.05849,37.38725 -44.39178,37.38725 -36.4225,0 -45.11701,-34.65324 -45.11701,-37.38725 0,0 -1.90082,-7.29293 6.83754,-5.82052 10.64087,1.79288 26.57097,2.2685 36.8779,2.2685 12.34097,0 29.81771,-0.9074 37.44291,-1.68662 8.41959,-0.84836 8.76535,2.81497 8.35044,5.23864 z m 58.39071,-64.64466 h -2.2685 c -6.9455,-18.40437 -33.32757,-73.609072 -99.97427,-73.609072 -75.412046,0 -98.726179,59.896872 -103.062476,73.609072 H 49.96604 c -13.530047,0 -14.130483,14.97378 -14.130483,14.97378 v 36.21337 c 0,20.95115 20.7454,16.458 27.960751,16.458 7.215367,0 7.515585,-9.27639 7.515585,-9.27639 v -53.27686 a 8.1193775,8.1193775 0 0 0 -6.727934,-4.89119 C 70.149813,111.851 91.800925,65.334069 155.78445,65.334069 c 54.54353,0 78.72457,40.529441 87.80869,62.441971 a 8.2003351,8.2003351 0 0 0 -6.90501,4.92493 v 53.2836 c 0,0 0.30022,9.2764 7.51557,9.2764 7.21535,0 27.96074,4.49315 27.96074,-16.458 v -36.22012 c 0,0 -0.59875,-14.97378 -14.13048,-14.97378 z"
       id="path6"
       style="fill:#ffffff;fill-opacity:1;stroke-width:1.68661761" /></g><g
     id="guides"
     display="none" /></svg>