<?xml version="1.0" encoding="UTF-8" standalone="no"?>
<svg
   xmlns:dc="http://purl.org/dc/elements/1.1/"
   xmlns:cc="http://creativecommons.org/ns#"
   xmlns:rdf="http://www.w3.org/1999/02/22-rdf-syntax-ns#"
   xmlns:svg="http://www.w3.org/2000/svg"
   xmlns="http://www.w3.org/2000/svg"
   xmlns:sodipodi="http://sodipodi.sourceforge.net/DTD/sodipodi-0.dtd"
   xmlns:inkscape="http://www.inkscape.org/namespaces/inkscape"
   version="1.1"
   x="0px"
   y="0px"
   width="308px"
   height="308px"
   viewBox="0 0 308 308"
   enable-background="new 0 0 308 308"
   xml:space="preserve"
   id="svg2"
   inkscape:version="0.92.4 5da689c313, 2019-01-14"
   sodipodi:docname="logo.svg"><metadata
     id="metadata45"><rdf:RDF><cc:Work
         rdf:about=""><dc:format>image/svg+xml</dc:format><dc:type
           rdf:resource="http://purl.org/dc/dcmitype/StillImage" /><dc:title /></cc:Work></rdf:RDF></metadata><defs
     id="defs43" /><sodipodi:namedview
     pagecolor="#ffffff"
     bordercolor="#666666"
     borderopacity="1"
     objecttolerance="10"
     gridtolerance="10"
     guidetolerance="10"
     inkscape:pageopacity="0"
     inkscape:pageshadow="2"
     inkscape:window-width="2560"
     inkscape:window-height="1420"
     id="namedview41"
     showgrid="false"
     inkscape:zoom="2.6488445"
     inkscape:cx="264.89162"
     inkscape:cy="205.5208"
     inkscape:window-x="0"
     inkscape:window-y="18"
     inkscape:window-maximized="0"
     inkscape:current-layer="drawing" /><g
     id="image_base" /><g
     id="drawing"><circle
       fill="#7F7F7F"
       cx="154"
       cy="154"
       r="154"
       id="circle6" /><rect
       x="24.257"
       y="87.299"
       fill="none"
       width="257.485"
       height="117.402"
       id="rect8" /><g
       id="g5876"
       transform="matrix(8.1500589,0,0,8.1500589,-887.89824,-888.37355)"
       style="fill:#ffffff"><path
         id="path5290"
         d="m 112.26285,127.89567 c 0,8.59 6.988,15.578 15.576,15.578 8.589,0 15.577,-6.988 15.577,-15.578 0,-8.586 -6.988,-15.574 -15.577,-15.574 -8.588,0 -15.576,6.988 -15.576,15.574 z m 3.151,0 c 0,-6.852 5.574,-12.424 12.425,-12.424 6.851,0 12.428,5.572 12.428,12.424 0,6.855 -5.577,12.428 -12.428,12.428 -6.851,0 -12.425,-5.573 -12.425,-12.428 z"
         style="fill:#ffffff"
         inkscape:connector-curvature="0" /><path
         id="path5292"
         d="m 129.58785,134.30367 c 0,1.008 -0.817,1.824 -1.825,1.824 v 0 c -1.005,0 -1.822,-0.816 -1.822,-1.824 v -14.588 c 0,-1.008 0.816,-1.824 1.822,-1.824 v 0 c 1.008,0 1.825,0.816 1.825,1.824 z"
         style="fill:#ffffff"
         inkscape:connector-curvature="0" /><path
         id="path5294"
         d="m 123.58585,134.30367 c 0,1.008 -0.818,1.824 -1.826,1.824 v 0 c -1.005,0 -1.822,-0.816 -1.822,-1.824 v -7.752 c 0,-1.004 0.817,-1.822 1.822,-1.822 v 0 c 1.008,0 1.826,0.818 1.826,1.822 z"
         style="fill:#ffffff"
         inkscape:connector-curvature="0" /><path
         id="path5296"
         d="m 135.58985,134.30367 c 0,1.008 -0.816,1.824 -1.824,1.824 v 0 c -1.005,0 -1.822,-0.816 -1.822,-1.824 v -7.752 c 0,-1.004 0.817,-1.822 1.822,-1.822 v 0 c 1.008,0 1.824,0.818 1.824,1.822 z"
         style="fill:#ffffff"
         inkscape:connector-curvature="0" /></g></g><g
     id="guides"
     display="none" /></svg>