<?xml version="1.0" encoding="UTF-8" standalone="no"?>
<svg
   xmlns:dc="http://purl.org/dc/elements/1.1/"
   xmlns:cc="http://creativecommons.org/ns#"
   xmlns:rdf="http://www.w3.org/1999/02/22-rdf-syntax-ns#"
   xmlns:svg="http://www.w3.org/2000/svg"
   xmlns="http://www.w3.org/2000/svg"
   xmlns:sodipodi="http://sodipodi.sourceforge.net/DTD/sodipodi-0.dtd"
   xmlns:inkscape="http://www.inkscape.org/namespaces/inkscape"
   version="1.1"
   x="0px"
   y="0px"
   width="308px"
   height="308px"
   viewBox="0 0 308 308"
   enable-background="new 0 0 308 308"
   xml:space="preserve"
   id="svg2"
   inkscape:version="1.0 (4035a4fb49, 2020-05-01)"
   sodipodi:docname="Di.FM_4.svg"><metadata
     id="metadata45"><rdf:RDF><cc:Work
         rdf:about=""><dc:format>image/svg+xml</dc:format><dc:type
           rdf:resource="http://purl.org/dc/dcmitype/StillImage" /><dc:title></dc:title></cc:Work></rdf:RDF></metadata><defs
     id="defs43" /><sodipodi:namedview
     pagecolor="#ffffff"
     bordercolor="#666666"
     borderopacity="1"
     objecttolerance="10"
     gridtolerance="10"
     guidetolerance="10"
     inkscape:pageopacity="0"
     inkscape:pageshadow="2"
     inkscape:window-width="2558"
     inkscape:window-height="1416"
     id="namedview41"
     showgrid="false"
     inkscape:zoom="3.8867314"
     inkscape:cx="141.52165"
     inkscape:cy="154"
     inkscape:window-x="1200"
     inkscape:window-y="22"
     inkscape:window-maximized="0"
     inkscape:current-layer="drawing"
     inkscape:document-rotation="0" /><g
     style="display:inline"
     id="image_base" /><g
     style="display:inline"
     id="drawing"><circle
       style="display:inline"
       fill="#7f7f7f"
       cx="154"
       cy="154"
       r="154"
       id="circle6" /><rect
       style="display:inline"
       x="24.257"
       y="87.299004"
       fill="none"
       width="257.48499"
       height="117.402"
       id="rect8" /><path
       style="display:none;fill:#ffffff;stroke:#ffffff;stroke-width:1.2;stroke-opacity:1"
       d="m 96.45,193.6319 v -20.48919 l 22.5,0.32648 22.5,0.32648 v 4.8 4.8 l -15.9,0.33484 c -14.81279,0.31192 -15.9,0.49377 -15.9,2.65939 0,2.13415 1.05674,2.35248 12.9,2.66517 l 12.9,0.3406 v 4.8 4.8 l -12.84131,0.34001 -12.84131,0.33999 -0.35869,6.86001 -0.35869,6.85999 -6.3,0.36271 -6.3,0.36271 z m 11.04012,11.06377 0.35988,-6.9 12.9,-0.3406 c 12.82074,-0.3385 12.9,-0.35878 12.9,-3.3 v -2.9594 h -13.2 -13.2 v -4.76516 -4.76518 l 15.9,-0.33482 c 15.45889,-0.32555 15.91064,-0.40974 16.28346,-3.03484 l 0.38346,-2.7 H 119.33346 98.85 v 18 18 h 4.14012 4.14011 z m 38.71504,7.81586 c -0.3412,-0.88915 -0.47069,-9.96396 -0.28776,-20.16625 l 0.3326,-18.54961 6.30782,-0.36299 6.30783,-0.36297 9.50868,9.96297 9.50867,9.96299 10.07875,-9.96982 10.07874,-9.9698 6.50475,0.3698 6.50476,0.36982 v 19.8 19.8 h -6 -6 l -0.6,-10.539 -0.6,-10.539 -8.96996,9.039 c -4.93349,4.97146 -9.537,9.039 -10.23004,9.039 -0.69304,0 -5.29655,-4.06754 -10.23004,-9.039 l -8.96996,-9.039 -0.6,10.539 -0.6,10.539 -5.71224,0.36625 c -3.95395,0.25351 -5.9032,-0.13137 -6.3326,-1.25039 z M 156.45,200.19567 c 0,-8.21668 0.41186,-11.4 1.47493,-11.4 0.81121,0 5.8182,4.3207 11.12662,9.60155 l 9.65168,9.60153 9.54523,-9.60153 c 5.24988,-5.28085 10.23291,-9.60155 11.07339,-9.60155 1.13029,0 1.52815,2.968 1.52815,11.4 v 11.4 h 4.2 4.2 v -18 -18 h -5.07626 c -4.77502,0 -5.70447,0.62309 -15.66237,10.5 l -10.58611,10.5 -10.18768,-10.5 c -9.42673,-9.71573 -10.54246,-10.5 -14.93763,-10.5 H 148.05 v 18 18 h 4.2 4.2 z M 96.982164,164.45161 c -0.325884,-0.84924 -0.44394,-10.70424 -0.262344,-21.9 L 97.05,122.19567 h 10.2 10.2 l 0.3406,12.9 0.34059,12.9 h 14.88129 c 14.51901,0 20.65681,-1.08462 22.49473,-3.97507 0.49832,-0.78371 0.91431,-7.43381 0.92442,-14.778 0.0151,-10.96193 -0.33637,-13.64797 -1.96267,-15 -1.50268,-1.24924 -8.67452,-1.79182 -29.7,-2.24693 l -27.71896,-0.6 v -8.4 -8.4 h 33 c 36.93092,0 37.56955,0.124788 44.03797,8.60533 l 3.36203,4.40785 v 22.48203 22.48202 l -3.7257,4.61139 c -6.46843,8.0061 -9.9089,8.67165 -45.21196,8.74612 -24.16166,0.051 -31.067432,-0.27292 -31.530176,-1.4788 z m 68.390396,-3.85594 c 9.14298,-4.64646 9.67744,-6.3364 9.67744,-30.6 0,-23.92381 -0.4707,-25.50218 -9.12544,-30.6 -3.74544,-2.20614 -6.61894,-2.430096 -35.57456,-2.772648 l -31.5,-0.372648 v 6.609936 6.60994 l 27.47665,0.36271 c 34.72926,0.45845 32.52335,-0.88102 32.52335,19.7487 0,20.97536 -0.18424,21.11883 -26.4,20.5596 l -16.2,-0.34559 -0.3406,-12.9 -0.34059,-12.9 H 107.2094 98.85 v 19.87375 19.87374 l 30.9,-0.37374 c 28.08919,-0.33975 31.32959,-0.59207 35.62256,-2.77375 z m 23.47744,-30.6 V 93.90561 l 11.1,0.345024 11.1,0.345036 v 6.63329 28.76671 35.4 l -11.1,0.34504 -11.1,0.34502 z m 20.4,0 v -33.6 h -9 -9 v 33.6 33.6 h 9 9 z"
       id="path1402"
       sodipodi:nodetypes="ccccccsssccccccccccccsscccccssccccccccsscccccccccccccccssscccssssscssscccccsscsscccccssscccccssssscccsscccssssssscccssscccccccssccccccccccccccccccc" /><path
       sodipodi:nodetypes="cccccscscssssscccccssssssscc"
       style="display:inline;fill:#ffffff;fill-opacity:1;stroke:#ffffff;stroke-width:0.308743;stroke-opacity:1"
       d="m 99.711288,143.83943 v -19.17432 h 7.523032 7.52302 l 0.19317,5.32581 c 0.1062,2.9292 0.28255,8.74868 0.39181,12.93217 l 0.19866,7.60636 10.90033,0.22707 c 5.99519,0.1249 13.93032,0.1593 17.63362,0.0764 8.34523,-0.18669 10.18301,-0.6311 12.50447,-3.02378 1.77097,-1.8253 2.31166,-3.44023 2.75846,-8.23875 0.43264,-4.64662 0.18168,-22.32583 -0.34196,-24.0893 -0.21412,-0.72107 -0.93276,-1.92844 -1.59701,-2.68306 -1.42487,-1.61874 -3.32703,-2.42935 -6.92515,-2.95118 -2.6238,-0.38053 -23.93141,-0.88619 -38.56712,-0.91525 -4.92445,-0.01 -9.68294,-0.10536 -10.57444,-0.21247 l -1.620892,-0.1947 v -5.74898 c -0.59981,-8.212513 1.380092,-5.735547 8.876352,-5.66258 22.23278,0.21642 46.23906,0.711288 49.47601,1.01988 4.2913,0.409116 5.93991,0.955404 9.20603,3.05053 3.82844,2.45585 5.24867,4.38713 6.11018,8.30892 0.73458,3.34392 1.13495,18.66852 0.77446,29.64319 -0.47066,14.32883 -1.13282,16.17237 -7.05364,19.63828 -2.8412,1.66316 -5.2527,2.48896 -8.56266,2.93215 -3.07756,0.41209 -19.24249,0.84132 -41.61433,1.105 l -17.212402,0.20286 z"
       id="path1404" /><path
       sodipodi:nodetypes="ccccccccc"
       style="display:inline;fill:#ffffff;fill-opacity:1;stroke:#ffffff;stroke-width:0.308743;stroke-opacity:1"
       d="m 192.02536,130.06811 v -32.8811 h 8.18168 8.18167 v 32.8811 32.8811 h -8.18167 -8.18168 z"
       id="path1406" /><path
       sodipodi:nodetypes="ccssscsssscccccsssscssscccc"
       style="display:inline;fill:#ffffff;fill-opacity:1;stroke:#ffffff;stroke-width:0.308743;stroke-opacity:1"
       d="m 148.80137,193.4704 v -17.33394 l 3.2286,0.16479 c 2.4291,0.12397 3.59503,0.33452 4.70833,0.85026 1.12666,0.52192 3.82696,3.04263 11.31704,10.56434 l 9.83732,9.87884 1.88865,-1.80842 c 1.03875,-0.99463 5.29535,-5.15441 9.4591,-9.24395 4.16375,-4.08955 8.33544,-7.94214 9.27042,-8.56133 1.95313,-1.29344 3.91512,-1.75585 7.45009,-1.75585 h 2.42779 v 17.2896 17.28959 h -3.36195 -3.36196 l -0.15083,-9.95695 c -0.16184,-10.68489 -0.33918,-12.05584 -1.63591,-12.64666 -0.65825,-0.29993 -0.96798,-0.19698 -2.42347,0.80547 -1.94031,1.33633 -8.40491,7.43352 -14.43675,13.61625 l -4.21671,4.32219 -6.89538,-6.80187 c -9.69504,-9.56355 -13.15086,-12.44639 -14.43255,-12.0396 -1.29703,0.41166 -1.59811,2.60412 -1.79251,13.05295 l -0.17951,9.64822 h -3.3499 -3.34991 z"
       id="path1408" /><path
       sodipodi:nodetypes="ccccssccccccssccsscccc"
       style="display:inline;fill:#ffffff;fill-opacity:1;stroke:#ffffff;stroke-width:0.308743;stroke-opacity:1"
       d="m 99.711288,193.51474 v -17.2896 h 19.632302 19.6323 l -0.21179,1.31217 c -0.26426,1.63725 -0.65717,2.05521 -2.27342,2.41836 -1.22982,0.27632 -19.29398,0.88688 -26.5137,0.89616 l -3.47336,0.005 v 5.55736 5.55737 h 13.1363 13.1363 l -0.0919,1.9086 c -0.088,1.82737 -0.13134,1.91961 -1.01815,2.16695 -1.10442,0.30805 -13.58653,0.84344 -19.94879,0.85566 l -4.51165,0.008 -0.1909,2.85587 c -0.105,1.57073 -0.28254,4.69675 -0.39457,6.94671 l -0.20369,4.09084 h -3.35263 -3.352632 z"
       id="path1410" /></g><g
     id="guides"
     display="inline" /></svg>
