<?xml version="1.0" encoding="UTF-8" standalone="no"?>
<svg
   xmlns:dc="http://purl.org/dc/elements/1.1/"
   xmlns:cc="http://creativecommons.org/ns#"
   xmlns:rdf="http://www.w3.org/1999/02/22-rdf-syntax-ns#"
   xmlns:svg="http://www.w3.org/2000/svg"
   xmlns="http://www.w3.org/2000/svg"
   xmlns:sodipodi="http://sodipodi.sourceforge.net/DTD/sodipodi-0.dtd"
   xmlns:inkscape="http://www.inkscape.org/namespaces/inkscape"
   sodipodi:docname="ClassicalRadio.svg"
   inkscape:version="1.0 (4035a4fb49, 2020-05-01)"
   id="svg2"
   xml:space="preserve"
   enable-background="new 0 0 308 308"
   viewBox="0 0 308 308"
   height="308px"
   width="308px"
   y="0px"
   x="0px"
   version="1.1"><metadata
     id="metadata45"><rdf:RDF><cc:Work
         rdf:about=""><dc:format>image/svg+xml</dc:format><dc:type
           rdf:resource="http://purl.org/dc/dcmitype/StillImage" /><dc:title></dc:title></cc:Work></rdf:RDF></metadata><defs
     id="defs43" /><sodipodi:namedview
     inkscape:document-rotation="0"
     inkscape:current-layer="drawing"
     inkscape:window-maximized="0"
     inkscape:window-y="22"
     inkscape:window-x="1200"
     inkscape:cy="154"
     inkscape:cx="95.656953"
     inkscape:zoom="3.8993506"
     showgrid="false"
     id="namedview41"
     inkscape:window-height="1416"
     inkscape:window-width="2558"
     inkscape:pageshadow="2"
     inkscape:pageopacity="0"
     guidetolerance="10"
     gridtolerance="10"
     objecttolerance="10"
     borderopacity="1"
     bordercolor="#666666"
     pagecolor="#ffffff" /><g
     id="image_base" /><g
     id="drawing"><circle
       r="154"
       id="circle6"
       cy="154"
       cx="154"
       fill="#7f7f7f" /><rect
       id="rect8"
       height="117.402"
       width="257.485"
       fill="none"
       y="87.299"
       x="24.257" /><path
       sodipodi:nodetypes="ssssscsssssscssssssssssssscssssssssscsccsssssssssssssssss"
       id="path164"
       d="m 160.19413,247.47253 c 0.29011,-0.29011 -0.97934,-4.90261 -2.821,-10.25 -3.06062,-8.88674 -3.19909,-9.77753 -1.6108,-10.36227 13.24561,-4.87651 17.19843,-6.65402 22.14951,-9.96023 8.86716,-5.92126 18.95074,-17.14021 23.82182,-26.50408 5.1069,-9.81719 7.26685,-17.65333 7.26479,-26.35605 -0.002,-7.8326 -1.91516,-12.13245 -7.32068,-16.45213 -5.25465,-4.19912 -13.03126,-4.32877 -19.85296,-0.33099 -14.29522,8.37756 -27.04994,33.17648 -30.34171,58.99322 -0.66522,5.21721 -1.67213,5.73785 -6.38432,3.30108 -4.07263,-2.10604 -8.83051,-7.92325 -10.03865,-12.27375 -5.27286,-18.98745 8.62143,-53.18918 33.15897,-81.62305 l 3.31873,-3.84572 10.48109,2.32159 c 14.59833,3.23356 29.48308,3.25449 36.48108,0.0513 6.26129,-2.86599 10.2224,-6.53713 12.60414,-11.68143 3.77491,-8.153442 1.72807,-16.264622 -5.34096,-21.165022 -3.52072,-2.44063 -5.23076,-2.883273 -12.29336,-3.182136 -15.81526,-0.669243 -35.3839,7.235656 -55.96982,22.609418 -2.93156,2.18932 -3.15968,2.20658 -10,0.75645 -24.56608,-5.207952 -48.78031,1.73959 -66.08383,18.96074 -9.32438,9.28 -15.44896,20.22571 -17.91682,32.02055 -6.27142,29.97352 10.4435,57.49042 38.01855,62.58794 3.26917,0.60434 7.44929,0.85451 9.28916,0.55594 2.86257,-0.46453 4.11325,0.0827 8.66818,3.79275 7.09474,5.77874 13.82522,7.96922 24.64731,8.02162 l 8.62256,0.0418 1.16654,6.32747 c 1.81945,9.86895 4.41698,15.51057 6.28248,13.64506 z M 96.5,212.19741 c -12.48383,-4.33764 -23.18485,-15.02127 -27.46487,-27.42025 -2.94811,-8.54049 -3.71719,-23.00931 -1.72067,-32.37114 7.11541,-33.36464 39.4488,-53.915499 75.99399,-48.30121 3.95535,0.60765 7.31484,1.21844 7.46554,1.35732 0.15069,0.13889 -3.60716,4.02922 -8.35078,8.64519 -22.94149,22.32414 -35.39762,47.44748 -35.4162,71.43258 -0.007,9.62665 1.7101,18.02509 5.00855,24.4906 l 2.02509,3.9695 -6.27033,-0.0327 C 104.32165,213.9494 99.25,213.15292 96.5,212.19741 Z m 57.10663,-1.02488 c -0.69499,-1.12451 1.0988,-14.23178 2.93173,-21.42222 2.09516,-8.21916 8.39868,-21.09229 13.15706,-26.86952 4.99713,-6.0671 12.60939,-11.65974 16.98851,-12.48127 4.75857,-0.89272 10.7491,1.06787 13.3664,4.37455 1.91095,2.41429 2.10928,3.66503 1.73478,10.94029 -0.37087,7.20487 -0.94848,9.27515 -4.69999,16.84602 -8.26039,16.67017 -20.73269,25.71058 -39.79635,28.84596 -1.76617,0.29048 -3.42314,0.18527 -3.68214,-0.23381 z M 183.25,111.29668 c -4.5375,-0.87378 -8.2302,-1.86048 -8.20599,-2.19268 0.0242,-0.3322 3.0617,-2.98103 6.75,-5.8863 12.6332,-9.951152 27.73674,-15.807212 35.64783,-13.821652 9.25717,2.3234 8.51458,14.753292 -1.24225,20.793442 -3.16565,1.95976 -5.21499,2.31958 -14.19959,2.49309 -6.32046,0.12207 -13.78392,-0.42959 -18.75,-1.3859 z"
       style="fill:#ffffff;stroke:#ffffff;stroke-opacity:1" /></g><g
     display="none"
     id="guides" /></svg>
