<?xml version="1.0" encoding="UTF-8" standalone="no"?>
<!-- Generator: Adobe Illustrator 16.0.0, SVG Export Plug-In . SVG Version: 6.00 Build 0)  -->

<svg
   xmlns:dc="http://purl.org/dc/elements/1.1/"
   xmlns:cc="http://creativecommons.org/ns#"
   xmlns:rdf="http://www.w3.org/1999/02/22-rdf-syntax-ns#"
   xmlns:svg="http://www.w3.org/2000/svg"
   xmlns="http://www.w3.org/2000/svg"
   xmlns:sodipodi="http://sodipodi.sourceforge.net/DTD/sodipodi-0.dtd"
   xmlns:inkscape="http://www.inkscape.org/namespaces/inkscape"
   version="1.1"
   x="0px"
   y="0px"
   width="308px"
   height="308px"
   viewBox="0 0 308 308"
   enable-background="new 0 0 308 308"
   xml:space="preserve"
   id="svg2"
   inkscape:version="0.92.4 5da689c313, 2019-01-14"
   sodipodi:docname="logo.svg"><metadata
     id="metadata45"><rdf:RDF><cc:Work
         rdf:about=""><dc:format>image/svg+xml</dc:format><dc:type
           rdf:resource="http://purl.org/dc/dcmitype/StillImage" /><dc:title /></cc:Work></rdf:RDF></metadata><defs
     id="defs43" /><sodipodi:namedview
     pagecolor="#ffffff"
     bordercolor="#666666"
     borderopacity="1"
     objecttolerance="10"
     gridtolerance="10"
     guidetolerance="10"
     inkscape:pageopacity="0"
     inkscape:pageshadow="2"
     inkscape:window-width="1920"
     inkscape:window-height="1002"
     id="namedview41"
     showgrid="false"
     inkscape:zoom="0.38311689"
     inkscape:cx="83.927849"
     inkscape:cy="236.78343"
     inkscape:window-x="0"
     inkscape:window-y="0"
     inkscape:window-maximized="1"
     inkscape:current-layer="drawing"
     showguides="true"
     inkscape:guide-bbox="true"><sodipodi:guide
       position="65.521233,221.48022"
       orientation="1,0"
       id="guide79"
       inkscape:locked="false" /><sodipodi:guide
       position="238.09124,226.0944"
       orientation="1,0"
       id="guide81"
       inkscape:locked="false" /></sodipodi:namedview><g
     id="image_base" /><g
     id="drawing"><circle
       fill="#7F7F7F"
       cx="154"
       cy="154"
       r="154"
       id="circle6" /><rect
       x="24.257"
       y="87.299"
       fill="none"
       width="257.485"
       height="117.402"
       id="rect8" /><path
       inkscape:connector-curvature="0"
       id="path4"
       d="m 234.25048,202.29681 c -3.07688,7.10822 -6.71889,13.65129 -10.93862,19.66691 -5.75188,8.20081 -10.46138,13.87733 -14.09085,17.02958 -5.62628,5.17417 -11.65445,7.82405 -18.10962,7.97476 -4.63416,0 -10.22277,-1.31866 -16.72817,-3.99365 -6.52675,-2.66246 -12.52477,-3.98111 -18.00915,-3.98111 -5.75189,0 -11.92072,1.31865 -18.51905,3.98111 -6.60838,2.67499 -11.932,4.06901 -16.00228,4.20715 -6.19018,0.26374 -12.36026,-2.4615 -18.51903,-8.18826 -3.930879,-3.42853 -8.847601,-9.306 -14.737629,-17.63242 -6.319527,-8.89153 -11.515058,-19.20221 -15.585321,-30.95714 -4.359119,-12.69683 -6.544336,-24.99178 -6.544336,-36.8949 0,-13.63496 2.946275,-25.39492 8.847592,-35.24972 4.637929,-7.91573 10.808011,-14.15991 18.530345,-18.743829 7.722329,-4.583926 16.066329,-6.919836 25.052069,-7.069286 4.91672,0 11.36436,1.52085 19.3768,4.509821 7.98983,2.999015 13.12006,4.519884 15.36932,4.519884 1.68161,0 7.38075,-1.778329 17.04214,-5.323644 9.13645,-3.287861 16.84748,-4.649221 23.1645,-4.112971 17.11748,1.38146 29.97758,8.129235 38.53004,20.286045 -15.30904,9.27585 -22.88193,22.26781 -22.73122,38.93444 0.13814,12.98191 4.84765,23.78488 14.1034,32.36248 4.1946,3.9811 8.87899,7.05797 14.09083,9.24319 -1.13027,3.27781 -2.32334,6.41748 -3.59176,9.43156 z M 194.99202,47.812437 c 0,10.175165 -3.71737,19.67569 -11.12698,28.469276 -8.9418,10.453855 -19.75733,16.494572 -31.4859,15.541372 -0.14944,-1.220707 -0.2361,-2.505457 -0.2361,-3.855507 0,-9.768147 4.25237,-20.222003 11.80393,-28.769444 3.7701,-4.327718 8.56501,-7.926157 14.37968,-10.796705 5.80212,-2.827712 11.29025,-4.391496 16.45187,-4.65929 0.15073,1.360263 0.2135,2.720606 0.2135,4.07016 z"
       style="fill:#ffffff;stroke-width:0.17137577" /></g><g
     id="guides"
     display="none" /></svg>