<?xml version="1.0" encoding="UTF-8" standalone="no"?>
<svg
   xmlns:dc="http://purl.org/dc/elements/1.1/"
   xmlns:cc="http://creativecommons.org/ns#"
   xmlns:rdf="http://www.w3.org/1999/02/22-rdf-syntax-ns#"
   xmlns:svg="http://www.w3.org/2000/svg"
   xmlns="http://www.w3.org/2000/svg"
   xmlns:sodipodi="http://sodipodi.sourceforge.net/DTD/sodipodi-0.dtd"
   xmlns:inkscape="http://www.inkscape.org/namespaces/inkscape"
   sodipodi:docname="RadioTunes.svg"
   inkscape:version="1.0 (4035a4fb49, 2020-05-01)"
   id="svg2"
   xml:space="preserve"
   enable-background="new 0 0 308 308"
   viewBox="0 0 308 308"
   height="308px"
   width="308px"
   y="0px"
   x="0px"
   version="1.1"><metadata
     id="metadata45"><rdf:RDF><cc:Work
         rdf:about=""><dc:format>image/svg+xml</dc:format><dc:type
           rdf:resource="http://purl.org/dc/dcmitype/StillImage" /><dc:title></dc:title></cc:Work></rdf:RDF></metadata><defs
     id="defs43" /><sodipodi:namedview
     inkscape:document-rotation="0"
     inkscape:current-layer="drawing"
     inkscape:window-maximized="0"
     inkscape:window-y="22"
     inkscape:window-x="1200"
     inkscape:cy="154"
     inkscape:cx="154"
     inkscape:zoom="3.8993506"
     showgrid="false"
     id="namedview41"
     inkscape:window-height="1416"
     inkscape:window-width="2558"
     inkscape:pageshadow="2"
     inkscape:pageopacity="0"
     guidetolerance="10"
     gridtolerance="10"
     objecttolerance="10"
     borderopacity="1"
     bordercolor="#666666"
     pagecolor="#ffffff" /><g
     id="image_base" /><g
     id="drawing"><circle
       id="circle6"
       r="154"
       cy="154"
       cx="154"
       fill="#7f7f7f" /><rect
       id="rect8"
       height="117.402"
       width="257.48499"
       fill="none"
       y="87.299004"
       x="24.257" /><path
       sodipodi:nodetypes="cscsscssssssssssscsscsssscssss"
       id="path2214"
       d="m 118.37616,237.53539 c 12.9517,-5.42746 17.99724,-14.98878 24.04222,-45.56015 l 4.36564,-22.0784 6.83498,8.42427 c 17.77957,21.91371 35.45811,32.85257 46.73853,28.9202 l 3.82222,-1.33243 -10.08987,-10.28777 C 187.25405,188.6512 182.06496,181.73416 178,174.17332 c -3.3,-6.138 -7.05,-12.288 -8.33333,-13.66666 C 168.38333,159.128 167.85635,158 168.49559,158 c 2.7532,0 21.51281,-13.53636 29.00333,-20.9279 23.08023,-22.77527 29.38825,-44.709002 16.74959,-58.240228 -6.02176,-6.447032 -12.8248,-8.769688 -25.78268,-8.802585 -20.05118,-0.05091 -51.00678,6.521549 -58.80669,12.485761 -2.14978,1.643833 -2.17699,2.18213 -0.33333,6.594624 2.87008,6.869059 2.52771,14.379608 -2.02162,44.348328 -4.02072,26.48651 -10.71504,66.22942 -11.26725,66.89151 -0.16033,0.19223 -3.16456,-0.92139 -6.67608,-2.47469 -17.115009,-7.57079 -36.694188,0.41172 -36.694188,14.96037 0,14.04644 15.611532,26.28937 33.709488,26.43578 4.24022,0.0343 9.64022,-0.74672 12,-1.73558 z m 33.44066,-99.20205 c 0.36475,-1.28334 1.64,-8.93334 2.83388,-17 2.82568,-19.09234 2.76605,-18.93404 7.75276,-20.5798 14.36307,-4.740246 35.10185,-3.984881 40.25293,1.46613 l 2.67694,2.83282 -3.29668,-2.19291 c -4.73812,-3.151741 -6.31313,-2.75152 -8.66346,2.20144 -2.82524,5.95377 -16.44184,19.09175 -29.17997,28.1543 -11.11503,7.90779 -13.44292,8.87045 -12.3764,5.11802 z"
       style="fill:#000000;stroke-width:1.33333" /><path
       id="path2218"
       d="m 102.83764,238.97325 c -8.687426,-1.042 -16.507428,-4.44489 -21.997989,-9.57247 -3.648289,-3.4071 -6.317394,-7.63973 -7.396971,-11.73002 -0.625872,-2.3713 -0.742221,-6.20861 -0.250959,-8.27692 1.326393,-5.5844 6.270933,-10.45671 12.900544,-12.71208 3.265334,-1.11086 5.741978,-1.48996 9.692914,-1.48369 5.558051,0.009 8.720771,0.78123 16.541211,4.03979 1.55155,0.64648 3.06788,1.17648 3.36964,1.17777 0.50584,0.002 0.61043,-0.32277 1.3406,-4.16501 2.91992,-15.365 9.4662,-55.71548 12.05527,-74.30724 1.80647,-12.97206 1.94385,-14.48065 1.94993,-21.41382 0.006,-7.057226 -0.054,-7.455995 -1.81377,-12.019706 -0.48238,-1.25097 -0.94921,-2.7257 -1.03739,-3.277177 -0.1489,-0.931132 -0.0836,-1.075699 0.9152,-2.025819 0.64257,-0.611266 2.33384,-1.633892 4.20132,-2.540337 8.91925,-4.329255 26.80098,-8.354382 44.67116,-10.055351 5.2769,-0.502281 16.30429,-0.433672 19.87511,0.123656 3.43393,0.535964 7.65494,1.874176 9.93882,3.15097 5.79266,3.238361 10.29521,8.994052 12.01564,15.359833 0.38975,1.442121 0.48462,2.677793 0.48237,6.283097 -0.003,4.092138 -0.0668,4.734544 -0.72873,7.284324 -2.34556,9.03553 -7.61778,18.05467 -16.41243,28.07661 -3.01664,3.43761 -8.46367,8.69756 -11.96345,11.55257 -8.58057,6.99975 -19.17679,14.31102 -22.03283,15.20239 -1.34612,0.42012 -1.33691,0.82311 0.0583,2.55086 2.03957,2.52574 4.11547,5.87148 8.249,13.29494 3.03504,5.45068 5.97943,9.92056 9.12224,13.84846 2.93608,3.66955 3.2883,4.05484 10.96804,11.99805 3.44808,3.56636 6.22514,6.52228 6.17125,6.5687 -0.0539,0.0464 -1.25203,0.4752 -2.66252,0.95283 -2.41833,0.81893 -2.7546,0.86713 -5.89842,0.84559 -4.07109,-0.0279 -6.3022,-0.61862 -11.1557,-2.95362 -10.27463,-4.94309 -19.90042,-13.70288 -33.44794,-30.43873 -1.96414,-2.42639 -3.64844,-4.41162 -3.74289,-4.41162 -0.0944,0 -1.24421,5.45283 -2.55501,12.11741 -5.53801,28.157 -8.27376,37.56301 -13.05083,44.87103 -3.38528,5.17884 -9.43016,9.71718 -14.77869,11.09546 -3.50023,0.90198 -10.23377,1.39207 -13.592,0.98927 z m 51.77644,-99.26618 c 1.68498,-0.84241 8.37129,-5.37447 12.54476,-8.503 6.5567,-4.91505 13.20007,-10.73614 18.4116,-16.13271 4.10386,-4.24956 6.22283,-6.94181 8.1533,-10.35913 2.65631,-4.70222 3.4878,-4.798156 9.22402,-1.06428 1.1798,0.76797 2.20572,1.33568 2.27981,1.26159 0.0741,-0.0741 -0.71809,-0.98515 -1.76042,-2.02456 -1.30344,-1.2998 -2.41557,-2.13649 -3.56207,-2.67983 -7.72208,-3.659621 -25.32871,-3.488729 -37.27476,0.36179 -5.24482,1.69055 -5.27653,1.77154 -8.11735,20.73531 -1.24116,8.28533 -1.87564,12.14652 -2.60181,15.83355 -0.74906,3.80327 -0.40879,4.12698 2.70292,2.57127 z"
       style="fill:#ffffff;fill-opacity:1;stroke:none;stroke-width:0.256453;stroke-opacity:1" /></g><g
     display="none"
     id="guides" /></svg>
